/* XPM */
static char *_a13946af71f4ce9f6a552b6c3d56c9beDGeXD4Jjh6E72Vn[] = {
/* columns rows colors chars-per-pixel */
"50 50 139 2 ",
"   c None",
".  c #262C3F",
"X  c #3A5D3F",
"o  c #45723F",
"O  c #222440",
"+  c #252D40",
"@  c #273140",
"#  c #283440",
"$  c #293A42",
"%  c #2B4344",
"&  c #2C4B45",
"*  c #2B4649",
"=  c #2C4C4C",
"-  c #314B40",
";  c #2E5345",
":  c #2E524E",
">  c #345542",
",  c #345A44",
"<  c #395C40",
"1  c #305B4B",
"2  c #2F5652",
"3  c #2F5853",
"4  c #305C53",
"5  c #346147",
"6  c #3D6440",
"7  c #3D6B43",
"8  c #33644A",
"9  c #356A4B",
"0  c #3D7147",
"q  c #37734C",
"w  c #39764D",
"e  c #3B7C4F",
"r  c #336452",
"t  c #356C51",
"y  c #377151",
"u  c #387550",
"i  c #3A7950",
"p  c #416C40",
"a  c #447441",
"s  c #447945",
"d  c #4A7E40",
"f  c #427F4A",
"g  c #4D833F",
"h  c #528C3F",
"j  c #56943F",
"k  c #5B9D3F",
"l  c #5EA23F",
"z  c #60A53F",
"x  c #63AB3F",
"c  c #3E814E",
"v  c #4C8341",
"b  c #4E8B44",
"n  c #42844D",
"m  c #46894C",
"M  c #488A4B",
"N  c #498C4B",
"B  c #498D4B",
"V  c #4B8D4A",
"C  c #4A8D4B",
"Z  c #4A8E4A",
"A  c #4B8E4A",
"S  c #4B8F4A",
"D  c #4A8E4B",
"F  c #4C8F4A",
"G  c #498D4B",
"H  c #4F9046",
"J  c #4D9149",
"K  c #4E9149",
"L  c #4E9249",
"P  c #4F9349",
"I  c #4C904A",
"U  c #4D904A",
"Y  c #4E9149",
"T  c #519043",
"R  c #559340",
"E  c #569440",
"W  c #559643",
"Q  c #559743",
"!  c #569742",
"~  c #519346",
"^  c #509247",
"/  c #529446",
"(  c #539546",
")  c #529647",
"_  c #529747",
"`  c #539747",
"'  c #539747",
"]  c #579942",
"[  c #579943",
"{  c #539847",
"}  c #539947",
"|  c #549946",
" . c #559946",
".. c #549847",
"X. c #549947",
"o. c #559A46",
"O. c #559B46",
"+. c #569B46",
"@. c #579C45",
"#. c #579D45",
"$. c #569C46",
"%. c #579C46",
"&. c #559A46",
"*. c #5C9F40",
"=. c #589D45",
"-. c #599F44",
";. c #589E45",
":. c #599E45",
">. c #599E45",
",. c #509348",
"<. c #509448",
"1. c #519548",
"2. c #519648",
"3. c #529648",
"4. c #529748",
"5. c #519548",
"6. c #539848",
"7. c #5BA143",
"8. c #5BA243",
"9. c #5EA340",
"0. c #5DA342",
"q. c #5CA243",
"w. c #5CA343",
"e. c #5FA641",
"r. c #5FA741",
"t. c #5DA442",
"y. c #5EA442",
"u. c #5EA542",
"i. c #5FA542",
"p. c #5AA044",
"a. c #5CA244",
"s. c #5AA044",
"d. c #60A741",
"f. c #60A840",
"g. c #61A840",
"h. c #61A940",
"j. c #60A841",
"k. c #62A940",
"l. c #62AA40",
/* pixels */
"                                      @ . @ @ . . . . . . . O                                       ",
"                                      & - - - & X X X & $ X &                                       ",
"                                    X o p p p p < p p p p p o X                                     ",
"                            + O + - p d h h h h g h h h h h o o - + . .                             ",
"                          % # X - < d j k z z z l l z z z k j d < - X % &                           ",
"                        X 6 6 6 o a g k z x x x x x x x x z k g o 6 > X 6 <                         ",
"                      > o d g h g h k z x x x x x x x x x x z k h h h g o o X                       ",
"                    X 6 d j k l k l z z x x x x x x x x x x z z l l l k k g X X                     ",
"                  > 6 o h k x x x x x x x x x x x x x x x x x x x x x x l h o 7 >                   ",
"                X o g h k z x x x x x x x x x x x x x x x x x x x x x x l k h g o <                 ",
"              X 6 g j l z x x x x x x x x x x x x x x x x x x x x x x x x z k E o p X               ",
"            $ ; 7 v *.x x x x x x x x x x x x x x x x x x x x x x x x x l.u.u.] b a 6 >             ",
"          & ; 5 s b 0.x x x x x x x x x x x x x x x x x x x x x x x x x l.p.+.( b v v o X           ",
"        $ & , q n ( 0.x x x x x x x x x x x x x x x x x x x x x x x x l.a.+.L A ~ E j g X X         ",
"      @ % , 9 n V } p.u.x l.l.d.u.d.l.l.x x x x x x x z d.u.d.d.l.l.l.u.:.<.L A <.@.E v 6 & +       ",
"      . . 6 s b ( ( } %.0.d.l.8.:.+.:.u.x x x x x x x d.-.+.:.0.l.d.p.+.+.<.<.<...` ~ s < $ .       ",
"      . X 6 v Q O.2.B 2.O.r.r.#.L L } 0.x x x x x x r.8.} L L :.u.8.+.I I ( %.-.} I n 0 ; X O       ",
"      . % 7 v ] s.2.B B } ;.8.O.V A <.%.u.z l.x x u.w.%.L A L +.8.-.( A A ( s.%.P M e 9 & X $       ",
"    & ; , 9 v H 2.2.2.2.2.} 8.} ( L <.` +.8.u.x u.p.+.( ( P P ( } } } P P } } P Z n e 9 8 5 ; &     ",
". & ; 5 9 w n M J } $.O.} Z c 2.+.:.` L I +.8.u.8.( L L } %.%.P A I } %.%.} A M n c e w q 9 8 ; $ @ ",
". $ ; 8 w e n n Z } s.s.c c 2.2.+.:.+.I A L %.8.%.P A L +.%.%.L m B P %.s.} Z c c e e e e q 8 ; % # ",
"X # ; 9 e c M Z 2.} } 2.c c c 2.( +.} P L ( } } } P L P } +.P M c c I } } } 2.Z M n e c c i 9 , $ # ",
". % ; 9 e M J } O.} S B c c c c m I <.+.%.} L A H } %.} ( L M c c c c B J } O.} I n c e i i 9 ; $ # ",
". . ; 9 e n } s.s.} c c c i c c c n P %.s.} L A L %.8.%.I n c e c e c c m } #.s.P M e e i q 8 ; % # ",
"X @ & 8 i c 2.} } Z c c c c c i e c B 2.} +.P I P } +.P M c e e e i c i c B } } L m i i u t 8 & . . ",
"+ $ X 9 i c c Z c c c c i c c i i c n m L P +.%.} ( A m n e e e e e i c c c B c m c e u t r 1 * @ X ",
"# . 1 9 i c c c c c c i c i c i c i c c n H O.p.%.L M n c e e e e e i c c c c c e i i t r 3 = % # # ",
"# % ; 9 q c c c i c i c i c i c i c e e c A 6.%.} P A m c c e e c e c i c c c i i i q t 3 2 = % # # ",
"+ % ; 9 i c c q c i c i i c i c c i c i c c Z I ( } } P m c e c c i c c i c i i u t t 4 3 2 = % $ # ",
"# $ ; 9 q c c c i c i c c i e e i c e e i e c m I +.8.} I c e i i i i i c e i u t r r 3 3 2 = % $ # ",
"# % ; 9 q c q u i u i e i i u i e e e u u u e c M ( %.} B c i i i u i i i i u y t t r 3 3 3 = * $ @ ",
"# $ ; 9 u i u t t q i e y t t u u e u t t y i i m m I I n e i y t y q i i u t t t t t t 3 2 = $ $ # ",
"# $ ; 9 q u t r t t i u t r r t u i y r r t u e e n n f c i i t r r y i u t r r y u y t 4 3 = * $ @ ",
"# $ ; 8 q q t r t t y y t 4 4 t t y t t r t t u e e i i c e u y r t t y q t r r t y y y r 3 = $ $ # ",
"+ $ & 1 r t t t t t t r r 3 4 r r t t t t t t t y i i c e e i u y t t t t t t t t t t r 3 2 = * $ @ ",
"# $ * ; 4 r y y y t r 4 3 3 3 3 4 r t y u t t r t u i i e e e i u y t r r t u y t r 4 3 3 : * * $ @ ",
"# $ % = 2 4 t q y r 3 3 3 3 3 2 2 4 r y y y t r t t u i i e i i u y r r 3 t t y t 3 3 3 3 : = % $ @ ",
"# $ % = 2 4 r t r r 3 3 3 3 3 2 2 4 r r t t t t t t t y i i i u t t r 3 3 r t r r 3 3 3 3 2 * * $ # ",
"# # % = 2 3 4 4 4 4 3 3 3 2 2 3 3 3 3 4 r t y y t t r t q u u y r r 3 3 3 3 r r 3 3 3 3 2 2 = % $ @ ",
"# $ % = 2 2 3 3 3 3 3 3 3 3 2 2 3 3 3 3 4 r t u y t r r y u y r 3 3 3 3 3 3 3 3 3 3 3 3 3 2 = % $ # ",
"# # * = 2 2 2 2 3 3 3 3 3 3 2 2 3 3 3 2 2 3 t t t t t t t t t 4 3 2 2 2 2 3 2 2 3 3 2 3 2 2 = % $ @ ",
"# # * = 2 2 2 2 3 3 3 3 3 3 2 3 2 3 3 3 3 3 4 r t y y y t r 4 4 3 2 3 3 3 2 2 2 3 3 2 2 2 2 = % $ @ ",
"# $ * * = 2 2 2 3 3 3 3 2 3 3 2 2 2 2 2 3 3 3 4 r t y t r 4 2 2 3 3 3 2 2 2 2 2 3 3 2 2 2 = = $ $ @ ",
"@ $ $ * = = 2 2 3 3 3 3 2 3 3 3 3 3 2 2 3 3 3 3 4 t t t r 4 2 2 2 3 3 3 3 3 2 2 3 2 2 2 = = = $ $ # ",
"      $ * * = 2 2 2 2 2 2 2 2 3 2 2 2 2 2 2 2 3 4 4 r r 4 2 2 2 3 2 2 2 2 2 2 2 2 2 2 = = $ $       ",
"      $ $ * = : 2 2 2 2 2 2 = 2 2 2 2 2 2 2 2 2 2 2 2 2 2 2 2 2 2 2 2 2 2 2 2 2 2 2 2 = * $ $       ",
"        # $ * * * = = = = = = = * = = = = = = = = = = = = = = = = = = = = = = = = * = * $ $         ",
"            * $ * * $ * * * $ * * * $ * % % $ * * $ * $ * $ % % * * * $ * $ * * $ * $ *             ",
"            $ $ $ # $ $ $ $ $ $ $ $ $ $ $ $ $ $ $ $ $ $ $ $ $ $ # # $ # $ $ $ $ $ $ $ $             ",
"            # @ # # # # @ @ # # @ @ # @ @ @ @ @ # # @ @ @ @ # # # # # # # # @ @ # # @ @             "
};
