/* XPM */
static char *_debaaca4ab5441da92bdc7d012ec0a7KCH4s4utDRKueiCa[] = {
/* columns rows colors chars-per-pixel */
"50 50 191 2 ",
"   c None",
".  c #2E1B27",
"X  c #2C1B2B",
"o  c #341E27",
"O  c #391F27",
"+  c #3D1F29",
"@  c #351E2C",
"#  c #2B1932",
"$  c #3C2127",
"%  c #36222E",
"&  c #3B212A",
"*  c #3B302E",
"=  c #2F2836",
"-  c #2A2739",
";  c #27303F",
":  c #2D373D",
">  c #363933",
",  c #432327",
"<  c #442328",
"1  c #4C2629",
"2  c #4F2828",
"3  c #472B29",
"4  c #52272A",
"5  c #562A2A",
"6  c #5B2B2A",
"7  c #433E2B",
"8  c #48382A",
"9  c #5C3128",
"0  c #58362A",
"q  c #642E2D",
"w  c #692F2F",
"e  c #643229",
"r  c #6C332D",
"t  c #683828",
"y  c #72362D",
"u  c #7B362D",
"i  c #76392B",
"p  c #7B3B2B",
"a  c #6D3130",
"s  c #733430",
"d  c #773A30",
"f  c #7D3932",
"g  c #3F402E",
"h  c #3F482F",
"j  c #2E423F",
"k  c #374237",
"l  c #37523D",
"z  c #3D5C3A",
"x  c #3C603F",
"c  c #4A4B2C",
"v  c #55402C",
"b  c #4A532E",
"n  c #50552E",
"m  c #474930",
"M  c #574030",
"N  c #455D36",
"B  c #545E39",
"V  c #794429",
"C  c #6C562D",
"Z  c #694D32",
"A  c #665531",
"S  c #7B5734",
"D  c #4B612F",
"F  c #456436",
"G  c #4B6631",
"H  c #406A3F",
"J  c #5D6930",
"K  c #4E7A37",
"L  c #46723E",
"P  c #4A7B3F",
"I  c #4B7235",
"U  c #517B36",
"Y  c #656838",
"T  c #606B34",
"R  c #736536",
"E  c #677437",
"W  c #757938",
"Q  c #273240",
"!  c #293740",
"~  c #293A40",
"^  c #2C4341",
"/  c #2C4C44",
"(  c #355540",
")  c #345943",
"_  c #3A5D40",
"`  c #3C6341",
"'  c #3D6943",
"]  c #336348",
"[  c #356B4B",
"{  c #376446",
"}  c #3A744B",
"|  c #3B7C4E",
" . c #37724C",
".. c #3A7D50",
"X. c #416B40",
"o. c #447442",
"O. c #477B43",
"+. c #497B40",
"@. c #417F4C",
"#. c #517A42",
"$. c #823D2C",
"%. c #833C32",
"&. c #883B30",
"*. c #913F31",
"=. c #84432B",
"-. c #8D432D",
";. c #874A2A",
":. c #8B4B2A",
">. c #95462E",
",. c #96492D",
"<. c #994A2E",
"1. c #99452D",
"2. c #9C522D",
"3. c #90582F",
"4. c #945029",
"5. c #834031",
"6. c #8D4232",
"7. c #934432",
"8. c #944A31",
"9. c #9A4931",
"0. c #9D4932",
"q. c #9D4B31",
"w. c #8C5934",
"e. c #9D5331",
"r. c #A14C2F",
"t. c #A24D2F",
"y. c #A4532E",
"u. c #AB542F",
"i. c #A35A2C",
"p. c #AF5D2F",
"a. c #AC5D2C",
"s. c #B25A2F",
"d. c #B35E2F",
"f. c #A14C31",
"g. c #A24D30",
"h. c #A14E31",
"j. c #A24C30",
"k. c #A65630",
"l. c #A25530",
"z. c #AA5530",
"x. c #AA5430",
"c. c #A45B31",
"v. c #A95B30",
"b. c #9B6934",
"n. c #857235",
"m. c #987636",
"M. c #AD612B",
"N. c #B5612E",
"B. c #B3612E",
"V. c #B9632E",
"C. c #BA652E",
"Z. c #BC662D",
"A. c #B9662D",
"S. c #BF692D",
"D. c #BC682D",
"F. c #C0692D",
"G. c #4E843E",
"H. c #5B8236",
"J. c #52843A",
"K. c #5F863F",
"L. c #538C3E",
"P. c #55923F",
"I. c #5A943D",
"U. c #5A9A3F",
"Y. c #6E833B",
"T. c #6E8F3C",
"R. c #6B8A3A",
"E. c #7C8A3A",
"W. c #69963D",
"Q. c #79913A",
"!. c #3F814E",
"~. c #4D8441",
"^. c #43844C",
"/. c #498648",
"(. c #47884B",
"). c #4B8C49",
"_. c #4A8846",
"`. c #538E40",
"'. c #4D914A",
"]. c #539443",
"[. c #589344",
"{. c #569A45",
"}. c #5A9D43",
"|. c #519448",
" X c #639141",
".X c #5DA342",
"XX c #60A041",
"oX c #888738",
"OX c #888538",
"+X c #928037",
"@X c #80903A",
/* pixels */
"                                                                                                    ",
"                                                                                                    ",
"                                                                                                    ",
"                                                          o o o +                                   ",
"                                                        1 1 < < < ,                                 ",
"                                                        e e e q 5 4 1                               ",
"                                                    1 e p $.$.i r q 5 1                             ",
"                                                  O 1 r -.,.9.&.f a 6 1 $                           ",
"                                                  o 2 t -.t.r.>.%.s q 1 @                           ",
"                                                  o 2 y -.t.g.7.%.s q < + +                         ",
"                                                  O 2 r >.g.g.7.%.s 6 1 & o                         ",
"                                                  o 1 r &.g.g.7.%.a q 1 +                           ",
"                                                  o 1 t -.r.r.9.%.s q 1 $                           ",
"                                                  O 2 y -.r.g.7.%.a 6 1 $ o                         ",
"                                                  5 q i -.,.9.&.f a 6 < $ O                         ",
"                                              , 9 i $.$.7.7.6.f w 6 1 , o o o                       ",
"                          $ $ $ $ $ $ $ $ $ $ 2 i =.>.>.7.6.p r 6 4 < , $ + $ $                     ",
"                        5 5 6 6 6 6 6 6 6 9 e t =.,.t.t.0.7.5.y e 6 6 5 6 5 6 6 5                   ",
"                      9 r i p p p p i p $.=.:.4.2.y.u.u.x.k.e.:.=.p i p i p p i r 6                 ",
"                    < 9 p -.>.,.1.,.,.,.,.i.M.B.B.a.u.s.N.C.N.u.<.>.>.9.<.<.,.-.$.e <               ",
"                  o , 6 p 9.0.g.r.r.g.g.g.p.D.S.F.N.s.N.Z.F.Z.d.x.h.g.g.g.g.g.>.$.e < o             ",
"                  o , 6 i -.9.0.g.<.0.9.h.x.p.N.V.V.V.V.C.N.p.k.h.0.0.0.0.0.0.7.i 9 < o             ",
"                  o $ 5 a %.*.7.7.*.*.6.7.7.8.e.v.V.S.C.B.e.q.8.7.6.*.6.7.*.7.%.y 6 , o             ",
"                    $ 4 q s f f f f f f f %.6.8.x.V.S.C.c.8.6.%.f f f f f f d s q 4 , o             ",
"                    $ 1 6 w w w w w w r s 5.:.y.v.p.p.B.v.c.8.5.s a w a a a w w 6 1 ,               ",
"                        4 5 6 5 5 6 4 5 r =.i.M.B.v.c.v.p.N.v.:.r 6 4 5 5 4 5 5 4                   ",
"                        , < < < < < + , e :.M.D.N.l.8.e.M.B.M.:.t < + , < < < , <                   ",
"                          & O $ + + o O 0 ;.a.A.p.e.6.8.e.M.M.:.t $ . + & & $ $                     ",
"                                    . O 6 =.2.d.z.8.%.%.;.:.;.V                                     ",
"                                      + 5 i <.y.h.7.%.s t e 0                                       ",
"                                      $ 5 i 7.f.f.7.%.w 6 < $                                       ",
"                                      $ 4 i >.f.0.7.f a 5 , o                                       ",
"                                      $ 4 i ,.r.<.7.%.a 5 < +                                       ",
"                                      O 5 i ,.t.r.7.f a 6 1 +                                       ",
"                                      o 5 i >.t.0.7.%.w 6 < $                                       ",
"                                      , 5 i >.<.0.*.f a 6 < $                                       ",
"                                    5 q r p >.<.7.&.s a 5 < &                                       ",
"                                  5 t i $.*.*.6.&.u a 6 4 1                                         ",
"                    ~ ~         $ 6 i -.,.,.8.5.d w 5 3 <                                           ",
"                  ( _ ( _     X $ 6 p >.h.e.w.S Z 0 3 & %                                           ",
"                _ o.+.O.H ( ; # & 5 u 1.y.b.n.W T n 8 % # -                                         ",
"              ^ x P L.L.+.z : = & 5 p 1.i.m.oXT.H.D > % = : ! ~ ! !                                 ",
"              ^ ` P P.].G.x l > * 0 V 3.b.+X@XT.H.D > * k l ( ( ( ( (                               ",
"              ^ _ P G.L.~.P I z 7 8 C n.OXoXE.Y.E n 7 m N L P P +.O.X.(                             ",
"                  z x L ~.L.L.I b m J Y.Q.@XW R C v m b K L.}.U.P.L.O.l ~                           ",
"                  / ( ' ~.].I.J.G G U I.W. XW R Z v m F J.U..XU.}.L.+.( ~                           ",
"                ^ / ) [ @.].].L.U U J.].{. XY.E Y B F L ~.{.{.{.L.~.L ( ~                           ",
"              ! / ] { } @._.).].L.].`.`.).[. XR.K.#.o.} ^././.O.o.X.`                               ",
"            Q ~ / ]  .| ..!.(.|..X}.|.).(.|.}.XX{.).^.....@.} ] ( ^ ^                               ",
"            Q ~ / ] } ....| ^.|..X.X{.).^.'..X.X{.'.^.......[ ) ^ Q                                 "
};
