/* XPM */
static char *_00ce684407b41e89341f4b092d6ffb8W5VWxtebDXNeNfS8[] = {
/* columns rows colors chars-per-pixel */
"50 50 88 1 ",
"  c None",
". c #2E2F2F",
"X c #2F2F2F",
"o c #30302F",
"O c #31302F",
"+ c #35332F",
"@ c #39352F",
"# c #3C372E",
"$ c #3D382E",
"% c #483F2E",
"& c #53462E",
"* c #55472E",
"= c #56482E",
"- c #63512D",
"; c #64512D",
": c #6E592C",
"> c #735C2C",
", c #775F2C",
"< c #79602B",
"1 c #7B622B",
"2 c #79602C",
"3 c #79612C",
"4 c #81662B",
"5 c #85692B",
"6 c #876B2B",
"7 c #886B2B",
"8 c #896C2B",
"9 c #8C6E2A",
"0 c #8D6F2A",
"q c #937329",
"w c #90712A",
"e c #93732A",
"r c #957529",
"t c #95752A",
"y c #997829",
"u c #9A7929",
"i c #9B7A29",
"p c #A07D28",
"a c #A98327",
"s c #AB8527",
"d c #AE8827",
"f c #A58128",
"g c #A68128",
"h c #A88328",
"j c #A98328",
"k c #AB8528",
"l c #B18927",
"z c #B18A27",
"x c #B58D26",
"c c #B78E26",
"v c #BB9126",
"b c #BF9425",
"n c #E8B31F",
"m c #E9B41E",
"M c #EAB41E",
"N c #EAB51E",
"B c #EFB81D",
"V c #F1BA1D",
"C c #F3BB1C",
"Z c #F2BB1D",
"A c #F4BC1C",
"S c #F5BD1C",
"D c #F6BE1C",
"F c #F7BE1C",
"G c #F8BF1C",
"H c #C29625",
"J c #C59824",
"K c #C59924",
"L c #C69924",
"P c #CB9E23",
"I c #C99B24",
"U c #C99C24",
"Y c #CFA023",
"T c #D0A123",
"R c #D1A123",
"E c #D2A322",
"W c #D6A522",
"Q c #D8A721",
"! c #DCAA21",
"~ c #DEAC20",
"^ c #DFAC20",
"/ c #E0AD20",
"( c #E3AF20",
") c #F9C01B",
"_ c #FAC01B",
"` c #FBC11B",
"' c #FBC21B",
"] c #FCC21B",
/* pixels */
"                                                  ",
"                                                  ",
"                                                  ",
"                      ]]]]]]                      ",
"                 ]]]]]]]]]]]]]]]]                 ",
"              ]]]]]]]]]]]]]]]]]]]]]               ",
"             ]]]]]]]]]]]]]]]]]]]]]]]]             ",
"           ]]]]]]]]]]]]]]]]]]]]]]]]]]]]           ",
"          ]]]]]]]]]]]]]]]]]]]]]]]]]]]]]]          ",
"         ]]]]]]]]]]]]]]]]]]]]]]]]]]]]]]]]         ",
"        ]]]]]]]]]]]]]]]]]]]]]]]]]]]]]]]]]]        ",
"       ]]]]]]]]]]]]]]]]]]]]]]]]]]]]]]]]]]]]       ",
"      ]]]]]]]]]]]]]]]]]]]]]]]]]]]]]]]]]]]]]]      ",
"      ]]]]]]]]]]]]]]]]]]]]]]]]]]]]]]]]]]]]]]      ",
"     ]]]]]]]]]]]]]]]]]]]]]]]]]]]]]]]]]]]]]]]]     ",
"    ]]]]]]]]]]]]]]]]]]]]]]]]]]]]]]]]]]]]]]]]]     ",
"    ]]]]]]]]]]]]]]]]]]]]]]]]]]]]]]]]]]]]]]]]]]    ",
"   ]]]]]]]]]]]]]]]]]]]]]]]]]]]]]]]]]]]]]]]]]]]    ",
"   ]]]]]]]]]]]GHjI)]]]]]]]]]]]])EsvV]]]]]]]]]]]   ",
"   ]]]]]]]]]]G7XXoi)]]]]]]]]]]]cXXX:C]]]]]]]]]]   ",
"  ]]]]]]]]]]]IXXXXXQ]]]]]]]]]]m@XXXXz]]]]]]]]]]]  ",
"  ]]]]]]]]]]]uXXXXXd]]]]]]]]]]LXXXXX,]]]]]]]]]]]  ",
"  ]]]]]]]]]]]wXXXXXf]]]]]]]]]]bXXXXX:]]]]]]]]]]]  ",
" ]]]]]]]]]]]]cXXXXXL]]]]]]]]])!XXXXXy]]]]]]]]]]]  ",
" ]]]]]]]]]]]]B*XXX;A]]]]]]]]]])6XXX#(]]]]]]]]]]]] ",
" ]]]]]]]]]]]]](4*7n]]]]]]]]]]]]Vu*>W]]]]]]]]]]]]] ",
" ]]]]]]]]]]]]]]]G]]]]]]]]]]]]]]]]G]]]]]]]]]]]]]]] ",
" ]]]]]]]]]]]]]]]]]]]]]]]]]]]]]]]]]]]]]]]]]]]]]]]] ",
"]]]]]]]]]]]]]]]]]]]]]]]]]]]]]]]]]]]]]]]]]]]]]]]]] ",
"]]]]]]]]]]]]]]]]]]]]]]]]]]]]]]]]]]]]]]]]]]]]]]]]] ",
"]]]]]]]]]]]]]!P]]]]]]]]]]]]]]]]]]]]P!]]]]]]]]]]]]]",
"]]]]]]]]]]]]G%oz)]]]]]]]]]]]]]]]])zX%G]]]]]]]]]]]]",
"]]]]]]]]]]]])tXojG]]]]]]]]]]]]]]GaoXw]]]]]]]]]]]]]",
"]]]]]]]]]]]]]A7XX1/]]]]]]]]]]]]^<oX7D]]]]]]]]]]]]]",
"]]]]]]]]]]]]]]Apoo+0RV]]]]]]CR0+XopG]]]]]]]]]]]]]]",
"]]]]]]]]]]]]]]]]P;XXX#,tggt,#XXX;R)]]]]]]]]]]]]]]]",
"]]]]]]]]]]]]]]]]]GL<oXXoXXXXXo<JD]]]]]]]]]]]]]]]]]",
"]]]]]]]]]]]]]]]]]]])mUst88tsPm]]]]]]]]]]]]]]]]]]]]",
" ]]]]]]]]]]]]]]]]]]]]]]]]]]]]]]]]]]]]]]]]]]]]]]]] ",
"  ]]]]]]]]]]]]]]]]]]]]]]]]]]]]]]]]]]]]]]]]]]]]]]  ",
"   ]]]]]]]]]]]]]]]]]]]]]]]]]]]]]]]]]]]]]]]]]]]]   ",
"    ]]]]]]]]]]]]]]]]]]]]]]]]]]]]]]]]]]]]]]]]]]    ",
"      ]]]]]]]]]]]]]]]]]]]]]]]]]]]]]]]]]]]]]]      ",
"         ]]]]]]]]]]]]]]]]]]]]]]]]]]]]]]]]         ",
"            ]]]]]]]]]]]]]]]]]]]]]]]]]             ",
"                  ]]]]]]]]]]]]]                   ",
"                                                  ",
"                                                  ",
"                                                  ",
"                                                  "
};
