/* XPM */
static char *_8807dedfa6c49a981c48474c9d1b0f5YQjGlBPM3NhFwVP3[] = {
/* columns rows colors chars-per-pixel */
"50 50 106 2 ",
"   c #312816",
".  c #35261A",
"X  c #34291B",
"o  c #30301D",
"O  c #372920",
"+  c #3A2A24",
"@  c #3F2A29",
"#  c #2F3A26",
"$  c #363B2E",
"%  c #3E3F36",
"&  c #422B2D",
"*  c #452D32",
"=  c #492B34",
"-  c #4E2D3A",
";  c #532D3E",
":  c #51323E",
">  c #25472A",
",  c #29472D",
"<  c #314733",
"1  c #3B4035",
"2  c #364932",
"3  c #552E41",
"4  c #4E3344",
"5  c #4E374A",
"6  c #4C394D",
"7  c #533144",
"8  c #583046",
"9  c #513448",
"0  c #5C334B",
"q  c #5A3D4D",
"w  c #473E53",
"e  c #4A3D52",
"r  c #5F3550",
"t  c #5E3955",
"y  c #613653",
"u  c #633857",
"i  c #643C5B",
"p  c #693C5E",
"a  c #6C3D62",
"s  c #3C465C",
"d  c #37495F",
"f  c #39495F",
"g  c #3E6046",
"h  c #2E794F",
"j  c #32774F",
"k  c #347750",
"l  c #3A7552",
"z  c #327950",
"x  c #1F5268",
"c  c #274F65",
"v  c #2D4E65",
"b  c #334B61",
"n  c #265067",
"m  c #285066",
"M  c #235168",
"N  c #2A5168",
"B  c #38506A",
"V  c #4E4B45",
"C  c #425341",
"Z  c #444156",
"A  c #414359",
"S  c #5F455A",
"D  c #555754",
"F  c #60455A",
"G  c #43634B",
"H  c #476F57",
"J  c #486F57",
"K  c #57675E",
"L  c #516A5C",
"P  c #447156",
"I  c #4E4D6A",
"U  c #544B6A",
"Y  c #504C6A",
"T  c #534C6B",
"R  c #5E4A6C",
"E  c #624465",
"W  c #6C4267",
"Q  c #6F4367",
"!  c #664669",
"~  c #6B4569",
"^  c #6F4468",
"/  c #6F466D",
"(  c #63496C",
")  c #68486D",
"_  c #704066",
"`  c #704067",
"'  c #724269",
"]  c #704468",
"[  c #75436D",
"{  c #71456D",
"}  c #75466D",
"|  c #76446E",
" . c #77446E",
".. c #76446F",
"X. c #78416F",
"o. c #78436E",
"O. c #704D6B",
"+. c #73486D",
"@. c #74486D",
"#. c #695667",
"$. c #615D63",
"%. c #655A65",
"&. c #6A5468",
"*. c #774570",
"=. c #5D6161",
"-. c #5C6260",
/* pixels */
"| | | | | | | | | | | | | | *.| a ; 3 3 3 3 3 3 3 3 3 3 3 7 3 3 3 a | | *...| | | | | p ; 3 3 ; X X ",
"| | | | | | | | | | | | | | | | a ; 7 7 7 7 7 3 3 3 3 7 7 7 7 3 ; a | *.....| | | |  .a 8 8 3 ; + + ",
"| | | | | | | | | | | | | | | | a 3 5 b v v b 7 3 3 7 b v v b 5 3 a | | ....[ |  . . . ._ a 7 3 ; ; ",
"| | | | | | | | | | | | | | |  .a ; e n n M v 7 3 3 7 b n n n w 3 a *. ...[ ..[ |  . . .o.| 3 3 7 ; ",
"| | | | | | | | | | | | | | | | a ; 7 9 w n n b b 7 3 5 5 b M e 3 a  . .........| | | | | | _ a 8 ; ",
"| | | | | | | | | | | | | | | | a 3 3 3 5 m n n N 7 3 3 7 b n 6 ; a  . .........| | | | | | | ' 8 7 ",
"| | | | | | | | | | | | | | |  .! b A 3 7 5 w m m b f 7 3 6 6 7 3 a [ ......*...| | | | | | | ] % 1 ",
"| | | | | | | | | | | | | | |  .( M b 3 3 3 9 n n n c 5 3 3 3 3 ; p | [ ..[ o.o.| | | | | | | ] < , ",
"| | | | | | | | | | | | | | |  .( M v b A 3 7 6 w c n b s 9 7 3 : a  . . .| *.*.| | | | | |  .~ < , ",
"| | | | | | | | | | | | | | | | ( M M M b 3 3 3 7 N M n n 9 3 3 ; _ o.o.| | *.*.| | | | |  . .] < , ",
"| | | | | | | | | | | | | | | | / R T n m s A 7 7 w w m n b s 9 ; D K #.o.| | *.| | | | | |  .] < , ",
"| | | | | | | | | | | | | | | | *.| ) M M M v 3 3 3 3 v n M n 5 7 G h $.o.*.a X.| | | | | |  .~ < , ",
"| | | | | | | | | | | | | | ..[ | ..W Z s n c A Z 7 3 w A v n e ; G j L $.K =.=.K #.| *.| | | ] $ # ",
"| | | | | | | | | | | | | | ....*...a ; 5 n x x c 7 3 3 3 b M 6 8 G z j z z z z j L .... .*.*.' @ X ",
"| | | | | | | | | | | | | *.....' p p u i T T T U u u Z Z c n 6 ; C 2 g G G G C C D p p a i u t + O ",
"| | | | | | | | | | | | *.| ....a ; y ..*.| *.| *.*.*.B M M M 6 7 * o - 3 7 3 8 7 3 ; ; 3 - X     X ",
"| | | | | | | | *.| Q a a a a i y 7 0 p p a a a a a a A f f s 9 3 = & ; ; 7 3 3 8 3 3 8 3 ; & & & & ",
"| | | | | | | | | | u 3 3 3 =   & 3 3 ; ; ; 3 ; 3 ; 3 ; 3 3 3 3 ; 3 7 3 ; ; ; 7 ; 3 3 ; 3 3 3 3 3 3 ",
"| | | | | | | | *.| p 0 0 3 - @ = ; 8 y r r r r y 0 y y y 0 r r y 8 7 7 5 e 5 9 3 3 3 7 6 6 w 5 3 3 ",
"| | | | | | | | | ..| | i ; 3 3 3 7 0 ..| | | |  .| | | | | | |  .y ; s n M M s ; 7 3 6 n M n b 7 3 ",
"| | | | | | | | ....[ | p 0 0 3 3 ; r [ | | | | | | | | | | | | | y ; Z b n n s 5 9 3 5 b b n v 7 3 ",
"| | | | | | | | ....| | | | p 3 ; 7 r ..| | | | | | | | | | | | | y 3 7 3 A M n n s 3 7 7 5 n v 7 7 ",
"| | | | | | | | | | | | | | p : : 3 y ..| | | | | | | | | | | | | i 7 7 ; Z v v n b 9 7 3 9 b b 7 3 ",
"| | | | | | | | | | | | | | S , % 3 y ..| | | | | | | | | | | | | I n w ; 7 8 Z M n m f 3 7 7 7 3 3 ",
"| | | | | | | | | | | | | | S > 1 3 y | | | | | | | | | | | | | | I x Z 7 7 ; w m m n b 9 7 3 3 3 3 ",
"| | | | | | | | | | | | | | S > 1 3 0 | | | | | | | | | | | | | | I M n n Z ; 7 7 w n n b b 7 3 3 3 ",
"+.+.| | | | | | | | | | |  .F > 1 3 0 *.| | | | | | | | | | | | | T m c M A 7 7 3 e m n n b 9 ; 3 3 ",
"P H O.| | | | | | | | | | | F > % 3 y | | | | | | | | | | | | | | { { I M c v Z 3 3 9 Z M n b b 7 3 ",
"k l #.| } } } } | | | | ....S > % ; y | | | | | | | | | | | | | ....o.U M n M s 3 3 3 e m n n v 7 3 ",
"k k J J J J J H #.| | | [ ..i o & 7 y | | | | | | | | | | | | | ......i 5 s M m b A 3 3 5 e n N 7 3 ",
"k k j j j j j j %.| |  .| | i   & 3 0 *.| | | | | | | | | | | | ......i 3 A n N m b 3 3 3 5 m v 7 3 ",
"2 2 V V V V V V q y y 0 8 4 * X & ; y | | | | | | | | | | | | | ..p 0 i a Q ) ) ~ ~ a E b b m b 7 3 ",
". . ; 3 ; ; 3 ; 3 3 3 3 *   . . & ; 0 | | | | | | | | | | | | | | y ; p | o. .o.|  ...( c m M v 7 3 ",
"p i a a a a a a a a a a p i i i p a _ | | | | | | | | | | | | | | _ a i y u y a | | ..Q w e ( ! 7 ; ",
"o.o.....| | | | a *.*.*.o...o.o. .| | | | | | | | | | | | | | |  .o. .u ; 3 ; u | | | a 3 0 | ' 8 ; ",
"........| | | | o.*.*.*.......*.| | | | | | | | | | | | | | | | | p u p p p p a | | | ..p a | ' p p ",
"....| | | | | | | | | | ........| | | | | | | | | | | | | | | | | y ; p  . .*.*.| | | | o.*.....| | ",
"..[ | | | | | | | | | | ....[ ..| | | | | | | | | | | | | | | |  .y ; p o.| | | | | | | *.| ....| | ",
"..[ o.| | | | | | | | | | | ..[ | | | | | | | | | | | | | | | | | y ; a | | | | | | | | ..[ ....| | ",
"[ ..| | | | | | | | | | | | | | | | | | | | | | | | | | | | | | | a u a | | | | | | | | [ ......| | ",
"| | | | | | | | | | | | | | | | | | | | | | | | | | | | | | | | | | | | | | | | | | | | | | | | | | ",
"| | | | | | | | | | | | | | | | | | | | | | | | | | | | | | | | | | | | | | | | | | | | | | | | | | ",
"| | | | | | | | | | | | | | | | | | | | | | | | | | | | | | | | | | | | | | | | | | | | | | | | | | ",
"| | | | | | | | | | | | | | | | | | | | | | | | | | | | | | | | | | | | | | | | | | | | | | | | | | ",
"| | | | | | | | | | | | | | | | | | | | | | | | | | | | | | | | | | | | | | | | | | | | | | | | | | ",
"| | | | | | | | | | | | | | | | | | | | | | | | | | | | | | | | | | | | | | | | | | | | | | | | | | ",
"| | | | | | | | | | | | | | | | | | | | | | | | | | | | | | | | | | | | | | | | | | | | | | | | | | ",
"| | | | | | | | | | | | | | | | | | | | | | | | | | | | | | | | | | | | | | | | | | | | | | | | | | ",
"| | | | | | | | | | | | | | | | | | | | | | | | | | | | | | | | | | | | | | | | | | | | | | | | | | ",
"| | | | | | | | | | | | | | | | | | | | | | | | | | | | | | | | | | | | | | | | | | | | | | | | | | "
};
