/* XPM */
static char *_01bd769756c46a082c0f7be6d06e292shJPyYMHdT18iGpS[] = {
/* columns rows colors chars-per-pixel */
"50 50 180 2 ",
"   c #35291D",
".  c #1A152F",
"X  c #161E2D",
"o  c #1D1A2F",
"O  c #14222D",
"+  c #19202F",
"@  c #1E2431",
"#  c #1F2B33",
"$  c #23252E",
"%  c #2B2728",
"&  c #232532",
"*  c #2B2634",
"=  c #202F34",
"-  c #2C2738",
";  c #2E2839",
":  c #332736",
">  c #372837",
",  c #3C2937",
"<  c #34283A",
"1  c #3E2A3B",
"2  c #203335",
"3  c #283634",
"4  c #223836",
"5  c #233E39",
"6  c #511C38",
"7  c #452B30",
"8  c #462A3B",
"9  c #4B2C3D",
"0  c #51223A",
"q  c #512D3E",
"w  c #41313B",
"e  c #284037",
"r  c #24433A",
"t  c #294739",
"y  c #264C3D",
"u  c #294F3D",
"i  c #32473E",
"p  c #35593C",
"a  c #395F3D",
"s  c #383B49",
"d  c #2C3D50",
"f  c #4A2F46",
"g  c #512741",
"h  c #552E41",
"j  c #582F42",
"k  c #4C314C",
"l  c #4A3B4F",
"z  c #533343",
"x  c #583046",
"c  c #553C42",
"v  c #5C334C",
"b  c #573A49",
"n  c #563655",
"m  c #583757",
"M  c #5E395B",
"N  c #603551",
"B  c #653857",
"V  c #653A5B",
"C  c #6A3C5F",
"Z  c #6C3E62",
"A  c #763E6F",
"S  c #783F6F",
"D  c #304D42",
"F  c #295541",
"G  c #2C5C44",
"H  c #345C44",
"J  c #2A4053",
"K  c #2D6246",
"L  c #2F6648",
"P  c #2F6949",
"I  c #306C4B",
"U  c #3D6C4D",
"Y  c #2F794F",
"T  c #32734E",
"R  c #33784F",
"E  c #3B7B4E",
"W  c #2B655D",
"Q  c #32665E",
"!  c #326B5A",
"~  c #3D6E5B",
"^  c #2F7551",
"/  c #347750",
"(  c #3A7552",
")  c #347850",
"_  c #387950",
"`  c #1B4E68",
"'  c #284E67",
"]  c #334B61",
"[  c #245566",
"{  c #235168",
"}  c #3C5968",
"|  c #296161",
" . c #336161",
".. c #4F4645",
"X. c #4C4F46",
"o. c #524343",
"O. c #544A42",
"+. c #58484C",
"@. c #49564A",
"#. c #555042",
"$. c #434257",
"%. c #554255",
"&. c #41664B",
"*. c #4D7F44",
"=. c #47734A",
"-. c #417E4D",
";. c #547D46",
":. c #486F57",
">. c #446F59",
",. c #4F6E58",
"<. c #58655E",
"1. c #546A5B",
"2. c #457255",
"3. c #4A7755",
"4. c #4B7C53",
"5. c #41705A",
"6. c #5E7856",
"7. c #646E5C",
"8. c #617657",
"9. c #4D4762",
"0. c #574B6B",
"q. c #584B6B",
"w. c #4C5567",
"e. c #5F5F62",
"r. c #6C4364",
"t. c #6F4168",
"y. c #6E4F6A",
"u. c #704067",
"i. c #76446E",
"p. c #78436F",
"a. c #734B6C",
"s. c #645764",
"d. c #685766",
"f. c #645B64",
"g. c #6B5C65",
"h. c #6E5169",
"j. c #715668",
"k. c #735D68",
"l. c #5C6260",
"z. c #6B6362",
"x. c #757665",
"c. c #64843F",
"v. c #45814C",
"b. c #4D844B",
"n. c #538A47",
"m. c #53864A",
"M. c #5A824E",
"N. c #538948",
"B. c #57954C",
"V. c #4C8852",
"C. c #5B9455",
"Z. c #629C46",
"A. c #629A48",
"S. c #74875D",
"D. c #68A647",
"F. c #6DAB46",
"G. c #64A348",
"H. c #6BA849",
"J. c #70AF46",
"K. c #73A74D",
"L. c #6FB244",
"P. c #72B245",
"I. c #7DB347",
"U. c #82995A",
"Y. c #AF9C4E",
"T. c #A89954",
"R. c #8BB54A",
"E. c #A1B74E",
"W. c #A4A55C",
"Q. c #B9AF5D",
"!. c #B9BB55",
"~. c #A79E61",
"^. c #CABC54",
"/. c #CCBE5A",
"(. c #9BBC9D",
"). c #B6B9B0",
"_. c #AED1B7",
"`. c #BAC6CF",
"'. c #D3DDCE",
"]. c #D8ECF2",
/* pixels */
"P.P.P.P.P.P.P.P.P.P.P.P.P.P.P.P.P.P.K.A p.p.i.i.i.) v.n.n.n.n.E E n.z.i.i.i.i.i.i.p.v q q q j q j q ",
"P.P.P.P.P.P.P.P.P.P.P.P.P.P.P.P.P.P.K.S.k.p.i.i.i.( ,.7.7.8.n.E R -.1.f.i.i.i.i.h.<.@.#.C C C B v j ",
"P.P.P.P.P.P.P.P.P.P.P.P.P.P.P.P.P.P.P.P.x.p.i.i.a.) <.p.i.g.n.E / / / ( i.i.i.i.f.) ) :.i.i.i.i.B h ",
"P.P.P.P.P.P.P.P.P.P.P.P.P.P.P.P.P.P.P.P.J.P.P.A.m.) ) ( ( ( R R / / / ( i.i.i.i.r.q z M i.N x p.B j ",
"P.P.P.P.P.P.P.P.P.P.P.P.P.P.P.P.P.P.P.P.P.P.P.Z.m.) / / R ( R R ) / / ( i.i.i.i.Z q q v i.C C p.B h ",
"P.P.P.P.P.P.P.P.P.P.P.P.P.P.P.P.P.P.P.P.P.P.P.Z.m.) / / R R ) R ) ) / ( i.i.i.i.Z j q v i.i.i.i.B h ",
"P.P.P.P.P.P.P.P.P.P.P.P.P.P.P.P.P.P.P.L.!././.E.J.R / / ) ) ) ) ) T R ( i.i.i.i.i.i.i.i.i.i.i.i.B h ",
"P.P.P.P.P.P.P.P.P.P.P.P.P.P.P.P.P.P.I.E.W.W.~.U.C._ / / / ) T ) ) ) ) ( i.i.i.i.p.i.i.i.p.i.i.i.B h ",
"P.P.P.P.P.P.P.P.P.P.P.P.P.P.P.L.P.P.R./.x.` ` ` { T / / / / / / R R T ( p.p.i.i.i.i.i.p.i.i.p.p.B h ",
"P.P.P.P.P.P.P.P.P.P.P.P._.].].'.^./.Q.} 4.m.m.m.m.R / / / / / / ( R ) ( p.p.i.i.i.i.i.p.i.i.i.p.B h ",
"P.P.P.P.P.P.P.P.P.P.P.P.(.`.`.).Y.Y.T.W V.n.n.b.3.-.-.-.-.-.-.-.-.-._ ( i.y.f.f.f.z.7.z.z.f.f.p.B h ",
"P.P.P.P.P.P.P.P.P.P.P.P.c.6 0 0 g g O.n.n.n.n.~ { n.n.n.n.n.n.n.N.N.-.( i.<.T R v.n.n.n.n.E ( p.B h ",
"P.P.P.P.P.P.P.P.P.P.P._ K * h h j h z c c c c z z 3 G _ e u _ R _ R R R ( ( R b.n.n.n.b./ b.m.p.p.u.",
"P.P.P.P.P.P.P.P.P.P.P.) H > 9 9 j h h j h h h q 9 @ t L u G ) ) / / ( R ) R R 6.6.6.n.b./ v.4.f.a.p.",
"P.P.P.P.P.P.P.P.P.P.P.) @.q & > h z h h h h z 7   @ + o T ) ) ) / / / / ) / ) p.S S M.b./ / / Y f.i.",
"v.B.P.P.P.P.P.P.P.B._ c w * q 8 & g h h j j q 7   + D T 5 y R ) ) / / / / / ) ( 2.( E E / / / R l.i.",
"! V.D.P.P.P.P.J.G.;.&.j 9 > 8 8 : 8 9 h h h h 7   @ y P y F ) ) / / / / / / / / / T ) ) / / / Y e.i.",
"` W ^ F.P.P.P.F./ X.h q h z @ : j * * h h h h 7   @ @ o T ) ) ) / / / / / / / / / / ) ) / / / R e.p.",
"b.5.[ F.P.P.P.F.^ X.z ' d * g 8 & 9 9 * 9 q h , $ @ u I 5 D ) ) / / ) ) / / / / / / / / / / / R f.p.",
"n.4. .D.H.H.D.G.^ @.l { d : 9 8 : 9 9 * 8 f j 7 $ @ y P r F ) / / ) ) T / / / / / / / / / / / R e.i.",
"n.n.n.n.n.n.E T ) | { { $.h & > h * * q > & h 7   @ + o T / / / / / / / ) ) ) ) / / R T R ) ) R e.i.",
"_ v.n.#.o.o.o.o...] { { J * 9 8 * 9 9 * 9 9 * * & @ u T r F / / / / / / ) R ) R / / _ R ) ) T R f.i.",
"U =.;.c h h h h h $.] ] s : 9 8 * 9 8 : 8 9 : & @ @ y P r F / / / / R R R _ E E _ E E E E -.E R e.i.",
"g h h h h h h h h h h j q z & > x * * j > & h , @ @ @ o ^ / / / ) ) R R R -.n.n.N.n.n.n.N.N.m.T f.i.",
"j j h h h h h h h h h h 8 * @ & * & & * & @ * * @ @ p *.t p n.R _ b.7.h.h.h.j.h.j.j.+.O.O.O.O.o.b v ",
"h h h h h h h h h h h q , & @ # 5 # # r # @ 5 2 @ 4 a b.1 @.n.E _ b.7.t.i.i.i.i.i.j.+.o.v v v v x h ",
"h h h h h h h h h h h   % & + u ) 4 5 ) y = ) F @ / K . i.z.n.E / / / / i.i.i.i.f.Y / 5.i.i.i.i.V h ",
"h h h h h h h h h h h   % + I K 5 P L 5 K P 5 G P r F P >.4.E ) / / / ( i.i.i.p.r...O.+.i.V m i.B h ",
"h h h h h h h h h h h   % @ I K 4 T I 4 P T 4 K ) 4 G ) R ) / / / / / ( i.i.i.i.Z h h v p.B v p.B h ",
"h h h h h h h h h h q   % @ o u ) ) ) ) / / ) ) ) ) ) T R R / / / / / ( i.i.i.i.Z q h v i.i.p.i.B h ",
"h h h h h h h h h h q $ & @ I G r T ) ) / / / / ) ) / / / / / / ) / ) ( i.i.i.i.p.Z Z u.i.i.i.i.B h ",
"h h h h h h h h j q z & @ @ I G 2 I / / / / / / / / / / / / / / ) ) ) ( i.i.i.i.i.i.i.i.i.i.i.i.B h ",
"h h h h h h h h j h h   % @ o u ) ) ) / / / / / / / / / ) / / T ) / / ( i.i.i.i.i.i.p.i.i.i.i.i.B h ",
"h h h h h h h h h h h $ $ @ L G r T ) ) / / / / / / / / R R / ) ) ) / ( i.i.i.i.i.i.p.p.i.i.i.i.B h ",
"h j h h h h h h h h h @ @ @ T K 2 T R R / / / / ) ) R E E R E E _ _ ) ( i.i.a.y.y.j.a.j.j.a.a.i.B h ",
"h h h h h h h h h h h @ @ @ + y ) R R T T R R R T n.n.n.n.n.m.n.N.N.-.( p.l.Y / E n.n.n.n.E ( i.B h ",
", > : : > > > > > > ; @ @ @ M %.y e.s.f.d.f.d.d.f.-.b.m.N.n.n.-.-.n.7.d.A y.s.s.f.z.z.z.g.g.s.i.t.Z ",
"- - @ = = @ - ; @ - ; @ * - t.V - u.p.i.i.i.i.i.i.( -.m.M.m.n.E _ n.7.i.i.p.i.i.p.p.p.i.i.i.i.i.i.i.",
"p.M O ^ P X r.u.O M i.@ m p.= k i.i.i.i.i.i.i.i.a.( <.A p.g.n.E R R R ( i.i.i.i.p.i.i.i.i.i.i.i.i.i.",
"k n Z D i 8 k k 8 k k 8 k k M Z i.i.i.i.i.i.i.i.i.) 2.1.1.,.-.E R T _ ( i.i.i.i.i.i.i.i.i.i.i.i.i.i.",
"- n i.< > h > > x 1 ; h 8 - i.i.i.i.i.i.i.i.i.i.p.( / / / / / / / / ) ( i.i.i.i.i.i.i.i.i.i.i.i.i.i.",
"i.i.i.j h h t.i.i.i.u.h V p.i.i.i.i.i.i.i.i.i.i.i./ / / / / / / / / ) ( i.p.i.i.i.i.i.i.i.i.i.i.i.i.",
"i.i.i.Z V Z i.i.i.i.i.h V i.i.i.i.i.i.i.i.i.i.i.i.R ) ) / / / / T ) R ( i.i.i.i.p.i.i.i.i.i.i.i.i.i.",
"i.i.i.i.p.p.i.i.i.i.i.h V i.i.i.i.i.i.i.i.i.i.i.i.) ) T / / / / ) ) T ( i.i.i.i.i.i.i.i.i.i.i.i.i.i.",
"i.i.i.i.i.i.i.i.i.i.i.h V i.i.i.i.i.i.i.i.i.i.i.i.( R R ) R ) / / / / ( i.i.i.i.i.i.i.i.p.i.i.i.i.i.",
"i.i.i.i.i.i.i.i.i.i.i.h V i.i.i.i.i.i.i.i.i.i.i.i.R R ) ) ) / / / / / ( i.i.i.i.i.i.i.i.i.i.i.i.i.i.",
"a.i.i.a.a.i.i.a.i.i.i.q V i.i.i.i.i.i.i.i.i.i.i.i.( ) ) ) ) ) ) ) ) / ( i.i.i.i.p.i.i.i.i.i.i.i.i.i.",
"/ / / b.n.n.n.N.T f.p.j V i.i.i.i.i.i.i.i.i.i.i.i.N.N.N.n.n.n.n.n.n.-.( i.i.i.i.i.i.i.i.i.i.i.i.i.p.",
"W W W ~ 5.5.5.~ W w.0.$.9.0.0.0.0.0.0.0.0.0.0.0.0.~ 5.5.5.5.5.5.~ 5.! Q q.q.0.0.0.0.0.0.0.0.0.0.0.0.",
"{ { { { { { { { { { { { { { { { { { { { { { { { { { { { { { { { { { { { { { { { { { { { { { { { { { "
};
