/* XPM */
static char *a3abe4a85b964f7fe7c059b529490f8cp7oM9owgFYrIgNbt[] = {
/* columns rows colors chars-per-pixel */
"50 50 143 2 ",
"   c None",
".  c #11001B",
"X  c #170D1D",
"o  c #180F1D",
"O  c #19161D",
"+  c #1A1C1E",
"@  c #1B1623",
"#  c #1B1E21",
"$  c #1A1F28",
"%  c #1C2325",
"&  c #1E2A25",
"*  c #1E252A",
"=  c #1F2B2B",
"-  c #202C24",
";  c #20272E",
":  c #202B2E",
">  c #213124",
",  c #22372E",
"<  c #233B2C",
"1  c #222B33",
"2  c #252F39",
"3  c #223334",
"4  c #243B34",
"5  c #26333C",
"6  c #28353F",
"7  c #253B3B",
"8  c #283F3B",
"9  c #24402F",
"0  c #2A442C",
"q  c #2D4C2E",
"w  c #264233",
"e  c #284130",
"r  c #264A33",
"t  c #294D37",
"y  c #25403E",
"u  c #2A453D",
"i  c #2A4C3C",
"p  c #354530",
"a  c #2C5034",
"s  c #2B543C",
"d  c #2E5C3E",
"f  c #335A37",
"g  c #315238",
"h  c #335A3C",
"j  c #36653D",
"k  c #3B673B",
"l  c #3D693D",
"z  c #273140",
"x  c #283540",
"c  c #273D41",
"v  c #293C43",
"b  c #274240",
"n  c #2A4344",
"m  c #2B4B45",
"M  c #2B4649",
"N  c #2C4C4B",
"B  c #304A43",
"V  c #2E5344",
"C  c #2E5B44",
"Z  c #2E534D",
"A  c #2F5D4A",
"S  c #345545",
"D  c #315B46",
"F  c #385D46",
"G  c #32564A",
"H  c #315D4C",
"J  c #385F4A",
"K  c #2E5552",
"L  c #2F5852",
"P  c #305751",
"I  c #315C52",
"U  c #2F6040",
"Y  c #326445",
"T  c #346B46",
"R  c #3F6F42",
"E  c #33634B",
"W  c #39644B",
"Q  c #356B4C",
"!  c #3E6C4B",
"~  c #37714C",
"^  c #39754D",
"/  c #3B7C4F",
"(  c #346452",
")  c #3A6554",
"_  c #356B51",
"`  c #3A6B54",
"'  c #377250",
"]  c #3A7551",
"[  c #3C7B50",
"{  c #406E46",
"}  c #487E46",
"|  c #41734E",
" . c #427A4B",
".. c #416956",
"X. c #486D50",
"o. c #417554",
"O. c #4F7453",
"+. c #437D53",
"@. c #537856",
"#. c #527A5B",
"$. c #3E804F",
"%. c #3F8150",
"&. c #44844E",
"*. c #4A824D",
"=. c #4D894F",
"-. c #438451",
";. c #498453",
":. c #478A51",
">. c #4B8C53",
",. c #518E55",
"<. c #588851",
"1. c #55815A",
"2. c #59845C",
"3. c #538A58",
"4. c #5B8C5C",
"5. c #4E9153",
"6. c #529455",
"7. c #559955",
"8. c #5B9E57",
"9. c #5B9459",
"0. c #5C9B58",
"q. c #629255",
"w. c #63955C",
"e. c #649B5D",
"r. c #6C9D5E",
"t. c #5EA059",
"y. c #65A35C",
"u. c #6D9D62",
"i. c #739E65",
"p. c #6EA760",
"a. c #6EA960",
"s. c #72A364",
"d. c #75AB64",
"f. c #79AD66",
"g. c #7AA768",
"h. c #7EAE69",
"j. c #7EB168",
"k. c #84AE69",
"l. c #83B36B",
"z. c #88B76E",
"x. c #8AB96F",
"c. c #8EBB71",
"v. c #91BD72",
/* pixels */
"                                                                                                    ",
"                                                -                                                   ",
"                                              # r.-                                                 ",
"                                              > l.k.p                                               ",
"                                            k :.x.x.q..                                             ",
"                                            ! k.x.x.0.6.r                                           ",
"                                      % = A p.v.y.x.g.s.@.:                                         ",
"                                    r Q _ 9.p.l.v.y.v.u.&.s.u 3                                     ",
"                                  b >.6.>.h.5.j.v.x.l.d.2.` ^ U #                                   ",
"                            O $ C 4.9.%.>.6.l.c.c.f.l.d.5.d.u.V s O                                 ",
"                          } $.9.( >.[ +.y.l.j.c.x.x.0.>.6.[ _ ' I I 3                               ",
"                          o =.w.-.] I ;.w.8.d.c.y.v.l.:.9.g.0.u.%.] i.*.N 7                         ",
"                        a O.o.+.>.%.7.6.7.d.x.v.c.y.x.p.[ [ %.y.u.~ / L y +                         ",
"                        q X.` ( ] ] -.-.l.c.x.v.c.l.8.d.y.-.h.>._ ] >.L Z Z Z =                     ",
"                      a <.9.' o.e.-.[ f.j.8.j.y.x.a.7.6.d.8.-.g.e.[ _ ;.3.q.j                       ",
"                    = Z ) ) I ( ..] 5.-.-.t.t.t.y.c.z.u.6.8.h.-.-.[ [ ' I K y T &                   ",
"                    O * A ] [ o.d.y.%.[ [ >.y.6.>.p.>.-./ >.5.d.e.:.' I _ V 7                       ",
"                % 5 ~ _ I _ ( +.[ [ ] _ >.j.:.[ [ 8.f.6.-.$.h.>.] ( g.` I P _ w                     ",
"              1 2 % 4 _ K ;.[ ] ] / ] / :.%.e.1.[ 6.a.s./ ( +.9.>.-.[ :.+.K P y Y                   ",
"                1 V Q N ` -.I [ 5.:.-.%.;._ e.#.] [ 5.[ >.-.[ ' _ ;.( ' ' ;.F 3 ; 2 %               ",
"                2 , n Q K L ( 5.( -.:./ ] $./ [ 6.] ] 5._ ] -.$./ ' 5.I K _ i N 6 & 1 *             ",
"              4 3 1 s G H K _ N ' [ ' / I %.-.7.-.%.+.-._ ] %.-._ -.] :.Z G x x 6 S h               ",
"              1 n ,.S I L K I  .>._ ' / _ >._ [ %.( %.[ [ ( ' [ >.&.I I L N Q ~ L m >               ",
"            2 1  .+.H ( ( G >.o.Z ( ' ' >.' _ [ 6.( ] I -.5.I ( ` ;.>.>.Z v V v / C 4 +             ",
"            6 N K N g Z D M K K v ( ( L ( ( ] _ I I / _ K >.] L I _ G v N M Q Q ( 3.B 5 %           ",
"            & 3 ; *.W N C H P K 1 N M K L ( ' I L L L _ ( L ] ( / ( 7 5 n ( ~ G P I G Y <           ",
"          * z M _ _ N Q Y < H m Q N Z L Z ' ( K K _ _ ' / / ( Q i w 5 Q V E [ +.: W *.B >.k         ",
"          < ^ H N P M _ / E Z 7 a D Z n K K N N v K N n 7 m 4 Z 1 5 Q v D ' N ( N x v 4 Q e 2       ",
"        1 s n v 3 M G >./ ^ Z d s i u 1 n H 2 5 N E N E M ] Q H Y S A I E ! ) | v v n x d y 3 7     ",
"      # c m Q N K P K N I [ ( ] K m v v 4 3 3 1 n T 3 E C m ] Z E ( D ^ I N G P v B _ P ^ / 0       ",
"  3 v 2 8 ;.~ G I K M K | >.( 5.] [ ~ N ^ C ( v ^ n ^ ^ Q ] _ ' _ ^ o.5.[ ( W ;._ z E ] ( / :.l     ",
"    1 x % M Z m ~ 4 7 N K n F Q Q P ' ^ Z ( ] E L ^ ] L ( I L / ( Z / ^ ;.N N v n Y U -.A N : 3     ",
"    & % T K S _ Z v Q 1 N n 6.Q I >.] ' [ ] _ _ N I / / ( I ,.N L >.` Q v v 1 Q v v Z ( ;.8 5 =     ",
"    * z % Z | M H / Y 7 N M K v N J [ Q -.-.+.-.' -.6.^ [ +.;.V ^ -.8.( 2 i 8 d / o.N K K M ;       ",
"  1 x x 3 ^ P +.W n n M y K 3 x P P >.( >.( >.] ] ` >.;.] [ ' K Q F n n Z 6 Y I / ;.R % = = v y     ",
"= 7 ; 1 G N _ P v Q ^ N n = 5 N v v 5 K P Z J ) | I E ` n V M 2 m H 8 4 d i @ N n N N = K d +       ",
"      % 6 Q M G ~ / Q E E 4 e 7 b 6 Z v 6 b K v N I 5 N m G ^ 3 V 7 * 2 7 ( ~ >.Z 6 1 v 6 Z N =     ",
"    + M x 3 P H ( ( H [ _ ' _ 5 w 1 ~ n * 6 6 = 6 ~ V D T K t E _ V N T E N K = L I D v * * = 3     ",
"        % s Q i Q G ] E N E ( / ~ m 3 t A 3 b 1 V % s Q m s / ' ^ ( / / ' :.-.I v m C m 7           ",
"      & 5 y 1 N I P ) N M ;.[ / ( Y N / ^ ( E 6 4 u ^ / ^ ] ^ ( $.( / / ' ( i K Q = 1 % =           ",
"      N v 1 5 i m N _ H 5 n ( I +.' Q / _ _ _ Z / Q / ` I _ P I Q I H / E A Z x N V 2 b K           ",
"          # % 1 n Q I N N _ ] m ( ;.-.I ^ D [ ] 6./ / / [ m ( Q H _ ~ / T m K v 7 5 # & %           ",
"            5 z i n 7 v K ( P G _ M N c ] ] :.( ( ^ u j 5.( [ T d $.V V h S v * 1 7 7               ",
"          = m ; 2 5 - N E I K Q K K K >.L ( _ n K ( ;.' H I -. .@ U f , M % 2 x 3                   ",
"              + m 1 = n x v x * 6 A i v N i _ 7 Z Z w ( v v S c C w S x 5 5 1 5 n M                 ",
"              b 3 # 6 M 7 1 z x m V x 3 N m V M ^ M ; V e 5 1 7 5 * Z 3 * n 7 & +                   ",
"                        y v x 5 ; x ; 5 z x z x v 5 5 1 5 * 5 n 7   *       =                       ",
"                              % 6 b ; m 6 5 n 2 1 c m 3 N *                                         ",
"                              = m   # N % 3 Z 3 & N %   % m &                                       ",
"                                                                                                    "
};
