/* XPM */
static char *_044fec076bd4129c07826678a601c17TTN14YphmXst2jRe[] = {
/* columns rows colors chars-per-pixel */
"50 50 125 2 ",
"   c None",
".  c #000000",
"X  c #0E0100",
"o  c #0E0B09",
"O  c #150101",
"+  c #1D0101",
"@  c #16110E",
"#  c #1B1B1B",
"$  c #240102",
"%  c #2D0102",
"&  c #320405",
"*  c #3D0203",
"=  c gray17",
"-  c #332A27",
";  c #3F3F3F",
":  c #450203",
">  c #4C0204",
",  c #560103",
"<  c #590104",
"1  c #5C0308",
"2  c #570B0A",
"3  c #5C0E0E",
"4  c #5C1311",
"5  c #5E1C18",
"6  c #640205",
"7  c #6C0206",
"8  c #6E0308",
"9  c #720207",
"0  c #750209",
"q  c #7C0209",
"w  c #661C1B",
"e  c #572A27",
"r  c #473C36",
"t  c #5D3B36",
"y  c #6E3733",
"u  c #6E3933",
"i  c #743331",
"p  c #4F443E",
"a  c #62413B",
"s  c #515151",
"d  c #695B52",
"f  c gray39",
"g  c #7B7B7B",
"h  c #84030B",
"j  c #8A030C",
"k  c #89080F",
"l  c #8A0B11",
"z  c #8C1A1D",
"x  c #902223",
"c  c #922728",
"v  c #942C2B",
"b  c #8A3634",
"n  c #8C3A37",
"m  c #963231",
"M  c #983634",
"N  c #993836",
"B  c #9B3C3A",
"V  c #904641",
"C  c #9F4541",
"Z  c #955F57",
"A  c #9B5E56",
"S  c #A04643",
"D  c #A24A46",
"F  c #A34D48",
"G  c #A6514B",
"H  c #AB5B55",
"J  c #8B655C",
"K  c #9D635B",
"L  c #A0645C",
"P  c #AE6059",
"I  c #B1645C",
"U  c #816E64",
"Y  c #857266",
"T  c #8C786D",
"R  c #987166",
"E  c #B76C63",
"W  c #B96E66",
"Q  c #BB7167",
"!  c #BC756B",
"~  c #BC786D",
"^  c #BE7C71",
"/  c #C07F74",
"(  c #9A8477",
")  c #A88376",
"_  c #C18276",
"`  c #C28579",
"'  c #C58A7D",
"]  c gray54",
"[  c #929292",
"{  c #AB9384",
"}  c #B49A8B",
"|  c #BC9C8C",
" . c #BCA191",
".. c #B7B7B7",
"X. c #B9B9B9",
"o. c #C68E81",
"O. c #C99386",
"+. c #CB9789",
"@. c #CD9C8D",
"#. c #CE9F90",
"$. c #CFA091",
"%. c #CBAD9C",
"&. c #D1A595",
"*. c #D3AA99",
"=. c #CFB19F",
"-. c #D4B5A3",
";. c #D9B4A3",
":. c #D7B8A6",
">. c #DCB9A7",
",. c #DDBBA8",
"<. c #DEBBA9",
"1. c #DDBCA8",
"2. c #DDBCA9",
"3. c #DEBCA8",
"4. c #DEBCA9",
"5. c #DFBDAA",
"6. c #DDBCA9",
"7. c #CDCDCD",
"8. c gray83",
"9. c gray84",
"0. c #DDDDDD",
"q. c #EFEFEF",
"w. c gray94",
"e. c #F1F1F1",
"r. c #F6F6F6",
/* pixels */
"                                                                                                    ",
"                                                                                                    ",
"                                                                                                    ",
"                                                                                                    ",
"                                                                .                                   ",
"                                                            . .                                     ",
"                                                        . . .                                       ",
"                                                        . .                                         ",
"                                                                                          ,         ",
"                                                                                        , <         ",
"                                            , , , < , ,   X .                     , , < 9 9 ,       ",
"                                      , , < , 6 8 8 8 6 , . . , , , , , , , , , , 6 0 j j 0 ,       ",
"      ,                           , , 6 q 6 . 0 j j j j 9 . . 8 0 0 9 7 9 q 0 q j j j j j q ,       ",
"      , , ,                 , , , 7 h j j > . 6 j j j j 6 . . h j j j j j j j j j j j j j q ,       ",
"      6 h 7 < , , , , , , , 1 9 h j j j j & . 1 j j j j 1 . . k j j j j j j j j j j j j j z 1       ",
"      6 j h h h q 9 9 q q h j j j j j j j . . 1 j j j j , . O h j j j j j j j j j j j j B Q 6       ",
"      1 j j j j j j j j j j j j j j j j h . . i D G H H e . & j j j j j j j j j j j c H ! ) i       ",
"      6 j j j j j j j j j j j j j j j l b . . Z ` o.O.o.t . t W H C v l j j k v D I ! ^ $.6.J       ",
"      w D l j j j j j j j j j l x S H Q L . .  .4.6.6.6.Y . U / ! ! ! ! W W ! ! ^ O.*.>.4.4.R       ",
"      4 ^ W H C N m v B C D H W ! Q ` &.} . . %.4.6.4.6.=.{ ;.%.| &.#.+.O.@.*.;.4.4.4.4.4.4.) ,     ",
"      u <.&.O.` ~ ! ! ! ! ^ ' O.&.;.4.6.%.o r 6.4.4.4.-.} T p . - 4.4.6.6.4.4.4.4.4.6.6.>.$.A ,     ",
"      5 4.4.4.6.4.>.-.<.>.<.<.6.<.<.6.6.4.%.%.6. .( d . # g ..0.# %.4.6.6.6.4.<.6.6.1.$.^ ! V ,     ",
"      2 4.4.4.6.4.6.4.4.6.6.6.4.4.4.4.4.6.*.U @ o s [ 9.r.e.7.] . | >.4.6.1.<.-.&.O.~ ! P m q ,     ",
"      4 *.6.6.6.6.4.4.4.4.6.6.4.4.>.*.O.^ ! . X.q.q.9...] = . . . K ! ~ _ ~ ! ! ! E H m j j q ,     ",
"      , ! ' &.<.<.<.<.<.4.4.<.*.O.^ ! E G v * f ; . . . . . . . . n S G G S C M z j j j j j q ,     ",
"      , I ~ ! ^ o.+.#.@.o._ ! ! ! E C l j j 6 . . . . . . . . . % j j j j j j j j j j j j j q ,     ",
"      , h B P Q ! ! ! ! ! ! Q H N j j j j j h $ . . . . . . . . 9 j j j j j j j j j j j j j 7       ",
"      , q j j l v B S S N v l j j j j j j j j 8 . . . . . . . , j j j j j j j j j j j j h 6 ,       ",
"      , 0 j j j j j j j j j j j j j j j j j h q > X . . . . * q h j j j j j j j j j h 9 < ,         ",
"      , 0 j j j j j j j j j j j j j j h 0 7 < , , > + . O : , , < 6 9 q h h h q 9 6 , ,             ",
"        < 0 h j j j j j j j j j q 0 7 , , ,                       > > , , , , , , ,                 ",
"          , < 6 7 9 q 0 9 7 6 < < , , * O           . .             . O                             ",
"              , , , < , , , ,         . .           . . .             .                             ",
"                                      .           . . . . .           .                             ",
"                                      .         . . . . . .           .                             ",
"                                    . .         . . . .   . . .     . .                             ",
"                                    .         . . . . .     . . . . .                               ",
"                                    .         . . . .           . .                                 ",
"                                    .         . . . .                                               ",
"                                  . .         . . .                                                 ",
"                                  .             .                                                   ",
"                                  .                                                                 ",
"                                  . . . .                                                           ",
"                                . . . . . .                                                         ",
"                                  . . . . . .                                                       ",
"                                    . . . . . .                                                     ",
"                                      . . . . .                                                     ",
"                                        . . . .                                                     ",
"                                            .                                                       ",
"                                                                                                    "
};
