/* XPM */
static char *_669389335284[] = {
/* columns rows colors chars-per-pixel */
"50 50 122 2 ",
"   c #696C70",
".  c #6C6E72",
"X  c #6E7277",
"o  c #707177",
"O  c #707277",
"+  c #73767B",
"@  c #767980",
"#  c #797C82",
"$  c #7B7F86",
"%  c #7C8086",
"&  c #7D8086",
"*  c #7D8087",
"=  c #7D8288",
"-  c #7F848B",
";  c #80858A",
":  c #80848B",
">  c #80858B",
",  c #80848C",
"<  c #81848C",
"1  c #81868D",
"2  c #82888E",
"3  c #83888F",
"4  c #848990",
"5  c #848A91",
"6  c #858A91",
"7  c #878C94",
"8  c #878D94",
"9  c #888D94",
"0  c #888E95",
"q  c #888E96",
"w  c #898F96",
"e  c #8A8F97",
"r  c #8A9097",
"t  c #8A9098",
"y  c #8B9098",
"u  c #8B9198",
"i  c #8B9199",
"p  c #8C9199",
"a  c #8C9299",
"s  c #8D9399",
"d  c #8C919A",
"f  c #8C929A",
"g  c #8C929B",
"h  c #8D949B",
"j  c #8D939C",
"k  c #8D949C",
"l  c #8E949C",
"z  c #8E959C",
"x  c #8F959C",
"c  c #8E949D",
"v  c #8E959D",
"b  c #8F959D",
"n  c #8F959E",
"m  c #8F969E",
"M  c #8F979E",
"N  c #8F979F",
"B  c #90969F",
"V  c #90979F",
"C  c #9197A0",
"Z  c #9098A0",
"A  c #9198A0",
"S  c #9298A1",
"D  c #9399A2",
"F  c #929AA2",
"G  c #939AA3",
"H  c #949BA3",
"J  c #949BA4",
"K  c #969DA6",
"L  c #969DA7",
"P  c #969EA7",
"I  c #979EA7",
"U  c #979FA8",
"Y  c #989FA8",
"T  c #98A0A9",
"R  c #99A0A9",
"E  c #98A0AA",
"W  c #99A0AA",
"Q  c #99A1AA",
"!  c #9AA1AA",
"~  c #9AA2AB",
"^  c #9AA2AC",
"/  c #9BA3AC",
"(  c #9CA3AD",
")  c #9DA5AE",
"_  c #9EA7B1",
"`  c #9FA8B2",
"'  c #A0A8B2",
"]  c #A0A9B3",
"[  c #A0A9B4",
"{  c #A1AAB4",
"}  c #A2AAB4",
"|  c #A2ABB5",
" . c #A3ACB6",
".. c #A3ACB7",
"X. c #A3ADB7",
"o. c #A4ADB7",
"O. c #A4ADB8",
"+. c #A4AEB8",
"@. c #A5AEB9",
"#. c #A5AFB9",
"$. c #A6AFBA",
"%. c #A6B0BA",
"&. c #A6B0BB",
"*. c #A7B1BC",
"=. c #A8B1BD",
"-. c #A8B2BD",
";. c #A8B2BE",
":. c #A9B2BE",
">. c #A8B3BE",
",. c #A9B3BE",
"<. c #A9B3BF",
"1. c #AAB4BF",
"2. c #AAB5BF",
"3. c #A9B5C0",
"4. c #AAB4C0",
"5. c #AAB5C0",
"6. c #ABB5C0",
"7. c #ABB5C1",
"8. c #ABB6C1",
"9. c #ACB6C1",
"0. c #ACB6C2",
"q. c None",
/* pixels */
"q.q.q.q.q.q.q.q.q.q.q.q.q.q.q.q.q.q.q.q.q.q.q.q.q.q.q.q.q.q.q.q.q.q.q.q.q.q.q.q.q.q.q.q.q.q.q.q.q.q.",
"q.q.q.q.q.q.q.q.q.q.q.q.q.q.q.q.q.q.q.q.q.q.q.q.q.q.q.q.q.q.q.q.q.q.q.q.q.q.q.q.q.q.q.q.q.q.q.q.q.q.",
"q.q.q.q.q.q.q.q.q.q.q.q.q.q.q.q.q.q.q.q.q.q.q.q.q.q.q.q.q.q.q.q.q.q.q.q.q.q.q.q.q.q.q.q.q.q.q.q.q.q.",
"q.q.q.q.q.q.q.q.q.q.q.q.q.q.q.q.q.q.q.q.q.q.q.q.q.q.q.q.q.q.q.q.q.q.q.q.q.q.q.q.q.q.q.q.q.q.q.q.q.q.",
"q.q.q.q.q.q.q.q.q.q.q.q.q.q.q.q.q.q.q.q.q.q.q.q.q.q.q.q.q.q.q.q.q.q.q.q.q.q.q.q.q.q.q.q.q.q.q.q.q.q.",
"q.q.q.q.q.q.q.q.q.q.q.q.q.q.q.q.q.q.q.q.q.q.q.q.7.q.q.q.q.q.q.q.q.q.q.q.q.q.q.q.q.q.q.q.q.q.q.q.q.q.",
"q.q.q.q.q.q.q.q.q.q.q.q.q.q.q.q.q.q.q.q.q.-.-.-.-.-.=.2.q.q.q.q.q.q.q.q.q.q.q.q.q.q.q.q.q.q.q.q.q.q.",
"q.q.q.q.q.q.q.q.q.q.q.q.q.q.q.q.q.q.0.-.,.<.1.4.4.1.<.-.&.q.q.q.q.q.q.q.q.q.q.q.q.q.q.q.q.q.q.q.q.q.",
"q.q.q.q.q.q.q.q.q.q.q.q.q.q.q.q.6.-.,.1.4.6.7.7.7.7.6.1.:.] q.q.q.q.q.q.q.q.q.q.q.q.q.q.q.q.q.q.q.q.",
"q.q.q.q.q.q.q.q.q.q.q.q.q.q.q.-.,.1.4.6.7.8.8.0.0.8.8.6.1.=.E q.q.q.q.q.q.q.q.q.q.q.q.q.q.q.q.q.q.q.",
"q.q.q.q.q.q.q.q.q.q.q.q.q.1.:.<.4.6.7.8.0.0.0.0.0.0.0.8.6.1.O.q.q.q.q.q.q.q.q.q.q.q.q.q.q.q.q.q.q.q.",
"q.q.q.q.q.q.q.q.q.q.q.q.;.,.1.6.7.8.0.0.0.0.0.0.0.0.0.0.7.5.,.W q.q.q.q.q.q.q.q.q.q.q.q.q.q.q.q.q.q.",
"q.q.q.q.q.q.q.q.q.q.q.-.,.4.7.8.8.0.0.0.0.0.0.0.0.0.0.0.8.7.1.$.N q.q.q.q.q.q.q.q.q.q.q.q.q.q.q.q.q.",
"q.q.q.q.q.q.q.q.q.q.-.,.4.7.8.0.0.0.0.0.0.0.0.0.0.0.0.0.0.8.6.<./ q.q.q.q.q.q.q.q.q.q.q.q.q.q.q.q.q.",
"q.q.q.q.q.q.q.q.q.1.,.4.7.8.0.0.0.0.0.0.0.0.0.0.0.0.0.0.0.8.7.4.&.Z q.q.q.q.q.q.q.q.q.q.q.q.q.q.q.q.",
"q.q.q.q.q.q.q.q.q.-.1.6.8.0.0.0.0.0.0.0.0.0.0.0.0.0.0.0.0.0.8.6.<.! q.q.q.q.q.q.q.q.q.q.q.q.q.q.q.q.",
"q.q.q.q.q.q.q.q.>.,.5.7.0.0.0.0.0.0.0.0.0.0.0.0.0.0.0.0.0.0.8.7.4.$.c q.q.q.q.q.q.q.q.q.q.q.q.q.q.q.",
"q.q.q.q.q.q.q.q.-.1.7.8.0.0.0.0.0.0.0.0.0.0.0.0.0.0.0.0.0.0.0.8.6.<.Y q.q.q.q.q.q.q.q.q.q.q.q.q.q.q.",
"q.q.q.q.q.q.q.3.,.5.8.0.0.0.0.0.0.0.0.0.0.0.0.0.0.0.0.0.0.0.0.8.7.4. .v q.q.q.q.q.q.q.q.q.q.q.q.q.q.",
"q.q.q.q.q.q.q.-.1.7.8.0.0.0.0.0.0.0.0.0.0.0.0.0.0.0.0.0.0.0.0.0.8.6.<.F q.q.q.q.q.q.q.q.q.q.q.q.q.q.",
"q.q.q.q.q.q.q.-.4.7.0.0.0.0.0.0.0.0.0.0.0.0.0.0.0.0.0.0.0.0.0.0.8.7.1.] z q.q.q.q.q.q.q.q.q.q.q.q.q.",
"q.q.q.q.q.q.9.,.5.8.0.0.0.0.0.0.0.0.0.0.0.0.0.0.0.0.0.0.0.0.0.0.0.7.5.-.B q.q.q.q.q.q.q.q.q.q.q.q.q.",
"q.q.q.q.q.q.,.<.6.8.0.0.0.0.0.0.0.0.0.0.0.0.0.0.0.0.0.0.0.0.0.0.0.8.7.1.~ q.q.q.q.q.q.q.q.q.q.q.q.q.",
"q.q.q.q.q.q.>.1.7.8.0.0.0.0.0.0.0.0.0.0.0.0.0.0.0.0.0.0.0.0.0.0.0.0.7.4...g q.q.q.q.q.q.q.q.q.q.q.q.",
"q.q.q.q.q.q.;.1.7.9.0.0.0.0.0.0.0.0.0.0.0.0.0.0.0.0.0.0.0.0.0.0.0.0.8.5.-.l q.q.q.q.q.q.q.q.q.q.q.q.",
"q.q.q.q.q.q.-.4.7.0.0.0.0.0.0.0.0.0.0.0.0.0.0.0.0.0.0.0.0.0.0.0.0.0.8.7.1.G x q.q.q.q.q.q.q.q.q.q.q.",
"q.q.q.q.q.q.,.5.8.0.0.0.0.0.0.0.0.0.0.0.0.0.0.0.0.0.0.0.0.0.0.0.0.0.8.7.1.T p q.q.q.q.q.q.q.q.q.q.q.",
"q.q.q.q.q.1.,.6.8.0.0.0.0.0.0.0.0.0.0.0.0.0.0.0.0.0.0.0.0.0.0.0.0.0.8.7.4.^ y q.q.q.q.q.q.q.q.q.q.q.",
"q.q.q.q.q.,.<.7.8.0.0.0.0.0.0.0.0.0.0.0.0.0.0.0.0.0.0.0.0.0.0.0.0.0.8.7.4.~ t q.q.q.q.q.q.q.q.q.q.q.",
"q.q.q.q.q.-.1.7.8.0.0.0.0.0.0.0.0.0.0.0.0.0.0.0.0.0.0.0.0.0.0.0.0.0.8.7.4.P t q.q.q.q.q.q.q.q.q.q.q.",
"q.q.q.q.q.-.1.7.0.0.0.0.0.0.0.0.0.0.0.0.0.0.0.0.0.0.0.0.0.0.0.0.0.0.9.7.5.A s q.q.q.q.q.q.q.q.q.q.q.",
"q.q.q.q.q.>.4.7.0.0.0.0.0.0.0.0.0.0.0.0.0.0.0.0.0.0.0.0.0.0.0.0.0.0.0.8.#.S T q.8.q.q.q.q.q.q.q.q.q.",
"q.q.q.q.q.-.4.7.0.0.0.0.0.0.0.0.0.0.0.0.0.0.0.0.0.0.0.0.0.0.0.0.0.0.0.8.-.1.4.<.,.-.U q.q.q.q.q.q.q.",
"q.q.q.q.q.-.1.7.9.0.0.0.0.0.0.0.0.0.0.0.0.0.0.0.0.0.0.0.0.0.0.0.0.0.0.0.8.7.7.6.4.<...d q.q.q.q.q.q.",
"q.q.q.q.q.*.1.7.8.0.0.0.0.0.0.0.0.0.0.0.0.0.0.0.0.0.0.0.0.0.0.0.0.0.0.0.0.0.8.8.7.4.,.F q.q.q.q.q.q.",
"q.q.q.q.q.%.,.4.7.8.8.8.8.0.0.0.0.0.0.0.0.0.0.0.0.0.0.0.9.8.8.0.0.0.0.0.0.0.0.0.8.7.1.] M q.q.q.q.q.",
"q.q.q.q.q.^ -.<.4.6.7.7.7.7.7.7.8.8.8.8.8.8.8.8.8.8.8.7.7.7.7.8.8.0.0.0.0.0.0.0.0.7.4.-.A q.q.q.q.q.",
"q.q.q.q.q.q.F ` $.-.1.1.4.4.4.5.5.6.6.7.7.7.7.7.7.6.6.5.4.1.X.| 7.8.0.0.0.0.0.0.0.8.6.<.I j q.q.q.q.",
"q.q.q.q.q.q.q.- w v H K R ( ` } o.$.-.1.1.1.1.1.1.,.+.' Q S j { 6.7.8.0.0.0.0.0.8.7.5.<.J r q.q.q.q.",
"q.q.q.q.q.q.q.q.q.+ $ 3 8 9 q e i p f k V D G A n h f u y r q [ 1.6.7.8.8.8.8.8.7.6.1.O.f 7 q.q.q.q.",
"q.q.q.q.q.q.q.q.q.q.q.q.q.q.q.q.. X @ % : , 1 3 2 < - * o q.q.L -.1.4.6.7.7.6.6.4.1.{ b e > q.q.q.q.",
"q.q.q.q.q.q.q.q.q.q.q.q.q.q.q.q.q.q.q.q.q.q.q.q.q.q.q.q.q.q.q.q.) @.-.<.1.,.*.#._ H a e 6 q.q.q.q.q.",
"q.q.q.q.q.q.q.q.q.q.q.q.q.q.q.q.q.q.q.q.q.q.q.q.q.q.q.q.q.q.q.q.  0 m C A V c f y t 9 & q.q.q.q.q.q.",
"q.q.q.q.q.q.q.q.q.q.q.q.q.q.q.q.q.q.q.q.q.q.q.q.q.q.q.q.q.q.q.q.q.q.+ = 4 4 5 ; # O q.q.q.q.q.q.q.q.",
"q.q.q.q.q.q.q.q.q.q.q.q.q.q.q.q.q.q.q.q.q.q.q.q.q.q.q.q.q.q.q.q.q.q.q.q.q.q.q.q.q.q.q.q.q.q.q.q.q.q.",
"q.q.q.q.q.q.q.q.q.q.q.q.q.q.q.q.q.q.q.q.q.q.q.q.q.q.q.q.q.q.q.q.q.q.q.q.q.q.q.q.q.q.q.q.q.q.q.q.q.q.",
"q.q.q.q.q.q.q.q.q.q.q.q.q.q.q.q.q.q.q.q.q.q.q.q.q.q.q.q.q.q.q.q.q.q.q.q.q.q.q.q.q.q.q.q.q.q.q.q.q.q.",
"q.q.q.q.q.q.q.q.q.q.q.q.q.q.q.q.q.q.q.q.q.q.q.q.q.q.q.q.q.q.q.q.q.q.q.q.q.q.q.q.q.q.q.q.q.q.q.q.q.q.",
"q.q.q.q.q.q.q.q.q.q.q.q.q.q.q.q.q.q.q.q.q.q.q.q.q.q.q.q.q.q.q.q.q.q.q.q.q.q.q.q.q.q.q.q.q.q.q.q.q.q.",
"q.q.q.q.q.q.q.q.q.q.q.q.q.q.q.q.q.q.q.q.q.q.q.q.q.q.q.q.q.q.q.q.q.q.q.q.q.q.q.q.q.q.q.q.q.q.q.q.q.q."
};
