/* XPM */
static char *_669389478660[] = {
/* columns rows colors chars-per-pixel */
"50 50 105 2 ",
"   c #A3781B",
".  c #A4781C",
"X  c #A4781D",
"o  c #A4791D",
"O  c #A5791D",
"+  c #A5791E",
"@  c #A67A1F",
"#  c #A77A1F",
"$  c #99702D",
"%  c #A77A20",
"&  c #A77B20",
"*  c #A77B21",
"=  c #A87B21",
"-  c #A97C23",
";  c #AA7D23",
":  c #AA7D24",
">  c #AB7D25",
",  c #AC7E26",
"<  c #A87B31",
"1  c #AA7D33",
"2  c #AC7E34",
"3  c #AE8028",
"4  c #B0812A",
"5  c #B1822B",
"6  c #B2832C",
"7  c #B2832D",
"8  c #B3832D",
"9  c #B4842E",
"0  c #B58530",
"q  c #B78631",
"w  c #B78732",
"e  c #B88732",
"r  c #B88733",
"t  c #B98736",
"y  c #B98833",
"u  c #BA8933",
"i  c #BA8934",
"p  c #BA8935",
"a  c #BB8A35",
"s  c #BC8A35",
"d  c #BC8A36",
"f  c #BD8B37",
"g  c #BE8C38",
"h  c #BF8C39",
"j  c #BF8D39",
"k  c #BE8C3A",
"l  c #BF8D3A",
"z  c #C08D3A",
"x  c #C08E3A",
"c  c #C18E3A",
"v  c #C18E3B",
"b  c #C18F3B",
"n  c #C28F3C",
"m  c #C3903C",
"M  c #C3903D",
"N  c #C3913D",
"B  c #C4913D",
"V  c #C4913E",
"C  c #C4923E",
"Z  c #C5933F",
"A  c #C6933F",
"S  c #C79541",
"D  c #C89742",
"F  c #C99742",
"G  c #CA9844",
"H  c #CA9944",
"J  c #CB9A45",
"K  c #CC9A45",
"L  c #CC9A46",
"P  c #CC9B46",
"I  c #CD9B46",
"U  c #CD9C47",
"Y  c #CE9C47",
"T  c #CE9D48",
"R  c #CF9E48",
"E  c #D09F49",
"W  c #D09F4A",
"Q  c #D1A14A",
"!  c #D2A14B",
"~  c #D2A24B",
"^  c #D2A24C",
"/  c #D3A34C",
"(  c #D4A34D",
")  c #D4A44D",
"_  c #D5A54E",
"`  c #D6A54F",
"'  c #D5A64E",
"]  c #D6A64F",
"[  c #D7A750",
"{  c #D8A850",
"}  c #D8A851",
"|  c #D9A951",
" . c #D9A952",
".. c #DAAB53",
"X. c #DBAC54",
"o. c #DCAC54",
"O. c #DCAD55",
"+. c #DDAD55",
"@. c #DDAE55",
"#. c #DDAE56",
"$. c #DEAE56",
"%. c #DEAF56",
"&. c #DFB056",
"*. c #DFB057",
"=. c None",
/* pixels */
"=.=.=.=.=.=.=.=.=.=.=.=.=.=.=.=.=.=.=.=.=.=.=.=.=.=.=.=.=.=.=.=.=.=.=.=.=.=.=.=.=.=.=.=.=.=.=.=.=.=.",
"=.=.=.=.=.=.=.=.=.=.=.=.=.=.=.=.=.=.=.=.=.=.=.=.=.=.=.=.=.=.=.=.=.=.=.=.=.=.=.=.=.=.=.=.=.=.=.=.=.=.",
"=.=.=.=.=.=.=.=.=.=.=.=.=.=.=.=.=.=.=.=.=.=.=.=.=.=.=.=.=.=.=.=.=.=.=.=.=.=.=.=.=.=.=.=.=.=.=.=.=.=.",
"=.=.=.=.=.=.=.=.=.=.=.=.=.=.=.=.=.=.=.=.=.=.=.=.=.=.=.=.=.=.=.=.=.=.=.=.=.=.=.=.=.=.=.=.=.=.=.=.=.=.",
"=.=.=.=.=.=.=.=.=.=.=.=.=.=.=.=.=.=.=.=.=.=.=.=.=.=.=.=.=.=.=.=.=.=.=.=.=.=.=.=.=.=.=.=.=.=.=.=.=.=.",
"=.=.=.=.=.=.=.=.=.=.=.=.=.=.=.=.=.=.=.=.=.=.=.=.=.=.=.=.=.=.=.=.=.=.=.=.=.=.=.=.=.=.=.=.=.=.=.=.=.=.",
"=.=.=.=.=.=.*.*.*.*.*.*.*.*.*.*.*.*.*.*.*.*.*.*.*.*.*.*.*.*.*.*.*.*.*.*.*.*.*.*.*.*.*.&.=.=.=.=.=.=.",
"=.=.=.=.=.*.*.*.*.*.*.*.*.*.*.*.*.*.*.*.*.*.*.*.*.*.*.*.*.*.*.*.*.*.*.*.*.*.*.*.*.*.*.*.=.=.=.=.=.=.",
"=.=.=.=.=.*.*.*.*.*...I I I I I I I I I I I I I I I I I I I I I Y _ %.*.*.*.*.*.*.*.*.*.*.=.=.=.=.=.",
"=.=.=.=.=.*.*.*.*.*.{ F Q Q Q Q Q Q Q Q Q Q Q Q Q Q Q Q Q Q ! _ O.*.*.*.*.*.*.*.*.*.*.*.*.=.=.=.=.=.",
"=.=.=.=.=.*.*.*.*.*.{ E *.*.*.*.*.*.*.*.*.*.*.*.*.*.*.*.*.*.*.*.*.*.*.*.*.*.*.*.*.*.*.*.*.=.=.=.=.=.",
"=.=.=.=.=.*.*.*.*.*.{ E *.*.*.*.*.*.*.*.*.*.*.*.*.*.*.*.*.*.*.*.*.*.*.%.| W J %.*.*.*.*.*.=.=.=.=.=.",
"=.=.=.=.=.*.*.*.*.*.{ E *.*.*.*.*.*.*.*.*.*.*.*.*.*.*.*.*.*.*.*.%. .R Z m S / *.*.*.*.*.*.=.=.=.=.=.",
"=.=.=.=.=.*.*.*.*.*.{ E *.*.*.*.*.*.*.*.*.*.*.*.*.*.*.*.*.%.[ T Z b F ! ..*.*.*.*.*.*.*.*.=.=.=.=.=.",
"=.=.=.=.=.*.*.*.*.*.{ E *.*.*.*.*.*.*.*.*.*.*.*.*.*.@.[ U V M D ^ o.*.*.*.*.*.*.*.*.*.*.*.=.=.=.=.=.",
"=.=.=.=.=.*.*.*.*.*.} ~ *.*.*.*.*.*.*.*.*.*.*.#.` P C n G ( X.*.*.*.*.*.*.*.*.*.*.*.*.*.*.=.=.=.=.=.",
"=.=.=.=.=.*.*.*.*.*.*.*.*.*.*.*.*.*.*.*.O.' L M B H ) +.*.*.*.*.*.*.*.*.*.*.*.*.*.*.*.*.*.=.=.=.=.=.",
"=.=.=.=.=.*.*.*.*.*.*.*.*.*.*.*.*.+.) G B M K ` O.*.*.*.*.*.*.*.*.*.*.*.*.*.*.*.*.*.*.*.*.=.=.=.=.=.",
"=.=.=.=.=.*.*.*.*.*.*.*.*.*.+._ P V A P ] $.*.*.*.*.*.*.*.*.*.*.*.*.*.*.*.*.*.*.*.*.*.*.*.=.=.=.=.=.",
"=.=.=.=.=.*.*.*.*.*.*.*.*.*.%.+.+.+.%.*.*.*.*.*.*.*.*.*.*.*.*.*.*.*.*.*.*.*.*.*.*.*.*.*.*.=.=.=.=.=.",
"=.=.=.=.=.*.*.*.*.*.*.*.*.*.*.*.*.*.*.*.*.*.*.*.*.*.*.*.*.*.*.*.*.*.*.*.*.*.*.*.*.*.*.*.*.=.=.=.=.=.",
"=.=.=.=.=.N N N N N N N N N N N N N N N N N N N N N N N N N N N N N N N N N N N N N N N N =.=.=.=.=.",
"=.=.=.=.=.v v v v v v v v v v v v v v v v v v v v v v v v v v v v v v v v v v v v v v v v =.=.=.=.=.",
"=.=.=.=.=.v v v v v v v v v v v v v v v v v v v v v v v v v v v v v v v v v v v v v v v v =.=.=.=.=.",
"=.=.=.=.=.v v v v v f 6 6 6 6 6 6 6 6 6 6 6 6 6 6 6 6 6 6 6 6 6 7 9 h v v v v v v v v v v =.=.=.=.=.",
"=.=.=.=.=.v v v v v u O q e e e e e e e e e e e e e e e e e e e r h v v v v v v v v v v v =.=.=.=.=.",
"=.=.=.=.=.v v v v v u @ z v v v v v v v v v v v v v v v v v v v v v v v v v v v v v v v v =.=.=.=.=.",
"=.=.=.=.=.v v v v v u @ z v v v v v v v v v v v v v v v v v v v v v v v v v v v v v v v v =.=.=.=.=.",
"=.=.=.=.=.l v v v v y # z v v v v v v v v v v v v v c v v v v v v v v v v v z v v v v v 2 =.=.=.=.=.",
"=.=.=.=.=.l v v v v u @ z v v v v v v v v v v v v v v v v v v v v v v v h 7 ; x v v v v 1 =.=.=.=.=.",
"=.=.=.=.=.l v v v v u @ z v v v v v v v v v v v v v v v v v v v v v h 9 + % q v v v v v 1 =.=.=.=.=.",
"=.=.=.=.=.l v v v v u @ z v v v v v v v v v v v v v v v v v v v z 9 @ @ 0 z v v v v v v 1 =.=.=.=.=.",
"=.=.=.=.=.l v v v v u @ z v v v v v v v v v v v v v v v v v j 0 @ @ 9 z v v v v v v v v 1 =.=.=.=.=.",
"=.=.=.=.=.l v v v v u @ z v v v v v v v v v v v v v v v z 0 & O 9 h v v v v v v v v v v 1 =.=.=.=.=.",
"=.=.=.=.=.l v v v v u @ z v v v v v v v v v v v v v z q * + 7 h v v v v v v v v v v v v 1 =.=.=.=.=.",
"=.=.=.=.=.l v v v v u # z v v v v v v v v v v v x w = o 6 g v v v v v v v v v v v v v v 1 =.=.=.=.=.",
"=.=.=.=.=.l v v v v s 0 v v v v v v v v v v x e - X 5 g v v v v v v v v v v v v v v v v 1 =.=.=.=.=.",
"=.=.=.=.=.l v v v v v v v v v v v v v v x y - o 4 g v v v v v v v v v v v v v v v v v v 1 =.=.=.=.=.",
"=.=.=.=.=.l v v v v v v v v v v v v v y :   4 f v v v v v v v v v v v v v v v v v v v v 1 =.=.=.=.=.",
"=.=.=.=.=.l v v v v v v v v v v v i > . 3 f v v v v v v v v v v v v v v v v v v v v v v 1 =.=.=.=.=.",
"=.=.=.=.=.l v v v v v v v v v p ,   3 d v v v v v v v v v v v v v v v v v v v v v v v v 1 =.=.=.=.=.",
"=.=.=.=.=.l v v v v v v v v a 6 8 a c v v v v v v v v v v v v v v v v v v v c v v v v v 1 =.=.=.=.=.",
"=.=.=.=.=.l v v v v v v v v v v v v v v v v v v v v v v v v v v v v v v v v v v v v v v 1 =.=.=.=.=.",
"=.=.=.=.=.k v v v v v v v v v v v v v v v v v v v v v v v v v v v v v v v v v v v v v v < =.=.=.=.=.",
"=.=.=.=.=.$ k l l l l l l l l l l l l l l l l l l l l l l l l l l l l l l l l l l l l t =.=.=.=.=.=.",
"=.=.=.=.=.=.=.=.=.=.=.=.=.=.=.=.=.=.=.=.=.=.=.=.=.=.=.=.=.=.=.=.=.=.=.=.=.=.=.=.=.=.=.=.=.=.=.=.=.=.",
"=.=.=.=.=.=.=.=.=.=.=.=.=.=.=.=.=.=.=.=.=.=.=.=.=.=.=.=.=.=.=.=.=.=.=.=.=.=.=.=.=.=.=.=.=.=.=.=.=.=.",
"=.=.=.=.=.=.=.=.=.=.=.=.=.=.=.=.=.=.=.=.=.=.=.=.=.=.=.=.=.=.=.=.=.=.=.=.=.=.=.=.=.=.=.=.=.=.=.=.=.=.",
"=.=.=.=.=.=.=.=.=.=.=.=.=.=.=.=.=.=.=.=.=.=.=.=.=.=.=.=.=.=.=.=.=.=.=.=.=.=.=.=.=.=.=.=.=.=.=.=.=.=.",
"=.=.=.=.=.=.=.=.=.=.=.=.=.=.=.=.=.=.=.=.=.=.=.=.=.=.=.=.=.=.=.=.=.=.=.=.=.=.=.=.=.=.=.=.=.=.=.=.=.=."
};
