/* XPM */
static char *_669387622822[] = {
/* columns rows colors chars-per-pixel */
"44 44 212 2 ",
"   c #412B1F",
".  c #483123",
"X  c #4B3424",
"o  c #523829",
"O  c #573C2B",
"+  c #593D2C",
"@  c #5C3F2E",
"#  c #165E17",
"$  c #275A1A",
"%  c #265F1C",
"&  c #2B5C1C",
"*  c #2C5D1D",
"=  c #2C5E1E",
"-  c #34571F",
";  c #166417",
":  c #166517",
">  c #156418",
",  c #166418",
"<  c #166518",
"1  c #166519",
"2  c #166618",
"3  c #166619",
"4  c #176619",
"5  c #166719",
"6  c #176719",
"7  c #1A6319",
"8  c #166819",
"9  c #17691A",
"0  c #176A1A",
"q  c #176E1B",
"w  c #18691A",
"e  c #186A1A",
"r  c #186B1B",
"t  c #186D1A",
"y  c #186D1B",
"u  c #186F1B",
"i  c #107016",
"p  c #107D17",
"a  c #19701B",
"s  c #19701C",
"d  c #19721C",
"f  c #1A731C",
"g  c #1A741C",
"h  c #1A751D",
"j  c #1A761D",
"k  c #1A771D",
"l  c #1D761F",
"z  c #127D18",
"x  c #137D18",
"c  c #147D1A",
"v  c #167D1B",
"b  c #1A781D",
"n  c #187B1C",
"m  c #1B781E",
"M  c #1A791E",
"N  c #1B791E",
"B  c #1B7A1E",
"V  c #1B7B1E",
"C  c #1C7B1E",
"Z  c #1C7B1F",
"A  c #197D1D",
"S  c #1B7C1E",
"D  c #1B7D1E",
"F  c #1B7D1F",
"G  c #1C7C1E",
"H  c #1C7D1E",
"J  c #1C7C1F",
"K  c #1C7D1F",
"L  c #365C20",
"P  c #3F5A23",
"I  c #1F7A21",
"U  c #1F7B21",
"Y  c #1D7D20",
"T  c #1E7C21",
"R  c #1E7D21",
"E  c #1F7D21",
"W  c #1F7D22",
"Q  c #2D6E2C",
"!  c #2E6E2E",
"~  c #227223",
"^  c #217D22",
"/  c #217D23",
"(  c #227D24",
")  c #247E26",
"_  c #277528",
"`  c #2B712A",
"'  c #287E28",
"]  c #2A7E2B",
"[  c #2B7E2B",
"{  c #2B7E2C",
"}  c #2D7E2C",
"|  c #337131",
" . c #317930",
".. c #337E31",
"X. c #347F33",
"o. c #367F34",
"O. c #397B37",
"+. c #387F37",
"@. c #3B7538",
"#. c #3F703C",
"$. c #3B7838",
"%. c #5B402D",
"&. c #5B412E",
"*. c #5E412F",
"=. c #5F412F",
"-. c #5F422F",
";. c #5C442E",
":. c #544D2C",
">. c #445626",
",. c #5F4430",
"<. c #604230",
"1. c #604330",
"2. c #614330",
"3. c #624331",
"4. c #634431",
"5. c #634532",
"6. c #644532",
"7. c #407F3D",
"8. c #467642",
"9. c #4B7346",
"0. c #4D7048",
"q. c #4D7849",
"w. c #507D4B",
"e. c #63765B",
"r. c #74796C",
"t. c #7A7870",
"y. c #7C7973",
"u. c #857D7B",
"i. c #867E7B",
"p. c #897D7E",
"a. c #3C8039",
"s. c #3F803D",
"d. c #448041",
"f. c #498045",
"g. c #4D8148",
"h. c #4F824B",
"j. c #558250",
"k. c #598353",
"l. c #5A8255",
"z. c #5E8359",
"x. c #5F8359",
"c. c #698562",
"v. c #6C8565",
"b. c #6D8565",
"n. c #6E8567",
"m. c #718669",
"M. c #73856A",
"N. c #73866B",
"B. c #77876F",
"V. c #798771",
"C. c #7A8771",
"Z. c #7F8675",
"A. c #86897B",
"S. c #86897C",
"D. c #89887E",
"F. c #89887F",
"G. c #8B8080",
"H. c #8F8B84",
"J. c #908084",
"K. c #938587",
"L. c #918886",
"P. c #9B8C8E",
"I. c #9E8E92",
"U. c #A08493",
"Y. c #A38A96",
"T. c #A48A97",
"R. c #A18D94",
"E. c #A38C97",
"W. c #A48F97",
"Q. c #A68B99",
"!. c #A7889A",
"~. c #A98A9B",
"^. c #AC8C9E",
"/. c #A8909B",
"(. c #B28DA4",
"). c #B68EA7",
"_. c #BA8FAB",
"`. c #B091A2",
"'. c #B290A3",
"]. c #B492A5",
"[. c #B492A6",
"{. c #B692A7",
"}. c #B692A8",
"|. c #BA90AB",
" X c #BB93AC",
".X c #BC91AD",
"XX c #BC93AC",
"oX c #BC94AC",
"OX c #BD94AE",
"+X c #BF94AF",
"@X c #BF92B0",
"#X c #C192B1",
"$X c #C395B3",
"%X c #C494B4",
"&X c #C595B5",
"*X c #C694B6",
"=X c #C695B6",
"-X c #C696B6",
";X c #C796B7",
":X c #C896B8",
">X c #C996B8",
",X c #CA97BA",
"<X c #CB97BA",
"1X c #CC96BB",
"2X c #CC97BB",
"3X c #CD97BD",
"4X c #CE98BD",
"5X c #CF98BE",
"6X c #CF98BF",
"7X c #D098BF",
"8X c #D198C0",
"9X c None",
/* pixels */
"9X9X9X9X9X9X9X9X9X9X9X9X9X9X9X9X9X9X9X9X9X9X9X9X9X9X9X9X9X9X9X9X9X9X9X9X9X9X9X9X9X9X9X9X",
"9X9X9X9X9X9X9X9X9X9X9X9X9X9X9X9X9X9X9X9X9X9X9X9X9X9X9X9X9X9X9X9X9X9X9X9X9X9X9X9X9X9X9X9X",
"9X9X9X9X9X9X9X9X9X9X9X9X9X9X9X9X9X9X9X9X9X9X9X9X9X9X9X9X9X9X9X9X9X9X9X9X9X9X9X9X9X9X9X9X",
"9X9X9X9X9X9X9X9X9X9X9X9X9X9X9X9X9X9X9X9X9X9X9X9X9X9X9X9X9X9X9X9X9X9X9X9X9X9X9X9X9X9X9X9X",
"9X9X9X9X9X9X9X9X9X9X9X9X9X9X9X9X9X9X9X9X9X9X9X9X9X9X9X9X9X9X9X9X9X9X9X9X9X9X9X9X9X9X9X9X",
"9X9X9X9X9X9X9X9X9X9X9X9X9X9X9X9X9X9X9X9X9X9X9X9X9X9X9X9X9X9X9X9X9X9X9X9X9X9X9X9X9X9X9X9X",
"9X9X9X9X9X9X9X9X9X9X9X9X9X9X9X9X9X9X9X9X9X9X9X9X9X9X9X9X9X9X9X9X9X9X9X9X9X9X9X9X9X9X9X9X",
"9X9X9X9X9X9X9X9X9X9X9X9X9X9X9X9X9X9X9XH H K G K K 9X9X9X9X9X9X9X9X9X9X9X9X9X9X9X9X9X9X9X",
"9X9X9X9X9X9X9X9X9X9X9X9X9X9X9X9XK K K K K K K K K K K H 9X9X9X9X9X9X9X9X9X9X9X9X9X9X9X9X",
"9X9X9X9X9X9X9X9X9X9X9X9X9X9XJ K K K K K K K K K K K K K K J 9X9X9X9X9X9X9X9X9X9X9X9X9X9X",
"9X9X9X9X9X9X9X9X9X9X9X9X9XK K K K K K K K { C.R.P.k.W K K K K 9X9X9X9X9X9X9X9X9X9X9X9X9X",
"9X9X9X9X9X9X9X9X9X9X9X9XK K K K K K K K / I.7X7X7X,Xm.F K K K J 9X9X9X9X9X9X9X9X9X9X9X9X",
"9X9X9X9X9X9X9X9X9X9X9XK K K D z x K K K b.3X7X7X7X7XOXo.K K K K J 9X9X9X9X9X9X9X9X9X9X9X",
"9X9X9X9X9X9X9X9X9X9XK K K F c.}.[.x.F K D.7X7X7X7X7X5Xf.K K K K K V 9X9X9X9X9X9X9X9X9X9X",
"9X9X9X9X9X9X9X9X9XK K K K s.$X7X7XOX] K Z.5X7X7X7X7X=X7.K K K K K K k 9X9X9X9X9X9X9X9X9X",
"9X9X9X9X9X9X9X9XK K K K K l.,X7X7X-Xd.K  .|.7X7X7X5XK.T K Y } ..( K K u 9X9X9X9X9X9X9X9X",
"9X9X9X9X9X9X9XD K K K K K I ^.5X5XT.n K J 9.~.*X#XG._ K ) A.oX;X/.g.K N 2 9X9X9X9X9X9X9X",
"9X9X9X9X9X9X9XK K K K K K K ` y.t.~ K K K V s w r h K Y S.7X7X7X7XXXX.K y 9X9X9X9X9X9X9X",
"9X9X9X9X9X9XK K K K K K K K J m m K K K K K K K K K K ' OX7X7X7X7X5XB.K g > 9X9X9X9X9X9X",
"9X9X9X9X9X9XK K K D j.M.a.D K K K K K K K K K K K K K [ &X7X7X7X7X7XF.K N < 9X9X9X9X9X9X",
"9X9X9X9X9X9XK K E H.>X4X+Xz.F K K K K K K W ^ E K K K / Q.7X7X7X7X2Xw.K V 6 < 9X9X9X9X9X",
"9X9X9X9X9XK K K h.<X7X7X7X`.) K K K K R V.OX:X{.v.K K K 8._.5X6X1Xi.U K B 3 , 9X9X9X9X9X",
"9X9X9X9X9XK K K n.4X7X7X7XOX+.K K K D N.2X7X7X7X:Xx.K K Z Q r.p.0.l K K j , , 9X9X9X9X9X",
"9X9X9X9X9XJ K K O.%X7X7X7XY.J K K K z ].7X7X7X7X7XW.v K K K m j C K K K t , , 9X9X9X9X9X",
"9X9X9X9X9X9XK K J e.).@X!.@.K K K K p  X7X7X7X7X7X'.c K K K K K K K K j , , < 9X9X9X9X9X",
"9X9X9X9X9X9XK K K M q ! i J K K K K v E.7X7X7X7X8XL.A K K K K K K K b 5 , , 9X9X9X9X9X9X",
"9X9X9X9X9X9X9XK K K K J K K K K K K K q..X7X7X7X(.$.K K K K K K K m 6 , , 9X9X9X9X9X9X9X",
"9X9X9X9X9X9X9X9XN K K K K K K K K K K V #.J.U.u.| S K K K K K J d 3 , , : 9X9X9X9X9X9X9X",
"9X9X9X9X9X9X9X9X9Xa B K K K K K K K K K J h d j J K K K K J j 9 , , , ; 9X9X9X9X9X9X9X9X",
"9X9X9X9X9X9X9X9X9X9X8 u j V K K K K K K K K K K K K J N d e , , , , 9X9X9X9X9X9X9X9X9X9X",
"9X9X9X9X9X9X9X9X9X9X9X9X, 6 y f k N B B V B N N h s 0 < , , , , 9X9X9X9X9X9X9X9X9X9X9X9X",
"9X9X9X9X9X9X9X9X9X9X9X9X9X9X, 7 > < 1 4 6 3 < , , , , , , < 9X9X9X9X9X9X9X9X9X9X9X9X9X9X",
"9X9X9X9X9X9X9X9X9X9X9X9X9X9X9X9X:.>.$ L * # % = & P - 9X9X9X9X9X9X9X9X9X9X9X9X9X9X9X9X9X",
"9X9X9X9X9X9X9X9X9X9X9X9X9X9X9X9XO 6.o 1.&.9X;.,.%.5.  9X9X9X9X9X9X9X9X9X9X9X9X9X9X9X9X9X",
"9X9X9X9X9X9X9X9X9X9X9X9X9X9X9X9X9X4.-.2.*.9X-.4.3.-.9X9X9X9X9X9X9X9X9X9X9X9X9X9X9X9X9X9X",
"9X9X9X9X9X9X9X9X9X9X9X9X9X9X9X9X9X@ 4.4.2.9X<.6.6.+ 9X9X9X9X9X9X9X9X9X9X9X9X9X9X9X9X9X9X",
"9X9X9X9X9X9X9X9X9X9X9X9X9X9X9X9X9XX 6.6.6.6.6.6.6.. 9X9X9X9X9X9X9X9X9X9X9X9X9X9X9X9X9X9X",
"9X9X9X9X9X9X9X9X9X9X9X9X9X9X9X9X9X9X+ =.=.=.=.=.+ 9X9X9X9X9X9X9X9X9X9X9X9X9X9X9X9X9X9X9X",
"9X9X9X9X9X9X9X9X9X9X9X9X9X9X9X9X9X9X9X9X9X9X9X9X9X9X9X9X9X9X9X9X9X9X9X9X9X9X9X9X9X9X9X9X",
"9X9X9X9X9X9X9X9X9X9X9X9X9X9X9X9X9X9X9X9X9X9X9X9X9X9X9X9X9X9X9X9X9X9X9X9X9X9X9X9X9X9X9X9X",
"9X9X9X9X9X9X9X9X9X9X9X9X9X9X9X9X9X9X9X9X9X9X9X9X9X9X9X9X9X9X9X9X9X9X9X9X9X9X9X9X9X9X9X9X",
"9X9X9X9X9X9X9X9X9X9X9X9X9X9X9X9X9X9X9X9X9X9X9X9X9X9X9X9X9X9X9X9X9X9X9X9X9X9X9X9X9X9X9X9X",
"9X9X9X9X9X9X9X9X9X9X9X9X9X9X9X9X9X9X9X9X9X9X9X9X9X9X9X9X9X9X9X9X9X9X9X9X9X9X9X9X9X9X9X9X",
"9X9X9X9X9X9X9X9X9X9X9X9X9X9X9X9X9X9X9X9X9X9X9X9X9X9X9X9X9X9X9X9X9X9X9X9X9X9X9X9X9X9X9X9X"
};
