/* XPM */
static char *_669380833729[] = {
/* columns rows colors chars-per-pixel */
"50 50 209 2 ",
"   c black",
".  c gray5",
"X  c gray11",
"o  c #222222",
"O  c #2A2A2A",
"+  c gray18",
"@  c #323232",
"#  c #353535",
"$  c gray23",
"%  c gray24",
"&  c gray25",
"*  c gray26",
"=  c gray28",
"-  c #494949",
";  c #4B4B4B",
":  c #515151",
">  c #535353",
",  c #555555",
"<  c #5A5A5A",
"1  c #5D5D5D",
"2  c #5F5F5F",
"3  c #606060",
"4  c gray39",
"5  c #656565",
"6  c #6A6A6A",
"7  c #6D6D6D",
"8  c gray43",
"9  c #727272",
"0  c gray45",
"q  c gray46",
"w  c #767676",
"e  c #797979",
"r  c gray48",
"t  c gray49",
"y  c #7E7E7E",
"u  c gray50",
"i  c #808080",
"p  c #838383",
"a  c gray52",
"s  c gray53",
"d  c #898989",
"f  c gray54",
"g  c gray55",
"h  c #8D8D8D",
"j  c gray58",
"k  c gray60",
"l  c #9D9D9D",
"z  c gray62",
"x  c gray63",
"c  c #A4A4A4",
"v  c #A5A5A5",
"b  c #AAAAAA",
"n  c gray69",
"m  c #B1B1B1",
"M  c #B2B2B2",
"N  c #B4B4B4",
"B  c #B6B6B6",
"V  c #B7B7B7",
"C  c #BBBBBB",
"Z  c gray74",
"A  c #BDBEC5",
"S  c #BDBFC5",
"D  c #BEBFC5",
"F  c #BFBFC5",
"G  c #BEBFC6",
"H  c #BFBFC6",
"J  c #BFC0C5",
"K  c #BFC0C6",
"L  c #BFC1C6",
"P  c #BFC0C7",
"I  c #C0C1C6",
"U  c #C0C1C7",
"Y  c #C1C1C7",
"T  c gray77",
"R  c #C5C5C5",
"E  c gray78",
"W  c #C1C2C8",
"Q  c #C2C3C8",
"!  c #C2C3C9",
"~  c #C3C4C9",
"^  c #C3C4CA",
"/  c #C4C4CA",
"(  c #C4C5CA",
")  c #C4C5CB",
"_  c #C5C5CB",
"`  c #C5C6CB",
"'  c #C5C6CC",
"]  c #C6C7CC",
"[  c #C6C7CD",
"{  c #C7C8CD",
"}  c #CACACA",
"|  c #CBCBCB",
" . c #C8C9CE",
".. c #C9CACF",
"X. c #CACACF",
"o. c gray80",
"O. c #CDCDCD",
"+. c #CECECE",
"@. c #CACBD0",
"#. c #CBCBD0",
"$. c #CBCCD1",
"%. c #CCCCD1",
"&. c #CCCDD1",
"*. c #CDCDD2",
"=. c #CDCED2",
"-. c #CECED3",
";. c #CECFD3",
":. c #CECFD4",
">. c #CFCFD4",
",. c #CFD0D4",
"<. c gray82",
"1. c LightGray",
"2. c #D0D0D5",
"3. c #D1D1D6",
"4. c #D1D2D6",
"5. c #D2D2D7",
"6. c #D2D3D7",
"7. c gray83",
"8. c gray84",
"9. c #D7D7D7",
"0. c #D3D3D8",
"q. c #D3D4D8",
"w. c #D5D5D9",
"e. c #D5D5DA",
"r. c #D5D6DA",
"t. c #D6D6DA",
"y. c #D6D7DA",
"u. c #D7D7DB",
"i. c #D8D8D8",
"p. c #DADADA",
"a. c #D8D8DC",
"s. c #D9D9DC",
"d. c #D9D9DD",
"f. c #D9DADE",
"g. c #DADADE",
"h. c #DBDBDF",
"j. c #DBDCDF",
"k. c #DCDCDF",
"l. c #DFDFDF",
"z. c #DBDCE0",
"x. c #DCDDE0",
"c. c #DFDFE2",
"v. c #DFE0E2",
"b. c gray88",
"n. c #E1E1E1",
"m. c #E0E0E3",
"M. c #E0E1E3",
"N. c gray89",
"B. c #E2E2E5",
"V. c #E3E3E6",
"C. c #E3E4E6",
"Z. c #E4E4E4",
"A. c gray90",
"S. c #E4E4E7",
"D. c #E4E5E7",
"F. c #E6E6E6",
"G. c #E5E5E8",
"H. c #E5E6E8",
"J. c #E6E6E8",
"K. c #E7E8EA",
"L. c gray91",
"P. c #E9E9E9",
"I. c #E9E9EB",
"U. c #EAEAEA",
"Y. c gray92",
"T. c #E9EAEC",
"R. c #EAEAEC",
"E. c #EAEBEC",
"W. c #EAEAED",
"Q. c #EAEBED",
"!. c #EBEBED",
"~. c #ECECEC",
"^. c gray93",
"/. c #ECECEE",
"(. c #EDEDEF",
"). c #EEEEEE",
"_. c #EFEFEF",
"`. c #EEEEF0",
"'. c gray94",
"]. c #F1F1F1",
"[. c #F1F1F3",
"{. c #F1F2F3",
"}. c #F2F2F3",
"|. c #F3F3F3",
" X c #F3F3F4",
".X c #F4F4F4",
"XX c #F4F4F6",
"oX c #F5F5F6",
"OX c #F6F6F6",
"+X c #F6F6F7",
"@X c gray97",
"#X c #F6F6F8",
"$X c #F7F7F8",
"%X c #F8F8F8",
"&X c #F8F8F9",
"*X c #F9F9F9",
"=X c #F9F9FA",
"-X c gray98",
";X c #FAFAFB",
":X c #FAFBFB",
">X c #FBFBFB",
",X c #FBFBFC",
"<X c gray99",
"1X c #FCFCFD",
"2X c #FDFDFD",
"3X c #FDFDFE",
"4X c #FEFEFE",
"5X c white",
"6X c None",
/* pixels */
"6X6X6X6X6X6X6X6X6X6X6X6X6X6X6X6X6X6X6X6X6X6X6X6X6X6X6X6X6X6X6X6X6X6X6X6X6X6X6X6X6X6X6X6X6X6X6X6X6X6X",
"6X6X6X6X6X6X6X6X6X6X6X6X6X6X6X6X6X6X6X6X6X6X6X6X6X6X6X6X6X6X6X6X6X6X6X6X6X6X6X6X6X6X6X6X6X6X6X6X6X6X",
"6X6X6X6X6X6X6X6X6X6X6X6X6X6X6X6X6X6X6XK K K K K K L K K K K J 6X6X6X6X6X6X6X6X6X6X6X6X6X6X6X6X6X6X6X",
"6X6X6X6X6X6X6X6X6X6X6X6X6X6X6X6XK K G !  .#.;.>.e.f.4.>.%.X.) U K K 6X6X6X6X6X6X6X6X6X6X6X6X6X6X6X6X",
"6X6X6X6X6X6X6X6X6X6X6X6X6X6XK D W 3.c.Q.oX=X5X5X5X5X5X5X,X$X`.G.t.] D K 6X6X6X6X6X6X6X6X6X6X6X6X6X6X",
"6X6X6X6X6X6X6X6X6X6X6X6XK K W a.XX;X4X5X5X5X5X5X5X5X5X5X5X5X5X5X<X&XH.` I K 6X6X6X6X6X6X6X6X6X6X6X6X",
"6X6X6X6X6X6X6X6X6X6X6XK / w.}.5X5X5X5X5X5X5X5X5X5X5X5X5X5X5X5X5X5X5X5X;Xx.{ K K 6X6X6X6X6X6X6X6X6X6X",
"6X6X6X6X6X6X6X6X6X6XK ] !.4X5X5X5X5X5X5X5X5X5X5X5X5X5X5X5X5X5X5X5X5X5X5X5X X5.D K 6X6X6X6X6X6X6X6X6X",
"6X6X6X6X6X6X6X6XJ K *.oX5X5X5X5X5X5X5X5X5X5X5X5X5X5X5X5X5X5X5X5X5X5X5X5X5X5X;Xh.Y J 6X6X6X6X6X6X6X6X",
"6X6X6X6X6X6X6XJ K r.>X5X5X5X5X5X5X5X5X5X5X5X5X5X5X5X5X5X5X5X5X5X5X5X5X5X5X5X5X5XS.Q J 6X6X6X6X6X6X6X",
"6X6X6X6X6X6X6XK >.,X5X5X5X5X5X5X5X5X5X5X5X5X5X5X5X5X5X5X5X5X5X5X5X5X5X5X5X5X5X5X4XJ.K J 6X6X6X6X6X6X",
"6X6X6X6X6X6XK -.:X5X5X5X5X5X5X5X5X5X5X5X5X5X5X5X5X5X5X5X5X5X5X5X5X5X5X5X5X5X5X5X5X4Xm.I K 6X6X6X6X6X",
"6X6X6X6X6XK { +X5X5X5X5X5X5X5X5X5X5X5X5X5X5X5X5X5X5X5X5XP.| N b M +.@X5X5X5X5X5X5X5X1Xq.D 6X6X6X6X6X",
"6X6X6X6X6XK I.5X5X5X5X5X5X5X5X5X5X<X4 5 7.5X5X5X2X5X5Xk : $ X   X % 6 N.5X5X5X5X5X5X5X*X{ K 6X6X6X6X",
"6X6X6X6XK -.1X5X5X5X5X5X5X5X5X5X5X>X  . O.5X5X5X5X5X5X3 . 3 y a r *   1 '.5X5X5X5X5X5X5XV.K 6X6X6X6X",
"6X6X6X6XI !.5X5X5X5X5X5X5X5X5X5X5X>X    | 5X5X5X5X5X5Xi C A.*X5X@X+.=   z 5X5X5X5X5X5X5X1X..J 6X6X6X",
"6X6X6XK 2.4X5X5X5X5X5X5X5X5X5X5X5X5XU.U.@X5X5X5X5X5X5X].2X5X5X5X5X4Xc   > OX5X5X5X5X5X5X5X!.P 6X6X6X",
"6X6X6XK !.5X5X5X5X5X5X5X5X5X5X5X5X5X5X5X5X5X5X5X5X5X5X5X5X5X5X5X5X5X7.  & ^.5X5X5X5X5X5X5X%X_ K 6X6X",
"6X6X6X( $X5X5X5X5X5X5X5X5X5X5X5X5X5X5X5X5X5X5X5X5X5X5X5X5X5X5X5X5X5Xp.  % ~.5X5X5X5X5X5X5X4X,.K 6X6X",
"6X6XK @.2X5X5X5X5X5X5X5X5X5X5X5X5X5Xc d N.5X5X5X5X5X5X5X5X5X5X5X5X5XR   - ].5X5X5X5X5X5X5X5XG.D 6X6X",
"6X6XJ k.5X5X5X5X5X5X5X5X5X5X5X5X5X5X9 X i.5X5X5X5X5X5X5X5X5X5X5X5X<Xf   6 2X5X5X5X5X5X5X5X5X}.D 6X6X",
"6X6XD !.5X5X5X5X5X5X5X5X5X5X5X5X5X5X0 X i.5X5X5X5X5X5X5X5X5X5X5X5Xi.#   } 5X5X5X5X5X5X5X5X5X4XA 6X6X",
"6X6XD [.5X5X5X5X5X5X5X5X5X5X5X5X5Xl.* X i.5X5X5X5X5X5X5X5X5X5X5XN.2   u *X5X5X5X5X5X5X5X5X5X4XQ 6X6X",
"6X6XD ;X5X5X5X5X5X5X5X5X5X5X5X2XO.- . , L.5X5X5X5X5X5X5X5X5X2Xi.: . , U.5X5X5X5X5X5X5X5X5X5X4X[ G 6X",
"6X6XK 4X5X5X5X5X5X5X5X5X5X5X4XT o   g ~.5X5X5X5X5X5X5X5X5X5XT @   e F.5X5X5X5X5X5X5X5X5X5X5X4X[ G 6X",
"6X6X' 4X5X5X5X5X5X5X5X5X5X5X7.@ . v .X5X5X5X5X5X5X5X5X5X5X5X1   j ^.5X5X5X5X5X5X5X5X5X5X5X5X4X! 6X6X",
"6X6X! 4X5X5X5X5X5X5X5X5X5X-Xq   u %X5X5X5X5X5X5X5X5X5X5X5X5X3   <.5X5X5X5X5X5X5X5X5X5X5X5X5X3XD 6X6X",
"6X6XA 2X5X5X5X5X5X5X5X5X5Xn.  O L.5X5X5X5X5X5X5X5X5X5X5X5X5X3   7.5X5X5X5X5X5X5X5X5X5X5X5X5XoXD 6X6X",
"6X6XD XX5X5X5X5X5X5X5X5X5Xn   8 -X5X5X5X5X5X5X5X5X5X5X5X5X5X<   1.5X5X5X5X5X5X5X5X5X5X5X5X5XB.D 6X6X",
"6X6XD W.5X5X5X5X5X5X5X5X5Xj   p <X5X5X5X5X5X5X5X5X5X5X5X5X5X~.U.%X5X5X5X5X5X5X5X5X5X5X5X5X4X=.K 6X6X",
"6X6XD y.5X5X5X5X5X5X5X5X5Xl   r >X5X5X5X5X5X4X5X5X5X5X5X5X5X5X5X5X5X5X5X5X5X5X5X5X5X5X5X5X%X( K 6X6X",
"6X6XK ..<X5X5X5X5X5X5X5X5XE   = U.5X5X5X5X5XU.).5X5X5X5X5X5X5X5X5X5X5X5X5X5X5X5X5X5X5X5X5XC.K 6X6X6X",
"6X6X6X^ @X5X5X5X5X5X5X5X5X|.;   w p.-X%XZ.m 7 8.5X5X5X5X5X4Xh s o.5X5X5X5X5X5X5X5X5X5X5X@XW D 6X6X6X",
"6X6X6XK (.5X5X5X5X5X5X5X5X4XZ #   + % % # X X 9.5X5X5X5X5X4X@   V 5X5X5X5X5X5X5X5X5X5X4Xr.K 6X6X6X6X",
"6X6X6XG u.5X5X5X5X5X5X5X5X5X4XR t &     * q x Y.5X4X5X5X5X4Xo   B 5X5X5X5X5X5X5X5X5X5XD.U H 6X6X6X6X",
"6X6X6XH ~ 5X5X5X5X5X5X5X5X5X5X5X_.b.p.p.b.^.2X5X-X5X5X5X5X5Xp.i.~.5X5X5X5X5X5X5X5X4XR.Q G 6X6X6X6X6X",
"6X6X6X6XK =X5X5X5X5X5X5X5X5X5X5X5X5X5X5X5X5X5X5X5X5X5X5X5X5X5X5X5X5X5X5X5X5X5X5X5XK.! K 6X6X6X6X6X6X",
"6X6X6X6XK #X5X5X5X5X5X5X5X5X5X5X5X5X5X5X5X5X5X5X5X5X5X5X5X5X5X5X5X5X5X5X5X5X5X-Xj.~ G 6X6X6X6X6X6X6X",
"6X6X6X6XK #X5X5X5X5X5X5X5X5X5X5X5X5X5X5X5X5X5X5X5X5X5X5X5X5X5X5X5X5X5X5X5X2X}.&.U G 6X6X6X6X6X6X6X6X",
"6X6X6X6XK +X5X5X5X5X5X5X5X5X5X5X5X5X5X5X5X5X5X5X5X5X5X5X5X5X5X5X5X5X5X;X/.g.U G G 6X6X6X6X6X6X6X6X6X",
"6X6X6X6XU 4X5X5X5X5X5X5X5X5X5X5X5X5X5X5X5X5X5X5X5X5X5X5X5X5X5X5X2X{.v.=.! G H 6X6X6X6X6X6X6X6X6X6X6X",
"6X6X6XH U 5X5X5X1X$Xv.;.^ Q Q Q Q *.:.z.x.T.Q.$X$X$X$X+XE.T.M.6.! W U K H 6X6X6X6X6X6X6X6X6X6X6X6X6X",
"6X6X6XF [ 5X5X}.s.W D F K K K K K F D D D D D A A A A S D D D D K K 6X6X6X6X6X6X6X6X6X6X6X6X6X6X6X6X",
"6X6X6XG $.5XC.] G H 6X6X6X6X6X6X6X6X6X6X6X6X6X6XF F H 6X6X6X6X6X6X6X6X6X6X6X6X6X6X6X6X6X6X6X6X6X6X6X",
"6X6X6XG 0.d.U G 6X6X6X6X6X6X6X6X6X6X6X6X6X6X6X6X6X6X6X6X6X6X6X6X6X6X6X6X6X6X6X6X6X6X6X6X6X6X6X6X6X6X",
"6X6X6XK ( D K 6X6X6X6X6X6X6X6X6X6X6X6X6X6X6X6X6X6X6X6X6X6X6X6X6X6X6X6X6X6X6X6X6X6X6X6X6X6X6X6X6X6X6X",
"6X6X6XK K G 6X6X6X6X6X6X6X6X6X6X6X6X6X6X6X6X6X6X6X6X6X6X6X6X6X6X6X6X6X6X6X6X6X6X6X6X6X6X6X6X6X6X6X6X",
"6X6X6XK H 6X6X6X6X6X6X6X6X6X6X6X6X6X6X6X6X6X6X6X6X6X6X6X6X6X6X6X6X6X6X6X6X6X6X6X6X6X6X6X6X6X6X6X6X6X",
"6X6X6XK 6X6X6X6X6X6X6X6X6X6X6X6X6X6X6X6X6X6X6X6X6X6X6X6X6X6X6X6X6X6X6X6X6X6X6X6X6X6X6X6X6X6X6X6X6X6X",
"6X6X6X6X6X6X6X6X6X6X6X6X6X6X6X6X6X6X6X6X6X6X6X6X6X6X6X6X6X6X6X6X6X6X6X6X6X6X6X6X6X6X6X6X6X6X6X6X6X6X"
};
