/* XPM */
static char *_27855457a134ef3aa346a04ce1ea024KpLPuTSDnuLAWglE[] = {
/* columns rows colors chars-per-pixel */
"50 50 22 1 ",
"  c None",
". c #A27731",
"X c #A47932",
"o c #A77B32",
"O c #AB7E34",
"+ c #AD833C",
"@ c #BF8C3A",
"# c #BF8D3B",
"$ c #C08D3B",
"% c #C18E3B",
"& c #C2903C",
"* c #B89046",
"= c #C69440",
"- c #C79541",
"; c #CE9D48",
": c #CF9E49",
"> c #CF9F49",
", c #D7A750",
"< c #DBAC54",
"1 c #DCAD55",
"2 c #DFAF57",
"3 c #DFB057",
/* pixels */
"              333=%%%%%%%%%%%%%%%%%%%%%           ",
"              333=%%%%%%%%%%%%%%%%%%%%%           ",
"              33,&%%%%%%%%%%%%%%%%%%%%O           ",
"                    <11;%%%%%%                    ",
"                    332>%%%%%%                    ",
"                    332>%%%%%%                    ",
"                    333>%%%%%%                    ",
"                    333>%%%%%%                    ",
"                    322>%%%%%%                    ",
"                    322>%%%%%%                    ",
"                    332>%%%%%%                    ",
"                    332>%%%%%%                    ",
"                    333>%%%%%%                    ",
"                    333>%%%%%%                    ",
"                    332>%%%%%%                    ",
"                    332>%%%%%%                    ",
"                    333>%%%%%%                    ",
"                    333>%%%%%%                    ",
"                    332>%%%%%%                    ",
"                    332>%%%%%%                    ",
"                    333>%%%%%%                    ",
"                    ***+.....X                    ",
"              32,&%%%%%%%%%%%%%%%%%%%%O           ",
"              333=%%%%%%%%%%%%%%%%%%%%%           ",
"              332-%%%%%%%%%%%%%%%%%%%%%           ",
"              333-%%%%%%%%%%%%%%%%%%%%%           ",
"              333=%%%%%%%%%%%%%%%%%%%%#           ",
"              33,&%%%%%%%%%%%%%%%%%%%%O           ",
"                    111>%%%%%%                    ",
"                    331>%%%%%%                    ",
"                    332>%%%%%%                    ",
"                    332>%%%%%%                    ",
"                    332>%%%%%%                    ",
"                    332>%%%%%%                    ",
"                    333>%%%%%%                    ",
"                    333>%%%%%%                    ",
"                    322>%%%%%%                    ",
"                    322>%%%%%%                    ",
"                    332>%%%%%%                    ",
"                    332>%%%%%%                    ",
"                    332>%%%%%%                    ",
"                    332>%%%%%%                    ",
"                    333>%%%%%%                    ",
"                    333>%%%%%%                    ",
"                    332>%%%%%%                    ",
"                    333>%%%%%%                    ",
"                    ***+.....X                    ",
"              32,&%%%%%%%%%%%%%%%%%%%%o           ",
"              333=%%%%%%%%%%%%%%%%%%%%@           ",
"              333-%%%%%%%%%%%%%%%%%%%%%           "
};
