/* XPM */
static char *_6b57db74b5f41c4aea22472d5b2077aC0Ft94kRCtf7LUHa[] = {
/* columns rows colors chars-per-pixel */
"50 50 22 1 ",
"  c None",
". c #A27731",
"X c #A47932",
"o c #A77B32",
"O c #AB7E34",
"+ c #AD833C",
"@ c #BF8C3A",
"# c #BF8D3B",
"$ c #C08D3B",
"% c #C18E3B",
"& c #C2903C",
"* c #B89046",
"= c #C69440",
"- c #C79541",
"; c #CE9D48",
": c #CF9E49",
"> c #CF9F49",
", c #D7A750",
"< c #DBAC54",
"1 c #DCAD55",
"2 c #DFAF57",
"3 c #DFB057",
/* pixels */
"                                                  ",
"                                                  ",
"                                                  ",
"                                                  ",
"                                                  ",
"                                                  ",
"                                                  ",
"                                                  ",
"                                                  ",
"                                                  ",
"                                                  ",
"                                                  ",
"                                                  ",
"                                                  ",
"333                   333333                   333",
"332                   333332                   333",
"33,                   ,3333,                   ,33",
"-=&                   &=-==&                   &==",
"%%%                   %%%%%%                   %%%",
"%%%                   %%%%%%                   %%%",
"%%%*33333333333333333<%%%%%%*33333333333333333<%%%",
"%%%*323333333233333322%%%%%%*33333333333333333<%%%",
"%%%*22222233223233332<%%%%%%*333333333333333332%%%",
"%%%+>>>>>>>>>>>>:::::;%%%%%%+>>>::::::::::::::;#%%",
"%%%.%%%%%%%%%%%%%%%%%%%%%%%%.%%%%%%%%%%%%%%%%%%%%%",
"%%%.%%%%%%%%%%%%%%%%%%%%%%%%.%%%%%%%%%%%%%%%%%%%%%",
"%%%.%%%%%%%%%%%%%%%%%%%%%%%%.%%%%%%%%%%%%%%%%%%%%%",
"%%%.%%%%%%%%%%%%%%%%%%%%%%%%.%%%%%%%%%%%%%%%%%%%%%",
"%%%.%%%%%%%%%%%%%%%%%%%%%%%%.%%%%%%%%%%%%%%%%%%%%%",
"%%%X%%%%%%%%%%%%%%%%%%%%%%%%X%%%%%%%%%%%%%%%%%%%%%",
"%%%                   %%%%%%                   %%%",
"%%%                   %%%%%%                   %%%",
"%%%                   %%%%%%                   %%%",
"%%%                   %%%%%%                   %%%",
"%%%                   %%%%%%                   %%%",
"%%%                   %%%%%%                   %%%",
"%%%                   %%%%%%                   %%%",
"%%%                   #%%%%%                   %%%",
"%%X                   O%%%%O                   O%%",
"                                                  ",
"                                                  ",
"                                                  ",
"                                                  ",
"                                                  ",
"                                                  ",
"                                                  ",
"                                                  ",
"                                                  ",
"                                                  ",
"                                                  "
};
