/* XPM */
static char *_669385639313[] = {
/* columns rows colors chars-per-pixel */
"50 50 31 1 ",
"  c #CE4848",
". c #D24848",
"X c #D15555",
"o c #E14D4D",
"O c #EA5050",
"+ c #EA5454",
"@ c #E97171",
"# c #838383",
"$ c #9A9A9A",
"% c gray63",
"& c #AFAFAF",
"* c #B5A1A1",
"= c #B4B4B4",
"- c gray75",
"; c #DD9D9D",
": c #C1ABAB",
"> c #DDA3A3",
", c #E6A2A2",
"< c #E6A9A9",
"1 c gray79",
"2 c #D5D5D5",
"3 c gray85",
"4 c #DADADA",
"5 c #DFDFDF",
"6 c #E3C8C8",
"7 c #E3DDDD",
"8 c #E1E1E1",
"9 c #E4E4E4",
"0 c #EAEBEB",
"q c white",
"w c None",
/* pixels */
"wwwwwwwwwwwwwwwwwwwwwwwwwwwwwwwwwwwwwwwwwwwwwwwwww",
"wwwwwwwwwwwwwwwwwwwwwwwwqqwwwwwwwwwwwwwwwwwwwwwwww",
"wwwwwwwwwwwwwwwwwwwwwww709:wwwwwwwwwwwwwwwwwwwwwww",
"wwwwwwwwwwwwwwwwwwwwwww@,;XOwwwwwwwwwwwwwwwwwwwwww",
"wwwwwwwwwwwwwwwwwwwwwwwOOo.OOOwwwwwwwwwwwwwwwwwwww",
"wwwwwwwwwwwwwwwwwwwwwwwOOo.OOOOOOwwwwwwwwwwwwwwwww",
"wwwwwwwwwwwwwwwwwwwwwwwOOo.OOOOOOOOwwwwwwwwwwwwwww",
"wwwwwwwwwwwwwwwwwwwwwwwOOo.OOOOOOOOOOwwwwwwwwwwwww",
"wwwwwwwwwwwwwwwwwwwwwwwOOo.OOOOOOOOOOOOwwwwwwwwwww",
"wwwwwwwwwwwwwwwwwwwwwwwOOo.OOOOOOOOOOOOOOwwwwwwwww",
"wwwwwwwwwwwwwwwwwwwwwwwOOo.OOOOOOOOOOOOOOOOOwwwwww",
"wwwwwwwwwwwwwwwwwwwwwwwOOo.OOOOOOOOOOOOOOOOwwwwwww",
"wwwwwwwwwwwwwwwwwwwwwwwOOo.OOOOOOOOOOOOOwwwwwwwwww",
"wwwwwwwwwwwwwwwwwwwwwwwOOo.OOOOOOOOOOwwwwwwwwwwwww",
"wwwwwwwwwwwwwwwwwwwwwwwOOo.OOOOOOOwwwwwwwwwwwwwwww",
"wwwwwwwwwwwwwwwwwwwwwwwOOo.OOOwwwwwwwwwwwwwwwwwwww",
"wwwwwwwwwwwwwwwwwwwwwww+Oo Owwwwwwwwwwwwwwwwwwwwww",
"wwwwwwwwwwwwwwwwwwwwwww6<>*wwwwwwwwwwwwwwwwwwwwwww",
"wwwwwwwwwwwwwwwwwwwwwww883=wwwwwwwwwwwwwwwwwwwwwww",
"wwwwwwwwwwwwwwwwwwwwwww883=wwwwwwwwwwwwwwwwwwwwwww",
"wwwwwwwwwwwwwwwwwwwwwww883=wwwwwwwwwwwwwwwwwwwwwww",
"wwwwwwwwwwwwwwwwwwwwwww883=wwwwwwwwwwwwwwwwwwwwwww",
"wwwwwwwwwwwwwwwwwwwwwww883=wwwwwwwwwwwwwwwwwwwwwww",
"wwwwwwwwwwwwwwwwwwwwwww883=wwwwwwwwwwwwwwwwwwwwwww",
"wwwwwwwwwwwwwwwwwwwwwww883=wwwwwwwwwwwwwwwwwwwwwww",
"wwwwwwwwwwwwwwwwwwwwwww883=wwwwwwwwwwwwwwwwwwwwwww",
"wwwwwwwwwwwwwwwwwwwwwww883=wwwwwwwwwwwwwwwwwwwwwww",
"wwwwwwwwwwwwwwwwwwwwwww883=wwwwwwwwwwwwwwwwwwwwwww",
"wwwwwwwwwwwwwwwwwwwwwww883=wwwwwwwwwwwwwwwwwwwwwww",
"wwwwwwwwwwwwwwwwwwwwwww883=wwwwwwwwwwwwwwwwwwwwwww",
"wwwwwwwwwwwwwwwwwwwwwww883=wwwwwwwwwwwwwwwwwwwwwww",
"wwwwwwwwwwwwwwwwwwwwwww883=wwwwwwwwwwwwwwwwwwwwwww",
"wwwwwwwwwwwwwwwwwwwwwww883=wwwwwwwwwwwwwwwwwwwwwww",
"wwwwwwwwwwwwwwwwwwwwwww883=wwwwwwwwwwwwwwwwwwwwwww",
"wwwwwwwwwwwwwwwwwwwwwww883=wwwwwwwwwwwwwwwwwwwwwww",
"wwwwwwwwwwwwwwwwwwwwwww483&wwwwwwwwwwwwwwwwwwwwwww",
"wwwwwwwwwwwwwwwwwwwwwww183%wwwwwwwwwwwwwwwwwwwwwww",
"wwwwwwwwwwwwwwwwwwwwwww-52$wwwwwwwwwwwwwwwwwwwwwww",
"wwwwwwwwwwwwwwwwwwwwwwwww#wwwwwwwwwwwwwwwwwwwwwwww",
"wwwwwwwwwwwwwwwwwwwwwwwwwwwwwwwwwwwwwwwwwwwwwwwwww",
"wwwwwwwwwwwwwwwwwwwwwwwwwwwwwwwwwwwwwwwwwwwwwwwwww",
"wwwwwwwwwwwwwwwwwwwwwwwwwwwwwwwwwwwwwwwwwwwwwwwwww",
"wwwwwwwwwwwwwwwwwwwwwwwwwwwwwwwwwwwwwwwwwwwwwwwwww",
"wwwwwwwwwwwwwwwwwwwwwwwwwwwwwwwwwwwwwwwwwwwwwwwwww",
"wwwwwwwwwwwwwwwwwwwwwwwwwwwwwwwwwwwwwwwwwwwwwwwwww",
"wwwwwwwwwwwwwwwwwwwwwwwwwwwwwwwwwwwwwwwwwwwwwwwwww",
"wwwwwwwwwwwwwwwwwwwwwwwwwwwwwwwwwwwwwwwwwwwwwwwwww",
"wwwwwwwwwwwwwwwwwwwwwwwwwwwwwwwwwwwwwwwwwwwwwwwwww",
"wwwwwwwwwwwwwwwwwwwwwwwwwwwwwwwwwwwwwwwwwwwwwwwwww",
"wwwwwwwwwwwwwwwwwwwwwwwwwwwwwwwwwwwwwwwwwwwwwwwwww"
};
