/* XPM */
static char *a4b9d6694e2b4fe5b6c578783e6d90681uMwUgkfa8FC2Wio[] = {
/* columns rows colors chars-per-pixel */
"16 16 3 1 ",
"  c #2F5753",
". c #3B7D4F",
"X c #63AB3F",
/* pixels */
"X.XXXXXXXXXXXXXX",
"XXXXXXXXXXX.XXXX",
"XXX.XXXXXXXXXXXX",
"XXXX.X.XXXXXXXXX",
"X.X. .XXXXXXXXXX",
"XX.   ..XXXXXXXX",
"XXXXXXXXXXXXXXXX",
"XXXXXXXXXXXXXX.X",
"XXXXXXXXXXXXXXXX",
"XXXXX.XXXXXXXXXX",
".XXXXXXXXXXXXXXX",
"XXXXXXXXXX.XX.X.",
".X.XXXXXXXXXXX. ",
" .XXXXXXXXXX..  ",
"XXXXXX.XXXXXXXXX",
"XXXXXXXXXXXXXXXX"
};
