/* XPM */
static char *af6daeb88dc246c69fe1c62e5b2ff7a8SaBMw4IUMBzIkgR2[] = {
/* columns rows colors chars-per-pixel */
"50 50 81 1 ",
"  c #2D5353",
". c #2E5853",
"X c #2E5A53",
"o c #2F5D53",
"O c #2F5E53",
"+ c #305853",
"@ c #305953",
"# c #315F52",
"$ c #3D734F",
"% c #3B754F",
"& c #3C754F",
"* c #3C784F",
"= c #3F7A4E",
"- c #3E7D4F",
"; c #306152",
": c #326052",
"> c #326152",
", c #326552",
"< c #336752",
"1 c #326952",
"2 c #366A51",
"3 c #366D51",
"4 c #3A6950",
"5 c #3A6851",
"6 c #3A6A50",
"7 c #396F50",
"8 c #3C6F50",
"9 c #3A7350",
"0 c #3B7450",
"q c #3A7850",
"w c #407B4E",
"e c #417F4E",
"r c #62AA3F",
"t c #63AA3F",
"y c #63AB3F",
"u c #63AC3F",
"i c #64AC3F",
"p c #42814D",
"a c #44824D",
"s c #43864D",
"d c #45864C",
"f c #44874C",
"g c #46874C",
"h c #4A824B",
"j c #4A834B",
"k c #4A844B",
"l c #4B874B",
"z c #46894C",
"x c #478A4C",
"c c #4B894B",
"v c #488A4B",
"b c #4C894A",
"n c #4A8D4B",
"m c #4B8F4A",
"M c #4C8E4A",
"N c #4F9349",
"B c #4C904A",
"V c #529647",
"C c #539647",
"Z c #539847",
"A c #549946",
"S c #549847",
"D c #549947",
"F c #579D45",
"G c #589A45",
"H c #599A45",
"J c #599B45",
"K c #599F44",
"L c #5A9E44",
"P c #509349",
"I c #529648",
"U c #5BA143",
"Y c #5CA343",
"T c #5DA343",
"R c #5FA741",
"E c #5DA442",
"W c #5AA044",
"Q c #60A741",
"! c #61A840",
"~ c #62A940",
"^ c #62AA40",
/* pixels */
"u!KmsvDEiiyyyyyyyyyyyyyyyyyyyyyyyyyuyyyyyyyyyyyyyy",
"y!KNxmDQiiyyyyyyyyyyyyyyyyyyyyyyyy!!!!yyyyyyyyyyyy",
"y!EDIIWQiii^yyyyyyyyyyyyyyyyyyyyy!YKYE!iyyyyyyyyyy",
"y!EYKWE!iii^yyyyyyyyyyyyyyyyyyyyyEFIVKEyyyyyyyyyyy",
"yy!!E!!!y!!!!uuuyyyyyyyyyyyyyyyy!EDNMDEuyiyyyyyyyy",
"yuiy!iiiQEEEQ!yuyyyyyyyyyyyyyyyyuEDNPFEiyyyyyyyyyy",
"yyyyuiiuEKIIWEiiyyyiyyyyyyyyyyyyyEUKKW!!yyyyyyyyyy",
"yyyuuui!YINNDE!^yyyQyyyyyyyyyyyyu!!EQ!!yyyyyyyyyyy",
"yyyyiui!EDNNIFERyyQYYE!uyyyyyyyyyyyyyyyyyyyyyyyyyy",
"yyyyiiiu!WZZNIZWQQYDDKE!yyyyyyyyyyyuuyyyyyyyyyyyyy",
"yyyy!ii!!!EWIMMIYYFNmIW!yyyyyyyyyyyyyyyyyyyyyyyyyy",
"yyyEEE!!!!EZMppMZLDmNIU!uuyyyyyyyyyyyyyyyyyyyyyyyy",
"y!YKDJE!!EDPp09pMCVDDWEyuuyyyyyyyyyyyyyyyyyyyyyyyy",
"y!UIMNFEEDnp0229evVDEEu!yyyyyyyyyyyyyyyyyyyyyyyyyy",
"y!YImMDKKPe92##<$-MDUEEEEyyyyyyyyyyyyyyyyyyyyyyyyy",
"y!EKVVVIna9<#..o<$eMIDDZKE!yyyyyyyyyyyyyyyyyyyyyyy",
"yyyYKFIma02#+++Xo2%pfxxmVUyyyyyyyyyyyyyyyyyyyyyyii",
"yyyy!UIvaq84444448wessfxVUEyyyyyyyyyyyyyyyyyyyyyuy",
"yyyyiYLVMbhhkkhhhklMNNNNZYyyyyyyyyyyyyyyyyyyyuyyuu",
"yyyyyyELKWJJJKJJJJJKLULLYQyyyyyyyyyyyyyyyyyyyyyyuu",
"yyyyyyyQQ^^!!!!!yyyQyYyyyyyyyyyyyyyyyyyyyyyQE!y!yy",
"yyyyyyyy!^i^iiiiyyiiiiiuyyyyyyyyyyyyyyyyyyyYWKYEyy",
"yyyyyyyiiiiiuuuutyyyiuuyyyyyyyyyyyyyyyyyuyQKINVUQy",
"yyyyyyyiiiiiyyyytiyyiyyyyyyyyyyyyyyyyyyyiyEKNmIKyy",
"yyyyyyyyyyyyyyyyyyyyyyyyyyyyyyyyyyyyyyyyuyEUZNZUQy",
"yyyyyyyyyyyyyyyuyyyyyyyyyyyyyyyyyyyyyyyyyyyUUUYtyy",
"yyyyyyyyyyyyyyy!ttyyyyyyyyyyyyyyyyyyyyyyyyyyQyyQyy",
"yyyyyyyyyyyyyyyELKYYyyyyyyyyyyyyyyyyyyyyyyuyyQyyyy",
"iuyyyyyyyyyyyiQKZNZEyyyyyyyyyyyyyyyyyyyyyyyyyuyyyy",
"!!!yyyyyyyyyiiEDNmVEyyyyyyyyyyyyyyyyyyyyyyyyyyyyyy",
"WWE!Qyyyyyyyuy!FNNZEQyyyyyyyyyyyyyyyyyyyyyyyyyyyyy",
"NIZUtyyyyyyyyyRYFWUEyyyyyyyyyyyyuuyyyyyyyuuyyyyyuu",
"sxNKyyyyyyyyyyyQQE!!iyyyyyyyiyyytyyyyyyyyQyyyiityE",
"xmIKYyyyyyyyyyyyyyiuyyyyyyyyiitYUYtQyyyyYYEEtEtYEU",
"DDKYyyiyyyyyyyyyuiyyyyyyyyyyyQELCDKQii!yYZVLUyULZN",
"EEEQyiyiyyyyyyyyyyyyyyyyyyyyi!ECMNFYiiiEJNMDEELNxf",
"YYYyyEEEEQyyyyyyyyyyyyyyyyyyy!YDINLEyuyEKIMIZKNh%*",
"VDLYyQWZFYEyyyyyyyyyyyyyyyyyi!YKZZLQuuytWDVIZIv*32",
"fxIKYYVmNDQiyyyyyyyyyyyyyyyyiy!EYEQyyiyyEEKCNxq9:#",
"*exVLLVmMKEyuyyyyyyyyyyuyyyyuyuyyyyyyQYEYEKNf03#+.",
"13wbNIIIDYtQiyyyyyyyuyiiyyyyyyyyiiyyQYFIDIPk&<#X. ",
"#<7*fNIUYQQyiyyyyyyyyyiiyyyyyyyyiyyyYZNxxbf-w##X..",
"47$efPFEyyiyyyyyiy!EEQ!!yyyyyyyyyyyyEDmxsspw084455",
"hhlbPCEQyiyiyyyyu!EKKKQ!yyyyyyyyyyyyQYVINNNvkhhhhh",
"JJJKLEyyyyyyyyyyi!WINZE!yyyyyyyyyyyyQYEKUULLKJJJJJ",
"!!yQQyEyyyyyyyyiiEDNBIW!yyyyyyyyyyyyyyytQEtQQ^tQQt",
"iiiyyyyyyyyyyyyyi!WINZE!yyyyyyyyyyyyyyuuiiiiiittii",
"yyiiyyyyyyyyyyyy!!QEWEEyyyyyyyyyyyyyyyuuuiyiiiityy",
"yyyyyyyyyyyyyyyyyyQtQtyyyyyyyyyyyyyyyyyyyyyyyyyyyy",
"yyyyyyyyyyyyyyyyyyyyiyyyyyyyyyyyyyyyyyyyyyyyyyyyyy"
};
