/* XPM */
static char *_f617bf1f1b54243e4a46283419b0b0feDRfGOTvpEes4Gcx[] = {
/* columns rows colors chars-per-pixel */
"50 50 28 1 ",
"  c None",
". c #557F20",
"X c #14840B",
"o c #22B516",
"O c #2BB41C",
"+ c #37B019",
"@ c #30B425",
"# c #4EB335",
"$ c #24F212",
"% c #7FB25C",
"& c #67B365",
"* c #838383",
"= c #9A9A9A",
"- c #82A981",
"; c #97B496",
": c gray75",
"> c #C1ABAB",
", c gray79",
"< c #D5D5D5",
"1 c gray85",
"2 c #DADADA",
"3 c #DFDFDF",
"4 c #E3C8C8",
"5 c #E3DDDD",
"6 c #E1E1E1",
"7 c #E4E4E4",
"8 c #EAEBEB",
"9 c white",
/* pixels */
"                                                  ",
"                        99                        ",
"                       587>$                      ",
"                       o#o.$$$                    ",
"                       ooXX$$$$$                  ",
"                       ooXX$$$$$$$$               ",
"                       ooXX$$$$$$$$$              ",
"                       ooXX$$$$$$$$$$$$           ",
"                       ooXX$$$$$$$$$$$$$$         ",
"                       ooXX$$$$$$$$$$$$$$$$       ",
"                       ooXX$$$$$$$$$$$$$$$$$$     ",
"                       ooXX$$$$$$$$$$$$$$$$$$     ",
"                       ooXX$$$$$$$$$$$$$$$        ",
"                       ooXX$$$$$$$$$$$$           ",
"                       ooXX$$$$$$$$$              ",
"                       ooXX$$$$$$                 ",
"                       ooX+$$$                    ",
"                       4%O@                       ",
"                       661;                       ",
"                       661;                       ",
"                       661;                       ",
"                       661;                       ",
"                       661;                       ",
"                       661;                       ",
"                       661;                       ",
"                       661;                       ",
"                       661;                       ",
"                       661;                       ",
"                       661;                       ",
"                       661;                       ",
"                       661;                       ",
"                       661;                       ",
"                       661;                       ",
"                       661;                       ",
"                       661;                       ",
"                       161&                       ",
"                       ,61-                       ",
"                       :6<=                       ",
"                         *                        ",
"                                                  ",
"                                                  ",
"                                                  ",
"                                                  ",
"                                                  ",
"                                                  ",
"                                                  ",
"                                                  ",
"                                                  ",
"                                                  ",
"                                                  "
};
