/* XPM */
static char *_bbed23f920745099fd1efb41570b081dWpnW0b5abV4hJAn[] = {
/* columns rows colors chars-per-pixel */
"50 50 115 2 ",
"   c None",
".  c black",
"X  c #2E1719",
"o  c #2F181A",
"O  c #372132",
"+  c #442737",
"@  c #462938",
"#  c #573033",
"$  c #623851",
"%  c #633851",
"&  c #683A53",
"*  c #6C3B55",
"=  c #713D57",
"-  c #76444F",
";  c #83435F",
":  c #92545E",
">  c #95575C",
",  c #99585E",
"<  c #9A595E",
"1  c #874661",
"2  c #8A4662",
"3  c #894862",
"4  c #944A67",
"5  c #994B68",
"6  c #9B4C6A",
"7  c #9E4E6B",
"8  c #905165",
"9  c #9B586A",
"0  c #A24F6D",
"q  c #A15E63",
"w  c #A6506F",
"e  c #B75777",
"r  c #BC597A",
"t  c #BE5A7A",
"y  c #A86268",
"u  c #AA6369",
"i  c #AB6369",
"p  c #AB646A",
"a  c #AF666C",
"s  c #B0666D",
"d  c #B1676D",
"f  c #B2686E",
"g  c #B86B71",
"h  c #BA6B72",
"j  c #BE6F75",
"k  c #C05B7B",
"l  c #C95E7F",
"z  c #C27178",
"x  c #C57279",
"c  c #C6747B",
"v  c #C7747B",
"b  c #C4727E",
"n  c #C7757C",
"m  c #C9747C",
"M  c #C8757C",
"N  c #CA767D",
"B  c #C8757E",
"V  c #CB777E",
"C  c #CC777E",
"Z  c #CC787F",
"A  c #CD787F",
"S  c #CD6082",
"D  c #CF6183",
"F  c #D56486",
"G  c #D86487",
"H  c #DC6689",
"J  c #C97581",
"K  c #C97582",
"L  c #CE7880",
"P  c #CE7980",
"I  c #CF7980",
"U  c #D17A82",
"Y  c #D37B83",
"T  c #D67D85",
"R  c #D77E85",
"E  c #D87E86",
"W  c #D77D89",
"Q  c #E0688B",
"!  c #E1688C",
"~  c #E3698D",
"^  c #DA8087",
"/  c #DC8188",
"(  c #DC8189",
")  c #DD8189",
"_  c #DE8189",
"`  c #DE828A",
"'  c #DC808C",
"]  c #E0838A",
"[  c #E1848B",
"{  c #E2848C",
"}  c #E4858D",
"|  c #E7878F",
" . c #E88890",
".. c #E98991",
"X. c #EB8992",
"o. c #ED8B93",
"O. c #EE8B94",
"+. c #EF8B94",
"@. c #F08C95",
"#. c #F08D95",
"$. c #F18D96",
"%. c #F38E97",
"&. c #F48E97",
"*. c #F58F98",
"=. c #F8919A",
"-. c #F9919B",
";. c #F9929A",
":. c #F9929B",
">. c #FA929B",
",. c #FB939C",
"<. c #FC939C",
"1. c #FD939D",
"2. c #FD949C",
"3. c #FC949D",
"4. c #FD949D",
/* pixels */
"                                                                                                    ",
"                                                                                                    ",
"                                                                                                    ",
"                                                                                                    ",
"                                                                                                    ",
"                                                                                                    ",
"                                                                                                    ",
"                                                                                                    ",
"                                                                                                    ",
"                                                                                                    ",
"                                                                                                    ",
"                                                4.4.                                                ",
"                                              4.4.4.                                                ",
"                                            4.4.4.4.4.                                              ",
"                                          4.4.4.4.4.4.                                              ",
"                                        4.4.4.4.4.4.4.` [ 4.                                        ",
"                                    4.4.4.4.4.4.4.4.4. .%.4.4.4.4.                                  ",
"                                4.4.4.4.4.4.4.4.4.4.4.;.<.4.4.4.4.4.4.                              ",
"                              4.4.4.4.4.4.4.4.4.4.4.4.4.4.4.4.4.4.4.4.<.                            ",
"                            4.4.4.4.4.4.4.4.4.4.4.4.4.4.4.4.4.4.4.4.4.4.,.                          ",
"                          4.4.4.4.4.4.4.4.4.4.4.4.4.4.4.4.4.4.4.4.4.4.4.4.o.                        ",
"                        4.4.4.4.4.4.4.4.4.4.4.4.4.4.4.4.4.4.4.4.4.4.4.*.*.,.E                       ",
"                      4.4.4.4.4.4.4.4.4.4.4.4.4.4.4.4.4.4.4.4.4.4.4.%.# X `  .                      ",
"                      4.4.4.4.4.4.4.4.4.4.4.4.4.4.4.4.4.4.4.4.4.<.<.{ . . g =.L                     ",
"                    4.4.4.4.4.4.4.4.4.4.4.4.4.4.4.4.4.4.4.4.4.4.4.4. .X . V <.V                     ",
"                    4.4.4.4.4.4.4.4.4.4.4.4.4.4.4.4.4.4.4.4.4.4.4.4.,.x s o.8 4 4 = =               ",
"                    4.4.4.4.4.4.4.4.4.4.4.4.4.4.4.4.4.4.4.4.4.4.4.4.4.,.,.W 0 ~ ! 2 t $             ",
"                    4.4.4.4.4.4.4.4.4.4.4.4.4.4.4.4.4.4.4.4.4.4.4.4.4.4.<.K k ~ D 6 G $             ",
"                    4.4.4.4.4.4.4.4.4.4.4.4.4.4.4.4.4.4.4.4.4.4.4.4.4.4.3.b S ~ S 7 ! $             ",
"                    4.4.4.4.4.4.4.4.4.4.4.4.4.4.4.4.4.4.4.4.4.4.4.4.4.4.4.J r ! D 5 F $             ",
"                    4.4.4.4.4.4.4.4.4.4.4.4.4.4.4.4.4.4.4.4.4.4.4.4.4.4.4.' w H G 1 e $             ",
"                    4.4.4.4.4.4.4.4.4.4.4.4.4.4.4.4.4.4.4.4.4.4.4.4.4.4.4.;.9 2 1 & *               ",
"          4.  4.<.    4.4.4.4.4.4.4.4.4.4.4.4.4.4.4.4.4.4.4.4.4.4.4.4.4.<.;.: @                     ",
"        4.    4.4.    4.4.4.4.4.4.4.4.4.4.4.4.4.4.4.4.4.4.4.4.4.4.4.4.4.;.R O +                     ",
"          4.4.4.      <.4.4.4.4.4.4.4.4.4.4.4.4.4.4.4.4.4.4.4.4.4.4.4.3.] V -                       ",
"              4.    4.  %.4.4.4.4.4.4.4.4.4.4.4.4.4.4.4.4.4.4.4.4.4.;./ V C                         ",
"                4.4.      I *.4.<.4.4.4.4.4.4.4.4.4.4.4.4.4.4.4.4.o.U C V y                         ",
"                            a ` %.<.4.4.4.4.4.4.4.4.4.4.4.4.,. .R V V v <                           ",
"                                g U ` | %.%.;.;.;.=.%.o.{ E I V V V a                               ",
"                                    y z v V A A A A A V A V v j q                                   ",
"                                            < p s s s y >                                           ",
"                                                                                                    ",
"                                                                                                    ",
"                                                                                                    ",
"                                                                                                    ",
"                                                                                                    ",
"                                                                                                    ",
"                                                                                                    ",
"                                                                                                    ",
"                                                                                                    "
};
