/* XPM */
static char *_669379549725[] = {
/* columns rows colors chars-per-pixel */
"50 50 121 2 ",
"   c black",
".  c #010101",
"X  c #1B0D0E",
"o  c #4C292C",
"O  c #4E2E41",
"+  c #5E3749",
"@  c #5F3849",
"#  c #663952",
"$  c #683A53",
"%  c #703C56",
"&  c #783F5A",
"*  c #704251",
"=  c #7B415B",
"-  c #82435E",
";  c #8B515F",
":  c #95575C",
">  c #99585E",
",  c #9A595E",
"<  c #9C595F",
"1  c #854460",
"2  c #874560",
"3  c #8A4662",
"4  c #8B4662",
"5  c #894861",
"6  c #8B4C63",
"7  c #8C4D64",
"8  c #944A67",
"9  c #9C4D6A",
"0  c #9D5A6C",
"q  c #A04E6C",
"w  c #A15E63",
"e  c #A5506E",
"r  c #A25D6E",
"t  c #AA5270",
"y  c #B05474",
"u  c #B55675",
"i  c #B55676",
"p  c #B85777",
"a  c #BA5878",
"s  c #A86268",
"d  c #AA6369",
"f  c #AB6369",
"g  c #AD636A",
"h  c #AB646A",
"j  c #AF666C",
"k  c #B0666D",
"l  c #B1676D",
"z  c #B16772",
"x  c #B86B71",
"c  c #BE6F75",
"v  c #C27077",
"b  c #C27178",
"n  c #C6747B",
"m  c #C7747B",
"M  c #C7757C",
"N  c #C8757C",
"B  c #CA767D",
"V  c #C8757F",
"C  c #CB777E",
"Z  c #CC777E",
"A  c #CD777E",
"S  c #CC787F",
"D  c #CD787F",
"F  c #CA5F81",
"G  c #CC6082",
"H  c #CE6082",
"J  c #CE6182",
"K  c #D26284",
"L  c #DD678A",
"P  c #DF678B",
"I  c #CE7880",
"U  c #CE7980",
"Y  c #CF7980",
"T  c #CF7981",
"R  c #D17A81",
"E  c #D17A82",
"W  c #D27A82",
"Q  c #D27B82",
"!  c #D37B83",
"~  c #D47C84",
"^  c #D77E85",
"/  c #D87E86",
"(  c #DA7F87",
")  c #DB7F8B",
"_  c #E0688C",
"`  c #E3698D",
"'  c #E4698D",
"]  c #DA8087",
"[  c #DC8188",
"{  c #DC8189",
"}  c #DD8189",
"|  c #DD808C",
" . c #E0838A",
".. c #E1838B",
"X. c #E1848C",
"o. c #E2848C",
"O. c #E4858D",
"+. c #E6858E",
"@. c #E6878E",
"#. c #E7878F",
"$. c #E98991",
"%. c #EB8992",
"&. c #ED8A93",
"*. c #ED8B93",
"=. c #EF8B94",
"-. c #F08C95",
";. c #F18C95",
":. c #F18D96",
">. c #F48E97",
",. c #F58F98",
"<. c #F79199",
"1. c #F8919A",
"2. c #F9929A",
"3. c #F9929B",
"4. c #FA929B",
"5. c #FB939C",
"6. c #FC939C",
"7. c #FC949D",
"8. c #FD949D",
"9. c #FE959E",
"0. c None",
/* pixels */
"0.0.0.0.0.0.0.0.0.0.0.0.0.0.0.0.0.0.0.0.0.0.0.0.0.0.0.0.0.0.0.0.0.0.0.0.0.0.0.0.0.0.0.0.0.0.0.0.0.0.",
"0.0.0.0.0.0.0.0.0.0.0.0.0.0.0.0.0.0.0.0.0.0.0.0.0.0.0.0.0.0.0.0.0.0.0.0.0.0.0.0.0.0.0.0.0.0.0.0.0.0.",
"0.0.0.0.0.0.0.0.0.0.0.0.0.0.0.0.0.0.0.0.0.0.0.0.0.0.0.0.0.0.0.0.0.0.0.0.0.0.0.0.0.0.0.0.0.0.0.0.0.0.",
"0.0.0.0.0.0.0.0.0.0.0.0.0.0.0.0.0.0.0.0.0.0.0.0.0.0.0.0.0.0.0.0.0.0.0.0.0.0.0.0.0.0.0.0.0.0.0.0.0.0.",
"0.0.0.0.0.0.0.0.0.0.0.0.0.0.0.0.0.0.0.0.0.0.0.0.0.0.0.0.0.0.0.0.0.0.0.0.0.0.0.0.0.0.0.0.0.0.0.0.0.0.",
"0.0.0.0.0.0.0.0.0.0.0.0.0.0.0.0.0.0.0.0.0.0.0.0.0.0.0.0.0.0.0.0.0.0.0.0.0.0.0.0.0.0.0.0.0.0.0.0.0.0.",
"0.0.0.0.0.0.0.0.0.0.0.0.0.0.0.0.0.0.0.0.0.0.0.0.0.0.0.0.0.0.0.0.0.0.0.0.0.0.0.0.0.0.0.0.0.0.0.0.0.0.",
"0.0.0.0.0.0.0.0.0.0.0.0.0.0.0.0.0.0.0.0.0.0.0.0.0.0.0.0.0.0.0.0.0.0.0.0.0.0.0.0.0.0.0.0.0.0.0.0.0.0.",
"0.0.0.0.0.0.0.0.0.0.0.0.0.0.0.0.0.0.0.0.0.0.0.0.0.0.0.0.0.0.0.0.0.0.0.0.0.0.0.0.0.0.0.0.0.0.0.0.0.0.",
"0.0.0.0.0.0.0.0.0.0.0.0.0.0.0.0.0.0.0.0.0.0.0.0.0.0.0.0.0.0.0.0.0.0.0.0.0.0.0.0.0.0.0.0.0.0.0.0.0.0.",
"0.0.0.0.0.0.0.0.0.0.0.0.0.0.0.0.0.0.0.0.0.0.0.8.0.0.0.0.0.0.0.0.0.0.0.0.0.0.0.0.0.0.0.0.0.0.0.0.0.0.",
"0.0.0.0.0.0.0.0.0.0.0.0.0.0.0.0.0.0.0.0.0.0.0.8.8.0.0.0.0.0.0.0.0.0.0.0.0.0.0.0.0.0.0.0.0.0.0.0.0.0.",
"0.0.0.0.0.0.0.0.0.0.0.0.0.0.0.0.0.0.0.0.0.0.8.8.8.8.0.0.0.0.0.0.0.0.0.0.0.0.0.0.0.0.0.0.0.0.0.0.0.0.",
"0.0.0.0.0.0.0.0.0.0.0.0.0.0.0.0.0.0.0.0.0.0.8.8.8.8.0.0.0.0.0.0.0.0.0.0.0.0.0.0.0.0.0.0.0.0.0.0.0.0.",
"0.0.0.0.0.0.0.0.0.0.0.0.0.0.0.0.0.0.0.0.0.8.8.8.8.8.8.0.0.0.0.0.0.0.0.0.0.0.0.0.0.0.0.0.0.0.0.0.0.0.",
"0.0.0.0.0.0.0.0.0.0.0.0.0.0.0.0.0.0.0.0.0.8.8.8.8.8.8.@.R 4.0.0.0.0.0.0.0.0.0.0.0.0.0.0.0.0.0.0.0.0.",
"0.0.0.0.0.0.0.0.0.0.0.0.0.0.0.0.0.0.8.8.8.8.8.8.8.8.8.,.X.8.8.8.8.0.0.0.0.0.0.0.0.0.0.0.0.0.0.0.0.0.",
"0.0.0.0.0.0.0.0.0.0.0.0.0.0.0.0.8.8.8.8.8.8.8.8.8.8.8.8.2.8.8.8.8.8.8.0.0.0.0.0.0.0.0.0.0.0.0.0.0.0.",
"0.0.0.0.0.0.0.0.0.0.0.0.0.0.0.8.8.8.8.8.8.8.8.8.8.8.8.8.8.8.8.8.8.8.8.6.0.0.0.0.0.0.0.0.0.0.0.0.0.0.",
"0.0.0.0.0.0.0.0.0.0.0.0.0.0.8.8.8.8.8.8.8.8.8.8.8.8.8.8.8.8.8.8.8.8.8.8.1.0.0.0.0.0.0.0.0.0.0.0.0.0.",
"0.0.0.0.0.0.0.0.0.0.0.0.0.8.8.8.8.8.8.8.8.8.8.8.8.8.8.8.8.8.8.8.8.8.8.8.8.=.0.0.0.0.0.0.0.0.0.0.0.0.",
"0.0.0.0.0.0.0.0.0.0.0.0.;.5.8.8.8.8.8.8.8.8.8.8.8.8.8.8.8.8.8.8.8.8.8.8.8.5./ 0.0.0.0.0.0.0.0.0.0.0.",
"0.0.0.0.0.0.0.0.0.0.0.X   v 8.8.8.8.8.8.8.8.8.8.8.8.8.8.8.8.8.8.8.8.8.8.8.8.$.0.0.0.0.0.0.0.0.0.0.0.",
"0.0.0.0.0.0.0.0.0.0.0.    < 8.8.8.8.8.8.8.8.8.8.8.8.8.8.8.8.8.8.8.8.8.8.8.8.1.I 0.0.0.0.0.0.0.0.0.0.",
"0.0.0.0.0.0.0.0.0.0.,.o . g 8.8.8.8.8.8.8.8.8.8.8.8.8.8.8.8.8.8.8.8.8.8.8.8.8.~ 0.0.0.0.0.0.0.0.0.0.",
"0.0.0.0.0.$ % 3 8 - | W f &.8.8.8.8.8.8.8.8.8.8.8.8.8.8.8.8.8.8.8.8.8.8.8.8.8.} Z 0.0.0.0.0.0.0.0.0.",
"0.0.0.0.0.4 p a ' K r 6.2.8.8.8.8.8.8.8.8.8.8.8.8.8.8.8.8.8.8.8.8.8.8.8.8.8.8.o.S 0.0.0.0.0.0.0.0.0.",
"0.0.0.0.0.t G q ` P 7 8.8.8.8.8.8.8.8.8.8.8.8.8.8.8.8.8.8.8.8.8.8.8.8.8.8.8.8.o.Z 0.0.0.0.0.0.0.0.0.",
"0.0.0.0.0.u J 9 ` ' 5 8.8.8.8.8.8.8.8.8.8.8.8.8.8.8.8.8.8.8.8.8.8.8.8.8.8.8.8.} C 0.0.0.0.0.0.0.0.0.",
"0.0.0.0.0.e F q ` L 6 8.8.8.8.8.8.8.8.8.8.8.8.8.8.8.8.8.8.8.8.8.8.8.8.8.8.8.8.Q C 0.0.0.0.0.0.0.0.0.",
"0.0.0.0.0.2 y i _ H 0 8.8.8.8.8.8.8.8.8.8.8.8.8.8.8.8.8.8.8.8.8.8.8.8.8.8.8.,.S S 0.0.0.0.0.0.0.0.0.",
"0.0.0.0.0.# $ = 1 & ) 8.8.8.8.8.8.8.8.8.8.8.8.8.8.8.8.8.8.8.8.8.8.8.8.8.8.8.O.C A 0.0.0.0.0.0.0.0.0.",
"0.0.0.0.0.0.0.0.0.0.; + V 8.8.8.8.8.8.8.8.8.8.8.8.8.8.8.8.8.8.8.8.8.8.8.8.<.T C 0.0.8.0.0.8.0.0.0.0.",
"0.0.0.0.0.0.0.0.0.0.0.O * 9.8.8.8.8.8.8.8.8.8.8.8.8.8.8.8.8.8.8.8.8.8.8.6.( C Z 0.0.8.8.0.8.0.0.0.0.",
"0.0.0.0.0.0.0.0.0.0.0.@ z 8.8.8.8.8.8.8.8.8.8.8.8.8.8.8.8.8.8.8.8.8.8.6. .C S +.0.0.8.8.8.8.0.0.0.0.",
"0.0.0.0.0.0.0.0.0.0.0.0...7.8.8.8.8.8.8.8.8.8.8.8.8.8.8.8.8.8.8.8.8.4.[ C C E 8.0.0.8.0.0.0.0.0.0.0.",
"0.0.0.0.0.0.0.0.0.0.0.0.0.Y ,.8.8.8.8.8.8.8.8.8.8.8.8.8.8.8.8.8.7.*.! C B j 0.0.0.8.0.0.0.0.0.0.0.0.",
"0.0.0.0.0.0.0.0.0.0.0.0.0.0.j { :.5.8.8.8.8.8.8.8.8.8.8.8.8.3.%.^ Z C m > 0.0.0.0.0.0.0.0.0.0.0.0.0.",
"0.0.0.0.0.0.0.0.0.0.0.0.0.0.0.0.x E } #.-.,.2.2.2.1.>.*.O.] U C C N l 0.0.0.0.0.0.0.0.0.0.0.0.0.0.0.",
"0.0.0.0.0.0.0.0.0.0.0.0.0.0.0.0.0.0.d b M Z D D D D S C C B n c w 0.0.0.0.0.0.0.0.0.0.0.0.0.0.0.0.0.",
"0.0.0.0.0.0.0.0.0.0.0.0.0.0.0.0.0.0.0.0.0.0., h k k k s : 0.0.0.0.0.0.0.0.0.0.0.0.0.0.0.0.0.0.0.0.0.",
"0.0.0.0.0.0.0.0.0.0.0.0.0.0.0.0.0.0.0.0.0.0.0.0.0.0.0.0.0.0.0.0.0.0.0.0.0.0.0.0.0.0.0.0.0.0.0.0.0.0.",
"0.0.0.0.0.0.0.0.0.0.0.0.0.0.0.0.0.0.0.0.0.0.0.0.0.0.0.0.0.0.0.0.0.0.0.0.0.0.0.0.0.0.0.0.0.0.0.0.0.0.",
"0.0.0.0.0.0.0.0.0.0.0.0.0.0.0.0.0.0.0.0.0.0.0.0.0.0.0.0.0.0.0.0.0.0.0.0.0.0.0.0.0.0.0.0.0.0.0.0.0.0.",
"0.0.0.0.0.0.0.0.0.0.0.0.0.0.0.0.0.0.0.0.0.0.0.0.0.0.0.0.0.0.0.0.0.0.0.0.0.0.0.0.0.0.0.0.0.0.0.0.0.0.",
"0.0.0.0.0.0.0.0.0.0.0.0.0.0.0.0.0.0.0.0.0.0.0.0.0.0.0.0.0.0.0.0.0.0.0.0.0.0.0.0.0.0.0.0.0.0.0.0.0.0.",
"0.0.0.0.0.0.0.0.0.0.0.0.0.0.0.0.0.0.0.0.0.0.0.0.0.0.0.0.0.0.0.0.0.0.0.0.0.0.0.0.0.0.0.0.0.0.0.0.0.0.",
"0.0.0.0.0.0.0.0.0.0.0.0.0.0.0.0.0.0.0.0.0.0.0.0.0.0.0.0.0.0.0.0.0.0.0.0.0.0.0.0.0.0.0.0.0.0.0.0.0.0.",
"0.0.0.0.0.0.0.0.0.0.0.0.0.0.0.0.0.0.0.0.0.0.0.0.0.0.0.0.0.0.0.0.0.0.0.0.0.0.0.0.0.0.0.0.0.0.0.0.0.0.",
"0.0.0.0.0.0.0.0.0.0.0.0.0.0.0.0.0.0.0.0.0.0.0.0.0.0.0.0.0.0.0.0.0.0.0.0.0.0.0.0.0.0.0.0.0.0.0.0.0.0."
};
