/* XPM */
static char *_fe8973406654367cd72c3520d50588aL5tEVk1pZ34ofwl9[] = {
/* columns rows colors chars-per-pixel */
"50 50 170 2 ",
"   c None",
".  c black",
"X  c #010101",
"o  c #020101",
"O  c #030101",
"+  c #000201",
"@  c #080404",
"#  c #452939",
"$  c #44293D",
"%  c #44293E",
"&  c #472B3F",
"*  c #5E3538",
"=  c #603538",
"-  c #62373B",
";  c #6C3C40",
":  c #61394A",
">  c #6C3E4C",
",  c #623851",
"<  c #633852",
"1  c #693B54",
"2  c #6B3B55",
"3  c #723D58",
"4  c #743E58",
"5  c #773F5A",
"6  c #754350",
"7  c #7A405B",
"8  c #7D445B",
"9  c #7E465C",
"0  c #7E475C",
"q  c #7F475C",
"w  c #7F465D",
"e  c #7E485B",
"r  c #874D52",
"t  c #834C57",
"y  c #81445E",
"u  c #83445F",
"i  c #82475E",
"p  c #83465F",
"a  c #85445F",
"s  c #844B5E",
"d  c #874F5C",
"f  c #8D5156",
"g  c #915358",
"h  c #96565B",
"j  c #95575C",
"k  c #99585E",
"l  c #9A595E",
"z  c #874561",
"x  c #8A4662",
"c  c #8B4762",
"v  c #8C4662",
"b  c #8E4763",
"n  c #8A4D61",
"m  c #894D62",
"M  c #8C4F63",
"N  c #975767",
"B  c #9B5961",
"V  c #9E5C66",
"C  c #A15E63",
"Z  c #A45F66",
"A  c #A7516F",
"S  c #A05D6A",
"D  c #A35E6E",
"F  c #A95270",
"G  c #AB5271",
"H  c #B15574",
"J  c #B25575",
"K  c #B35575",
"L  c #B35675",
"P  c #B45676",
"I  c #B75777",
"U  c #B95878",
"Y  c #BC597A",
"T  c #A86268",
"R  c #AA6369",
"E  c #AB6369",
"W  c #AB646A",
"Q  c #A8626D",
"!  c #A9626E",
"~  c #AF666C",
"^  c #B0666D",
"/  c #B1676D",
"(  c #B86B71",
")  c #BA6C73",
"_  c #BE6F75",
"`  c #BF6F75",
"'  c #C25C7D",
"]  c #C27178",
"[  c #C6747B",
"{  c #C7747B",
"}  c #C7757C",
"|  c #C7747E",
" . c #C8757C",
".. c #CA767D",
"X. c #CA777E",
"o. c #CB777E",
"O. c #CC777E",
"+. c #CD777E",
"@. c #CC787E",
"#. c #CC787F",
"$. c #CD787F",
"%. c #CA5F81",
"&. c #CC5F82",
"*. c #D16284",
"=. c #D26284",
"-. c #D66486",
";. c #D76487",
":. c #DD678A",
">. c #DE678B",
",. c #DF688B",
"<. c #CE7880",
"1. c #CE7980",
"2. c #CF7980",
"3. c #CF7981",
"4. c #D07982",
"5. c #D17A82",
"6. c #D27B82",
"7. c #D37B83",
"8. c #D47C84",
"9. c #D77E85",
"0. c #DA7F87",
"q. c #E3698D",
"w. c #E4698D",
"e. c #DA8087",
"r. c #DC8088",
"t. c #DC8188",
"y. c #DC8089",
"u. c #DC8189",
"i. c #DD8189",
"p. c #DC808A",
"a. c #DF828D",
"s. c #E0838A",
"d. c #E1838B",
"f. c #E2848C",
"g. c #E3848D",
"h. c #E4858D",
"j. c #E4858E",
"k. c #E7878F",
"l. c #EA8891",
"z. c #EB8992",
"x. c #ED8B93",
"c. c #ED8B94",
"v. c #EF8C95",
"b. c #EF8C96",
"n. c #F08C95",
"m. c #F08D95",
"M. c #F18D96",
"N. c #F28D96",
"B. c #F28E96",
"V. c #F38E97",
"C. c #F48E97",
"Z. c #F58F98",
"A. c #F69099",
"S. c #F79099",
"D. c #F79199",
"F. c #F7919A",
"G. c #F8919A",
"H. c #F9919A",
"J. c #F9919B",
"K. c #F9929A",
"L. c #F9929B",
"P. c #FA929B",
"I. c #FB939B",
"U. c #FB939C",
"Y. c #FC939C",
"T. c #FC949D",
"R. c #FD949D",
"E. c #FE949D",
"W. c #FE949E",
"Q. c #FE959E",
/* pixels */
"                                                                                                    ",
"                                                                                                    ",
"                                                                                                    ",
"                                                                                                    ",
"                                                                                                    ",
"                                                                                                    ",
"                                                                                                    ",
"                                                                                                    ",
"                                                                                                    ",
"                                                                                                    ",
"                                                                                                    ",
"                                                                                                    ",
"                                                                                                    ",
"                                                                                                    ",
"                      R.R.R.                                              R.R.R.                    ",
"                      R.R.R.R.            R.R.R.R.R.R.R.R.R.          R.R.R.R.R.                    ",
"                      R.R.R.R.R.R.  R.R.R.R.R.R.R.R.R.R.R.R.R.R.R.  R.R.R.R.R.R.                    ",
"                      R.R.R.R.R.R.R.R.R.R.R.R.R.R.R.R.R.R.R.R.R.R.R.R.R.R.R.R.R.                    ",
"                      R.R.R.R.R.R.R.R.R.R.R.R.R.R.R.R.R.R.R.R.R.R.R.R.R.R.R.R.                      ",
"                      R.R.R.R.R.R.R.R.R.R.R.R.R.R.R.R.R.R.R.R.R.R.R.R.R.R.R.R.                      ",
"                        R.R.R.R.R.R.R.R.R.R.R.R.R.R.R.R.R.R.R.R.R.R.R.R.R.R.R.                      ",
"                        R.R.R.R.R.R.R.R.P.N.N.R.R.R.R.I.N.N.R.R.R.R.R.R.R.R.C.                      ",
"                      R.R.R.R.R.R.R.R.P.g . @ ` R.R.T.h . . ) R.R.R.R.R.R.R.z.                      ",
"                      R.R.R.R.R.R.R.R.A.. . . ; R.R.P.. . . = R.R.R.R.R.R.R.P.$.                    ",
"                    R.R.R.R.R.R.R.R.R.P.= . . f R.T.P.= . . r Q.R.R.R.R.R.R.R.8.                    ",
"                    R.R.R.R.R.R.R.R.R.R.f.B > w p c p e 6 T z.R.R.R.R.R.R.R.R.p.$.                  ",
"                    R.R.R.R.R.R.R.R.R.R.a.i K -.,.q.:.*.F M b.T.R.R.R.R.R.R.R.f.$.                  ",
"                    R.R.R.R.R.R.R.R.R.P.m Y 7 3 &.q.U 2 x K D T.R.R.R.R.R.R.R.f.O.                  ",
"                    R.R.R.R.R.R.R.R.R.A.v K < < F q.u < < ' m R.R.R.R.R.R.R.R.p...                  ",
"                    R.R.R.R.R.R.R.R.R.P.w U 5 3 &.q.I 2 z K N R.R.R.R.R.R.R.R.5.@.                  ",
"                    R.R.R.R.R.R.R.R.R.T.| 8 I ;.:.w.:.*.F p p.R.R.R.R.R.R.R.A.$.$.                  ",
"                    R.R.R.R.R.R.R.R.R.R.J.3.V w p b p s Q 0.T.R.R.R.R.R.R.R.j...O.                  ",
"                      R.R.R.R.R.R.R.R.R.R.T.N.t.t # V f.A.R.R.R.R.R.R.R.R.A.3.$.f.R.    R.          ",
"                      R.R.R.R.R.R.R.R.R.R.R.R.x.% % : R.R.R.R.R.R.R.R.R.R.e.@...  R.R.  R.          ",
"                        R.R.R.R.R.R.R.R.R.R.R.A.d & Q R.R.R.R.R.R.R.R.R.p.$.$.      R.R.R.          ",
"                        v.R.R.R.R.R.R.R.R.R.R.R.A.v.P.R.R.R.R.R.R.R.P.t.@...d.R.  R.R.              ",
"                          3.Z.R.T.R.R.R.R.R.R.R.R.R.R.R.R.R.R.R.T.x.5.$...E     R.                  ",
"                            ~ p.N.I.R.R.R.R.R.R.R.R.R.R.R.R.A.z.9.@...} l                           ",
"                                ) 5.p.k.v.Z.I.P.P.P.N.x.f.e.3...@...~                               ",
"                                    R ] } @.$.3.$.$.$.@.@...} ` C                                   ",
"                                            l T ^ ^ / T j                                           ",
"                                                                                                    ",
"                                                                                                    ",
"                                                                                                    ",
"                                                                                                    ",
"                                                                                                    ",
"                                                                                                    ",
"                                                                                                    ",
"                                                                                                    ",
"                                                                                                    "
};
