/* XPM */
static char *_669380194710[] = {
/* columns rows colors chars-per-pixel */
"50 50 97 2 ",
"   c #894E54",
".  c #9C4D5E",
"X  c #8F5257",
"o  c #9C5A5F",
"O  c #9F4E60",
"+  c #9C5B60",
"@  c #925677",
"#  c #965778",
"$  c #A15D63",
"%  c #AE5A69",
"&  c #B3596C",
"*  c #B85C6F",
"=  c #A0597A",
"-  c #A3597B",
";  c #B95C70",
":  c #BB5D71",
">  c #AE616B",
",  c #AF666C",
"<  c #B0666D",
"1  c #B56A70",
"2  c #B86972",
"3  c #BD6F75",
"4  c #C26176",
"5  c #C26C77",
"6  c #C56678",
"7  c #C56778",
"8  c #C66879",
"9  c #C86F7B",
"0  c #C27178",
"q  c #C37279",
"w  c #C5737A",
"e  c #C5747A",
"r  c #C6747B",
"t  c #C9737C",
"y  c #C9767D",
"u  c #CB777E",
"i  c #CC767E",
"p  c #CC777E",
"a  c #CC777F",
"s  c #CD787F",
"d  c #C66184",
"f  c #D9668A",
"g  c #DF688C",
"h  c #CD7880",
"j  c #CE7980",
"k  c #D37081",
"l  c #DA7786",
"z  c #D07A81",
"x  c #D17A81",
"c  c #D27B82",
"v  c #D77E85",
"b  c #D17B8B",
"n  c #D07A8C",
"m  c #DE7988",
"M  c #DF7A89",
"N  c #DC7E88",
"B  c #E0688C",
"V  c #E56C8E",
"C  c #E66E8F",
"Z  c #E66F8F",
"A  c #E17D8A",
"S  c #DA8087",
"D  c #E1848B",
"F  c #E3858D",
"G  c #E4858D",
"H  c #E5868E",
"J  c #E7878F",
"K  c #E58192",
"L  c #E88790",
"P  c #EB8691",
"I  c #EA8891",
"U  c #EB8991",
"Y  c #F08994",
"T  c #F18D95",
"R  c #F28D96",
"E  c #F28E96",
"W  c #F48E97",
"Q  c #F68F98",
"!  c #F88C9A",
"~  c #FA8F9B",
"^  c #F69098",
"/  c #F79099",
"(  c #F9909A",
")  c #F8919A",
"_  c #F9919A",
"`  c #FA919B",
"'  c #F9929A",
"]  c #F9929B",
"[  c #FB939B",
"{  c #FB939C",
"}  c #FC929C",
"|  c #FC939C",
" . c #FD939C",
".. c #FC949C",
"X. c #FD949C",
"o. c #FD949D",
"O. c None",
/* pixels */
"O.O.O.O.O.O.O.O.O.O.O.O.O.O.O.O.O.O.O.O.O.O.O.O.O.O.O.O.O.O.O.O.O.O.O.O.O.O.O.O.O.O.O.O.O.O.O.O.O.O.",
"O.O.O.O.O.O.O.O.O.O.O.O.O.O.O.O.O.O.O.O.O.O.O.O.O.O.O.O.O.O.O.O.O.O.O.O.O.O.O.O.O.O.O.O.O.O.O.O.O.O.",
"O.O.O.O.O.O.O.O.O.O.O.O.O.O.O.O.O.O.O.O.O.O.O.O.O.O.O.O.O.O.O.O.O.O.O.O.O.O.O.O.O.O.O.O.O.O.O.O.O.O.",
"O.O.O.O.O.O.O.O.O.O.O.O.O.O.O.O.O.O.O.O.O.O.O.O.O.O.O.O.O.O.O.O.O.O.O.O.O.O.O.O.O.O.O.O.O.O.O.O.O.O.",
"O.O.O.O.O.O.O.O.O.O.O.O.O.O.O.O.O.O.O.O.O.O.O.O.O.O.O.O.O.O.O.O.O.O.O.O.O.O.O.O.O.O.O.O.O.O.O.O.O.O.",
"O.O.O.O.O.O.O.O.O.O.O.O.O.O.O.O.O.O.O.O.O.O.O.O.O.O.O.O.O.O.O.O.O.O.O.O.O.O.O.O.O.O.O.O.O.O.O.O.O.O.",
"O.O.O.O.O.O.O.O.O.O.O.O.O.O.O.O.O.O.O.O.O.O.O.O.O.O.O.O.O.O.O.O.O.O.O.O.O.O.O.O.O.O.O.O.O.O.O.O.O.O.",
"O.O.O.O.O.O.O.O.O.O.O.O.O.O.O.O.O.O.O.O.O.O.O.O.O.O.O.O.O.O.O.O.O.O.O.O.O.O.O.O.O.O.O.O.O.O.O.O.O.O.",
"O.O.O.O.O.O.O.O.O.O.O.O.O.O.O.O.O.O.O.O.O.O.O.O.O.O.O.O.O.O.O.O.O.O.O.O.O.O.O.O.O.O.O.O.O.O.O.O.O.O.",
"O.O.O.O.O.O.O.O.O.O.O.O.O.O.O.O.O.O.O.O.O.O.O.O.O.O.O.O.O.O.O.O.O.O.O.O.O.O.O.O.O.O.O.O.O.O.O.O.O.O.",
"O.O.O.O.O.O.O.O.O.O.O.O.O.O.O.O.O.O.O.O.O.O.O.O.O.O.O.O.O.O.O.O.O.O.O.O.O.O.O.O.O.O.O.O.O.O.O.O.O.O.",
"O.O.O.O.O.O.O.O.O.O.O.O.O.O.O.O.O.O.O.O.O.O.O.O.O.O.O.O.O.O.O.O.O.O.O.O.O.O.O.O.O.O.O.O.O.O.O.O.O.O.",
"O.O.O.O.O.O.O.O.O.O.O.O.O.O.O.O.O.O.O.O.O.O.O.@ # # @ O.O.O.O.O.O.O.O.O.O.O.O.O.O.O.O.O.O.O.O.O.O.O.",
"O.O.O.O.O.O.O.O.O.O.O.O.O.O.O.O.O.O.O.O.O.= d f B B f d = O.O.O.O.O.O.O.O.O.O.O.O.O.O.O.O.O.O.O.O.O.",
"O.O.O.O.O.O.O.O.O.O.O.o.o.O.O.O.O.O.O.O.- g V C Z Z C V g - O.O.O.O.O.O.O.o.o.O.O.O.O.O.O.O.O.O.O.O.",
"O.O.O.O.O.O.O.O.O.O.O.o.o.o.o.O.O.O.O.n K ! ~ } o.o.} ~ ! K b O.O.O.O.o.o.o.o.O.O.O.O.O.O.O.O.O.O.O.",
"O.O.O.O.O.O.O.O.O.O.O.o.o.o.o.o.O.O.o.o.o.o.o.o.o.o.o.o.o.o.o.o.O.o.o.o.o.o.o.O.O.O.O.O.O.O.O.O.O.O.",
"O.O.O.O.O.O.O.O.O.O.O.o.o.o.o.o.o.o.o.o.o.o.o.o.o.o.o.o.o.o.o.o.o.o.o.o.o.o.o.O.O.O.O.O.O.O.O.O.O.O.",
"O.O.O.O.O.O.O.O.O.O.O.o.o.o.o.o.o.o.o.o.o.o.o.o.o.o.o.o.o.o.o.o.o.o.o.o.o.o.o.O.O.O.O.O.O.O.O.O.O.O.",
"O.O.O.O.O.O.O.O.O.O.O.o.o.o.o.o.o.o.o.o.o.o.o.o.o.o.o.o.o.o.o.o.o.o.o.o.o.o.o.O.O.O.O.O.O.O.O.O.O.O.",
"O.O.O.O.O.O.O.O.O.O.O.o.o.o.o.o.o.o.o.o.o.o.o.o.o.o.o.o.o.o.o.o.o.o.o.o.o.o.o.O.O.O.O.O.O.O.O.O.O.O.",
"O.O.O.O.O.O.O.O.O.O.O.X.o.o.o.o.o.o.o.o.o.o.o.o.o.o.o.o.o.o.o.o.o.o.o.o.o.o.O.O.O.O.O.O.O.O.O.O.O.O.",
"O.O.O.O.O.O.O.O.O.O.O.o.o.o.o.o.o.o.o.o.o.o.o.o.o.o.o.o.o.o.o.o.o.o.o.o.o...S O.O.O.O.O.O.O.O.O.O.O.",
"O.O.O.O.O.O.O.O.O.O.o.o.o.o.o.o.o.o.o.o.o.o.o.o.o.o.o.o.o.o.o.o.o.o.o.o.o.o.J s O.O.O.O.O.O.O.O.O.O.",
"O.O.O.O.O.O.O.O.O.O.o.o.o.o.o.o.o.o.o.o.o.o.o.o.o.o.o.o.o.o.o.o.o.o.o.o.o.o.R a O.O.O.O.O.O.O.O.O.O.",
"O.O.O.O.O.O.O.O.O.O.o.o.o.o.o.o.o.o.o.o.o.o.o.o.o.o.o.o.o.o.o.o.o.o.o.o.o.o._ s O.O.O.O.O.O.O.O.O.O.",
"O.O.O.O.O.O.O.O.O.O.o.o.o.o.o.o.o.o.o.o.o.o.o.o.o.o.o.o.o.o.o.o.o.o.o.o.o.o.| h O.O.O.O.O.O.O.O.O.O.",
"O.O.O.O.O.O.O.O.O.o.o.o.o.o.o.o.o.o.o.o.o.o.o.o.o.o.o.o.o.o.o.o.o.o.o.o.o.o.| s a O.O.O.O.O.O.O.O.O.",
"O.O.O.O.O.O.O.O.O. .o.o.o.o.o.o.o.o.o.o.o.o.o.o.o.o.o.o.o.o.o.o.o.o.o.o.o.o.) s p O.O.O.O.O.O.O.O.O.",
"O.O.O.O.O.O.O.O.O.o.o.o.o.o.o.o.o.o.o.o.o.o.o.o.o.o.o.o.o.o.o.o.o.o.o.o.o.o.T p a O.O.O.O.O.O.O.O.O.",
"O.O.O.O.O.O.O.O.O.O.o.o.o.o.o.o.o.o.o.o.o.o.o.o.o.o.o.o.o.o.o.o.o.o.o.o.o.o.G u O.O.O.O.O.O.O.O.O.O.",
"O.O.O.O.O.O.O.O.O.O.o.o.o.o.o.o.o.o.o.o.o.o.o.o.o.o.o.o.o.o.o.o.o.o.o.o.o.{ c u O.O.O.O.O.O.O.O.O.O.",
"O.O.O.O.O.O.O.O.O.O.o.o.o.o.o.o.o.o.o.o.o.o.o.o.o.o.o.o.o.o.o.o.o.o.o.o.o.L u p O.O.O.O.O.O.O.O.O.O.",
"O.O.O.O.O.O.O.O.O.O.O.o.o.o.o.o.o.o.o.o.o.o.o.o.o.o.o.o.o.o.o.o.o.o.o.o.W j u O.O.O.O.O.O.O.O.O.O.O.",
"O.O.O.O.O.O.O.O.O.O.O.| o.o.o.o.o.o.o.o.o.o.o.o.o.o.o.o.o.o.o.o.o.o.o.Q c u p O.O.O.O.O.O.O.O.O.O.O.",
"O.O.O.O.O.O.O.O.O.O.O.O.^ o.o.o.o.o.o.o.o.o.o.o.o.o.` o.o.o.o.o.o.o.R x u y O.O.O.O.O.O.O.O.O.O.O.O.",
"O.O.O.O.O.O.O.O.O.O.O.O.O.G [ o.o.o.o.o.o.o.o.o.o.( k o.o.o.o.o.] F s u e O.O.O.O.O.O.O.O.O.O.O.O.O.",
"O.O.O.O.O.O.O.O.O.O.O.O.O.O.r H / ..o.o.o.o.o.o.o.Y m o.| M A F z u u 3 O.O.O.O.O.O.O.O.O.O.O.O.O.O.",
"O.O.O.O.O.O.O.O.O.O.O.O.O.O.O.o q v D U E / ' ' ' P l I N 8 6 u u 0 + O.O.O.O.O.O.O.O.O.O.O.O.O.O.O.",
"O.O.O.O.O.O.O.O.O.O.O.O.O.O.O.O.O.  1 w y s s s s i 7 t 9 4 5 2 % O.O.O.O.O.O.O.O.O.O.O.O.O.O.O.O.O.",
"O.O.O.O.O.O.O.O.O.O.O.O.O.O.O.O.O.O.O.O.O.X $ , < < > & & * O.O . O.O.O.O.O.O.O.O.O.O.O.O.O.O.O.O.O.",
"O.O.O.O.O.O.O.O.O.O.O.O.O.O.O.O.O.O.O.O.O.O.O.O.O.O.O.O.O.O.; : O.O.O.O.O.O.O.O.O.O.O.O.O.O.O.O.O.O.",
"O.O.O.O.O.O.O.O.O.O.O.O.O.O.O.O.O.O.O.O.O.O.O.O.O.O.O.O.O.O.O.O.O.O.O.O.O.O.O.O.O.O.O.O.O.O.O.O.O.O.",
"O.O.O.O.O.O.O.O.O.O.O.O.O.O.O.O.O.O.O.O.O.O.O.O.O.O.O.O.O.O.O.O.O.O.O.O.O.O.O.O.O.O.O.O.O.O.O.O.O.O.",
"O.O.O.O.O.O.O.O.O.O.O.O.O.O.O.O.O.O.O.O.O.O.O.O.O.O.O.O.O.O.O.O.O.O.O.O.O.O.O.O.O.O.O.O.O.O.O.O.O.O.",
"O.O.O.O.O.O.O.O.O.O.O.O.O.O.O.O.O.O.O.O.O.O.O.O.O.O.O.O.O.O.O.O.O.O.O.O.O.O.O.O.O.O.O.O.O.O.O.O.O.O.",
"O.O.O.O.O.O.O.O.O.O.O.O.O.O.O.O.O.O.O.O.O.O.O.O.O.O.O.O.O.O.O.O.O.O.O.O.O.O.O.O.O.O.O.O.O.O.O.O.O.O.",
"O.O.O.O.O.O.O.O.O.O.O.O.O.O.O.O.O.O.O.O.O.O.O.O.O.O.O.O.O.O.O.O.O.O.O.O.O.O.O.O.O.O.O.O.O.O.O.O.O.O.",
"O.O.O.O.O.O.O.O.O.O.O.O.O.O.O.O.O.O.O.O.O.O.O.O.O.O.O.O.O.O.O.O.O.O.O.O.O.O.O.O.O.O.O.O.O.O.O.O.O.O.",
"O.O.O.O.O.O.O.O.O.O.O.O.O.O.O.O.O.O.O.O.O.O.O.O.O.O.O.O.O.O.O.O.O.O.O.O.O.O.O.O.O.O.O.O.O.O.O.O.O.O."
};
