/* XPM */
static char *_669384677950[] = {
/* columns rows colors chars-per-pixel */
"50 50 153 2 ",
"   c #003048",
".  c #003249",
"X  c #003655",
"o  c #003A55",
"O  c #003F57",
"+  c #00325A",
"@  c #00335A",
"#  c #003459",
"$  c #003659",
"%  c #00345A",
"&  c #00355A",
"*  c #00365A",
"=  c #003B59",
"-  c #00395A",
";  c #00385B",
":  c #003B5B",
">  c #003E58",
",  c #003C5A",
"<  c #003C5B",
"1  c #003D5B",
"2  c #003E5A",
"3  c #00385C",
"4  c #004C4D",
"5  c #004D4D",
"6  c #004156",
"7  c #004057",
"8  c #004157",
"9  c #004356",
"0  c #004257",
"q  c #004357",
"w  c #004556",
"e  c #004457",
"r  c #004656",
"t  c #004756",
"y  c #004657",
"u  c #004757",
"i  c #004856",
"p  c #004956",
"a  c #004A56",
"s  c #004B56",
"d  c #004D57",
"f  c #004E57",
"g  c #004759",
"h  c #00415C",
"j  c #004959",
"k  c #00485D",
"l  c #004B5D",
"z  c #004E5E",
"x  c #005259",
"c  c #00535A",
"v  c #00555B",
"b  c #00515D",
"n  c #00515E",
"m  c #00565F",
"M  c #00575F",
"N  c #005A5A",
"B  c #005A5D",
"V  c #00595E",
"C  c #00585F",
"Z  c #005D5F",
"A  c #005F5F",
"S  c #005D60",
"D  c #005E60",
"F  c #005F60",
"G  c #005F61",
"H  c #005A64",
"J  c #005C66",
"K  c #006060",
"L  c #006061",
"P  c #006161",
"I  c #006262",
"U  c #006362",
"Y  c #006463",
"T  c #006663",
"R  c #006465",
"E  c #006765",
"W  c #006C67",
"Q  c #006E68",
"!  c #007069",
"~  c #00726F",
"^  c #00756D",
"/  c #00746E",
"(  c #00766F",
")  c #00786D",
"_  c #00796E",
"`  c #007A6F",
"'  c #007B6F",
"]  c #007C6F",
"[  c #007075",
"{  c #007C70",
"}  c #007D70",
"|  c #007E71",
" . c #007F71",
".. c #007B74",
"X. c #007976",
"o. c #008072",
"O. c #008374",
"+. c #008474",
"@. c #008575",
"#. c #008977",
"$. c #00867B",
"%. c #00807D",
"&. c #008B79",
"*. c #008A7F",
"=. c #008E7F",
"-. c #008E82",
";. c #008D85",
":. c #009780",
">. c #009385",
",. c #009F85",
"<. c #009588",
"1. c #00988A",
"2. c #009E88",
"3. c #00A087",
"4. c #00A58E",
"5. c #00A191",
"6. c #00A292",
"7. c #00A392",
"8. c #00A492",
"9. c #00A494",
"0. c #00A594",
"q. c #00A694",
"w. c #00A795",
"e. c #00A891",
"r. c #00A895",
"t. c #00A896",
"y. c #00A996",
"u. c #00A997",
"i. c #00AA96",
"p. c #00AA97",
"a. c #00AC96",
"s. c #00AC97",
"d. c #00AD98",
"f. c #00AE98",
"g. c #00B493",
"h. c #00B097",
"j. c #00B197",
"k. c #00B696",
"l. c #00B098",
"z. c #00B199",
"x. c #00B299",
"c. c #00B29A",
"v. c #00B39A",
"b. c #00B59B",
"n. c #00B69B",
"m. c #00B79B",
"M. c #00B79C",
"N. c #00B89C",
"B. c #00C39D",
"V. c #00C7A0",
"C. c #00CBA2",
"Z. c #00CEA4",
"A. c None",
/* pixels */
"A.A.A.A.A.A.A.A.A.A.A.A.A.A.A.A.A.A.A.A.A.A.A.A.A.A.A.A.A.A.A.A.A.A.A.A.A.A.A.A.A.A.A.A.A.A.A.A.A.A.",
"A.A.A.A.A.A.A.A.A.A.A.A.A.A.A.A.A.A.A.A.A.A.A.A.A.A.A.A.A.A.A.A.A.A.A.A.A.A.A.A.A.A.A.A.A.A.A.A.A.A.",
"A.A.A.A.A.A.A.A.A.A.A.A.A.A.A.A.A.A.A.A.A.A.A.A.A.A.A.A.A.A.A.A.A.A.A.A.A.A.A.A.A.A.A.A.A.A.A.A.A.A.",
"A.A.A.A.A.A.A.A.A.A.A.A.A.A.A.A.A.A.A.A.A.A.A.A.A.A.A.A.A.A.A.A.A.A.A.A.A.A.A.A.A.A.A.A.A.A.A.A.A.A.",
"A.A.A.A.A.A.A.A.A.A.A.A.A.A.A.A.A.A.A.A.A.A.A.A.A.A.A.A.A.A.A.A.A.A.A.A.A.A.A.A.A.A.A.A.A.A.A.A.A.A.",
"A.A.A.A.A.A.A.A.A.A.A.A.A.A.A.A.A.A.A.A.A.A.A.A.A.A.A.A.A.A.A.A.A.A.A.A.A.A.A.A.A.A.A.A.A.A.A.A.A.A.",
"A.A.A.A.A.A.A.A.A.A.A.A.A.A.A.A.A.A.A.A.A.A.A.A.A.A.A.A.A.A.A.A.A.A.A.A.A.A.A.A.A.A.A.A.A.A.A.A.A.A.",
"A.A.A.A.A.A.A.A.A.A.A.A.A.A.A.A.A.A.A.A.A.A.A.A.A.A.A.A.A.A.A.A.A.A.A.A.A.A.A.A.A.A.A.A.A.A.A.A.A.A.",
"A.A.A.A.A.A.A.A.A.A.A.A.A.A.A.A.A.A.A.A.A.A.A.A.A.A.A.A.A.A.A.A.A.A.A.A.A.A.A.A.A.A.A.A.A.A.A.A.A.A.",
"A.A.A.A.A.A.A.A.A.A.A.A.A.A.A.A.A.A.A.A.A.A.A.A.A.A.A.A.A.A.A.A.A.A.A.A.A.A.A.A.A.A.A.A.A.A.A.A.A.A.",
"A.A.A.A.A.A.A.A.A.A.A.A.A.A.A.A.A.A.A.A.A.A.A.A.A.A.A.A.A.A.A.A.A.A.A.A.A.A.A.A.A.A.A.A.A.A.A.A.A.A.",
"A.A.A.A.A.A.A.A.A.A.A.A.A.A.A.A.A.A.A.A.A.A.A.A.A.A.A.A.A.A.A.A.A.A.A.A.A.A.A.A.A.A.A.A.A.A.A.A.A.A.",
"A.A.A.A.A.A.A.A.A.A.A.A.A.A.A.A.A.A.A.A.A.A.A.A.A.A.A.A.A.A.A.A.A.A.A.A.A.A.A.A.A.A.A.A.A.A.A.A.A.A.",
"A.A.A.A.A.A.A.A.A.A.A.A.A.A.A.A.A.A.A.A.A.A.A.A.A.A.A.A.A.A.A.A.A.A.A.A.A.A.A.A.A.A.A.A.A.A.A.A.A.A.",
"A.A.A.A.A.A.A.A.A.A.A.A.A.A.A.A.A.A.A.A.A.A.A.A.A.A.A.A.A.A.A.A.A.A.A.A.A.A.A.A.A.A.A.A.A.A.A.A.A.A.",
"A.A.A.A.A.A.A.A.A.A.A.A.A.A.A.A.A.A.A.A.A.A.5.5.q.l.j.h.A.A.A.A.A.A.A.A.A.A.A.A.A.A.A.A.A.A.A.A.A.A.",
"A.A.A.A.A.A.A.A.A.A.A.A.A.A.A.A.A.A.8.6.w.t.t.d.n.N.N.N.N.x.8.8.A.A.A.A.A.A.A.A.A.A.A.A.A.A.A.A.A.A.",
"A.A.A.A.A.A.A.A.A.A.A.A.A.A.A.A.k.r.t.t.t.y.x.N.N.N.N.m.f.t.t.t.7.^ A.A.A.A.A.A.A.A.A.A.A.A.A.A.A.A.",
"A.A.A.A.A.A.A.A.A.A.A.A.A.A.A.V.a.t.t.t.d.n.N.N.N.N.v.p.t.t.t.s.n.e.E A.A.A.A.A.A.A.A.A.A.A.A.A.A.A.",
"A.A.A.A.A.A.A.A.A.A.A.A.A.A.Z.h.t.t.u.c.N.N.N.N.M.f.t.t.t.y.z.M.v.p.>.I A.A.A.A.A.A.A.A.A.A.A.A.A.A.",
"A.A.A.A.A.A.A.A.A.A.A.A.A.C.3.q.t.d.n.N.N.N.N.v.p.t.t.t.d.n.n.f.t.t.9.J F A.A.A.A.A.A.A.A.A.A.A.A.A.",
"A.A.A.A.A.A.A.A.A.A.A.A.B.:.#.=.x.N.N.N.N.n.f.t.t.t.y.c.M.c.y.t.t.w.[ + h S A.A.A.A.A.A.A.A.A.A.A.A.",
"A.A.A.A.A.A.A.A.A.A.A.g.&.| #.@.2.N.N.N.v.p.t.t.t.d.n.n.d.t.t.t.t.%.+ + + 1 C A.A.A.A.A.A.A.A.A.A.A.",
"A.A.A.A.A.A.A.A.A.A.,.O.} }  .&.+.4.b.f.t.t.t.y.z.M.c.y.t.t.t.w.;.3 + + + + ; b A.A.A.A.A.A.A.A.A.A.",
"A.A.A.A.A.A.A.A.A.A.| } } } } o.&.Q / ..-.1.i.b.n.d.t.0.<.*.~ R j + + + + + + & A.A.A.A.A.A.A.A.A.A.",
"A.A.A.A.A.A.A.A.A.A.] } } } } } ) P P P P P Y ( $.X.H g y i a s s = + + + + + % A.A.A.A.A.A.A.A.A.A.",
"A.A.A.A.A.A.A.A.A.A.A.{ } } } } T P P P P P P P P 7 O O O O 7 9 r u @ + + + @ A.A.A.A.A.A.A.A.A.A.A.",
"A.A.A.A.A.A.A.A.A.A.A.A.} } } ! P P P P P P P P P s i w 6 O O O O O = + + + A.A.A.A.A.A.A.A.A.A.A.A.",
"A.A.A.A.A.A.A.A.A.A.A.A._ } ` U P P P P P P P P P p a s s a t 9 7 O O # + * A.A.A.A.A.A.A.A.A.A.A.A.",
"A.A.A.A.A.A.A.A.A.A.A.A.A.' W P P P P P P P P P P q 7 9 t p s s a i e > & A.A.A.A.A.A.A.A.A.A.A.A.A.",
"A.A.A.A.A.A.A.A.A.A.A.A.A.A.C M S G P P P P P P P s a t 9 8 0 w a f c c A.A.A.A.A.A.A.A.A.A.A.A.A.A.",
"A.A.A.A.A.A.A.A.A.A.A.A.A.A.A.A., < l z m D P P P s s s d x v V Z L A.A.A.A.A.A.A.A.A.A.A.A.A.A.A.A.",
"A.A.A.A.A.A.A.A.A.A.A.A.A.A.A.A.A.- * 1 @ % : k n v B A P P P P P A.A.A.A.A.A.A.A.A.A.A.A.A.A.A.A.A.",
"A.A.A.A.A.A.A.A.A.A.A.A.A.A.A.A.A.A.A.$ 1 @ + + @ P P P P P K A.A.A.A.A.A.A.A.A.A.A.A.A.A.A.A.A.A.A.",
"A.A.A.A.A.A.A.A.A.A.A.A.A.A.A.A.A.A.A.A.X 1 @ + @ P P P P N A.A.A.A.A.A.A.A.A.A.A.A.A.A.A.A.A.A.A.A.",
"A.A.A.A.A.A.A.A.A.A.A.A.A.A.A.A.A.A.A.A.A.. 2 @ @ P P K 5 A.A.A.A.A.A.A.A.A.A.A.A.A.A.A.A.A.A.A.A.A.",
"A.A.A.A.A.A.A.A.A.A.A.A.A.A.A.A.A.A.A.A.A.A.A.o % P N A.A.A.A.A.A.A.A.A.A.A.A.A.A.A.A.A.A.A.A.A.A.A.",
"A.A.A.A.A.A.A.A.A.A.A.A.A.A.A.A.A.A.A.A.A.A.A.A.  4 A.A.A.A.A.A.A.A.A.A.A.A.A.A.A.A.A.A.A.A.A.A.A.A.",
"A.A.A.A.A.A.A.A.A.A.A.A.A.A.A.A.A.A.A.A.A.A.A.A.A.A.A.A.A.A.A.A.A.A.A.A.A.A.A.A.A.A.A.A.A.A.A.A.A.A.",
"A.A.A.A.A.A.A.A.A.A.A.A.A.A.A.A.A.A.A.A.A.A.A.A.A.A.A.A.A.A.A.A.A.A.A.A.A.A.A.A.A.A.A.A.A.A.A.A.A.A.",
"A.A.A.A.A.A.A.A.A.A.A.A.A.A.A.A.A.A.A.A.A.A.A.A.A.A.A.A.A.A.A.A.A.A.A.A.A.A.A.A.A.A.A.A.A.A.A.A.A.A.",
"A.A.A.A.A.A.A.A.A.A.A.A.A.A.A.A.A.A.A.A.A.A.A.A.A.A.A.A.A.A.A.A.A.A.A.A.A.A.A.A.A.A.A.A.A.A.A.A.A.A.",
"A.A.A.A.A.A.A.A.A.A.A.A.A.A.A.A.A.A.A.A.A.A.A.A.A.A.A.A.A.A.A.A.A.A.A.A.A.A.A.A.A.A.A.A.A.A.A.A.A.A.",
"A.A.A.A.A.A.A.A.A.A.A.A.A.A.A.A.A.A.A.A.A.A.A.A.A.A.A.A.A.A.A.A.A.A.A.A.A.A.A.A.A.A.A.A.A.A.A.A.A.A.",
"A.A.A.A.A.A.A.A.A.A.A.A.A.A.A.A.A.A.A.A.A.A.A.A.A.A.A.A.A.A.A.A.A.A.A.A.A.A.A.A.A.A.A.A.A.A.A.A.A.A.",
"A.A.A.A.A.A.A.A.A.A.A.A.A.A.A.A.A.A.A.A.A.A.A.A.A.A.A.A.A.A.A.A.A.A.A.A.A.A.A.A.A.A.A.A.A.A.A.A.A.A.",
"A.A.A.A.A.A.A.A.A.A.A.A.A.A.A.A.A.A.A.A.A.A.A.A.A.A.A.A.A.A.A.A.A.A.A.A.A.A.A.A.A.A.A.A.A.A.A.A.A.A.",
"A.A.A.A.A.A.A.A.A.A.A.A.A.A.A.A.A.A.A.A.A.A.A.A.A.A.A.A.A.A.A.A.A.A.A.A.A.A.A.A.A.A.A.A.A.A.A.A.A.A.",
"A.A.A.A.A.A.A.A.A.A.A.A.A.A.A.A.A.A.A.A.A.A.A.A.A.A.A.A.A.A.A.A.A.A.A.A.A.A.A.A.A.A.A.A.A.A.A.A.A.A.",
"A.A.A.A.A.A.A.A.A.A.A.A.A.A.A.A.A.A.A.A.A.A.A.A.A.A.A.A.A.A.A.A.A.A.A.A.A.A.A.A.A.A.A.A.A.A.A.A.A.A."
};
