/* XPM */
static char *c87d70c28e1841fec9ad2c38fcfb08a4NZn4d5WxclAiGGsH[] = {
/* columns rows colors chars-per-pixel */
"50 50 197 2 ",
"   c None",
".  c #22001E",
"X  c #230021",
"o  c #240628",
"O  c #260B28",
"+  c #29172D",
"@  c #261E30",
"#  c #322333",
"$  c #3B2636",
"%  c #322836",
"&  c #3D2936",
"*  c #292534",
"=  c #54001E",
"-  c #5F013E",
";  c #591A2C",
":  c #761227",
">  c #43273A",
",  c #4B263C",
"<  c #432A39",
"1  c #4B2B39",
"2  c #5B2C36",
"3  c #53253E",
"4  c #542A3A",
"5  c #4A313B",
"6  c #46343C",
"7  c #57363D",
"8  c #74242F",
"9  c #692C35",
"0  c #652C36",
"q  c #792834",
"w  c #7A343C",
"e  c #683239",
"r  c #5A0F42",
"t  c #6D1E4B",
"y  c #611C44",
"u  c #701F4B",
"i  c #5C2443",
"p  c #572443",
"a  c #4C3C42",
"s  c #642346",
"d  c #6C204A",
"f  c #6A2248",
"g  c #782347",
"h  c #7E3E42",
"j  c #4C4246",
"k  c #554548",
"l  c #5D4F50",
"z  c #6B4246",
"x  c #7D4D4D",
"c  c #6A5455",
"v  c #755856",
"b  c #6C605F",
"n  c #6B6562",
"m  c #6C6864",
"M  c #756A65",
"N  c #73706B",
"B  c #6F7671",
"V  c #7B7C76",
"C  c #7E7F78",
"Z  c #82051F",
"A  c #8F1825",
"S  c #A71F23",
"D  c #8C272E",
"F  c #8B292F",
"G  c #9D292D",
"H  c #99272D",
"J  c #872C39",
"K  c #942C31",
"L  c #883237",
"P  c #983C3C",
"I  c #AB2A2C",
"U  c #B72C2B",
"Y  c #B9312E",
"T  c #A92C39",
"R  c #B42937",
"E  c #A93939",
"W  c #BB3935",
"Q  c #B3333B",
"!  c #CE3D3C",
"~  c #C73734",
"^  c #D43B37",
"/  c #C6322E",
"(  c #E73325",
")  c #E5362A",
"_  c #E3392E",
"`  c #E53D31",
"'  c #D5403D",
"]  c #E54135",
"[  c #E74539",
"{  c #E6483C",
"}  c #882746",
"|  c #922947",
" . c #813E40",
".. c #AE3143",
"X. c #A53E40",
"o. c #B83542",
"O. c #9C4A48",
"+. c #965A57",
"@. c #8A5251",
"#. c #A74B47",
"$. c #BB4843",
"%. c #AF534F",
"&. c #BE5C55",
"*. c #9E645E",
"=. c #A6625D",
"-. c #806762",
";. c #84726C",
":. c #817A73",
">. c #907E76",
",. c #916D67",
"<. c #AD6C65",
"1. c #B46A62",
"2. c #BA6F66",
"3. c #BD7167",
"4. c #B47E75",
"5. c #C84B45",
"6. c #DC4B41",
"7. c #C6554D",
"8. c #D5574E",
"9. c #C85C53",
"0. c #E24E44",
"q. c #E55246",
"w. c #E5594D",
"e. c #E75549",
"r. c #E45E52",
"t. c #C3645B",
"y. c #D56359",
"u. c #DF655A",
"i. c #D5655B",
"p. c #E66356",
"a. c #E9675A",
"s. c #E4695D",
"d. c #E96A5D",
"f. c #E86356",
"g. c #DC6C60",
"h. c #CC786D",
"j. c #C97E72",
"k. c #E96E61",
"l. c #E67266",
"z. c #E97366",
"x. c #EA7A6C",
"c. c #EC7F71",
"v. c #82827A",
"b. c #88847B",
"n. c #94877E",
"m. c #A4897E",
"M. c #A7867C",
"N. c #D38B7E",
"B. c #D88578",
"V. c #EB8274",
"C. c #E58678",
"Z. c #8F978C",
"A. c #97958A",
"S. c #979E92",
"D. c #B49387",
"F. c #A39E92",
"G. c #A7988D",
"H. c #9EA397",
"J. c #A7A699",
"K. c #B7A395",
"L. c #B4AFA1",
"P. c #ABB2A4",
"I. c #AFB6A8",
"U. c #B8B4A5",
"Y. c #C19084",
"T. c #D99688",
"R. c #E98F80",
"E. c #EC9C8C",
"W. c #E89888",
"Q. c #CCA99A",
"!. c #D2AA9B",
"~. c #EBA292",
"^. c #ECAA99",
"/. c #E7A594",
"(. c #F0AB9A",
"). c #D8B8A8",
"_. c #C4B4A5",
"`. c #E4B5A4",
"'. c #EDBDAB",
"]. c #ECB6A4",
"[. c #DFC0AF",
"{. c #CFC9B7",
"}. c #C6C8B7",
"|. c #D7C6B5",
" X c #CDD2BF",
".X c #DAD2BF",
"XX c #F1C1AE",
"oX c #EEC4B2",
"OX c #E8C9B6",
"+X c #ECD1BE",
"@X c #F0D3BF",
"#X c #F3C8B4",
"$X c #DBD7C4",
"%X c #E7D8C4",
"&X c #EEDAC6",
"*X c #E9D5C2",
"=X c #F1D6C2",
/* pixels */
"                                                                                                    ",
"                                                                                                    ",
"                                                                                                    ",
"                                                                                                    ",
"                                                                                                    ",
"                                                                                                    ",
"                                                                                                    ",
"                                                                                                    ",
"                                                                                                    ",
"                                                                                                    ",
"                                                                                                    ",
"                                                                                                    ",
"                                                                                                    ",
"                                                                                                    ",
"                                                                                                    ",
"                                                                                                    ",
"                                                                                                    ",
"                                                                                                    ",
"                                                                                                    ",
"                          $ $ & & & & & &                                                           ",
"                        n m n c z e 9 9 9 0                                                         ",
"                      B Z.H.S.m.*.P H H H F 8                                                       ",
"                    j C P.}.{.Q.j.5./ / W E F 4                                                     ",
"                  = z >.U.$X%X'.C.r.6.u.i.&.O.w 2                                                   ",
"                  Z P <.Q.'.#X^.V.f.x.W.W.N.1.O.F :                                                 ",
"              4 q H W 9.B.T.E.V.d.z.E.'.OX`.N.7.I A ; O @ % % % %                                   ",
"            * 4 @.#.9.s.s.a.a.e.q.z.^.+X&XoXT.y.$.@.c c k 2 2 2 2 2                                 ",
"            @ 7 @.4.T.R.c.r.[ ( [ k.~.XX+X`.N.&.1.4.A.>.,.@.K D D D q                               ",
"            o k ;.K.OXXX~.z.[ ( ] f.V.E./.T.1.=.D.K.}._.Y.&.W Y Y Y K 9                             ",
"            . k b.I.$X*X].V.0.^ ] 0.w.a.i.9.O.*.G.}.$XOX/.u.6.6.8.7.#.w 2                           ",
"              k b.I. X|.!.h.5.~ ! ! ' ! ~ I G +.D.).+XoXE.d.a.c.R.N.3.O.L 8                         ",
"                V S.J.J.M.=.E T ....T T I S I $.h.T.^.E.V.a.V.^.'.`.T.t.Y A 8                       ",
"                  N N M c z w g } } } q J X.$.8.u.l.l.k.w.f.R.'.=X@X].x.7.E w ,                     ",
"                    6 & & 6 1 s t t y 3 z *.j.C.V.k.e.` ` e.C.'.=X=XXX/.B.1.x 1 @                   ",
"                      X + # > i t t r , c A.!.].(.V.e.) ) q.z.E.].XX#XoX).D.-.a o                   ",
"                        # & , i t t r 3 b S.{.*XoXE.p.` _ { w.d.V./.oX%X$XL.:.j .                   ",
"                          < , i d u - 3 m H.}.$X|.T.y.^ ^ ^ ^ ^ 8.B.)..X XL.:.j                     ",
"                              i d       n Z.P.U.K.M.%.Q o.o.R R E <.D.L.P.H.V                       ",
"                                            v.:.;.@.x J | | | J J x M :.:.C                         ",
"                                            j a 5 5 1 3 f g d s 4 6 a a j                           ",
"                                              . O @ # p s t f p > # + X                             ",
"                                                  # & 3 s t f i > # #                               ",
"                                                  < < 3 f t d i , &                                 ",
"                                                    < p f d d i ,                                   ",
"                                                                                                    ",
"                                                                                                    ",
"                                                                                                    ",
"                                                                                                    ",
"                                                                                                    ",
"                                                                                                    "
};
