/* XPM */
static char *_2ad506254f94402d6f4bc287059c9b95zlGw8OPub41Qezi[] = {
/* columns rows colors chars-per-pixel */
"50 50 193 2 ",
"   c None",
".  c #515151",
"X  c gray32",
"o  c #535353",
"O  c gray33",
"+  c #555555",
"@  c #565656",
"#  c gray34",
"$  c #585858",
"%  c #5A5A5A",
"&  c #5B5B5B",
"*  c gray36",
"=  c #5F5F5F",
"-  c #656565",
";  c DimGray",
":  c #6A6A6A",
">  c #6D6D6D",
",  c gray43",
"<  c #6F6F6F",
"1  c gray44",
"2  c #727272",
"3  c gray45",
"4  c gray46",
"5  c #767676",
"6  c #7E7E7E",
"7  c gray50",
"8  c #808080",
"9  c #838383",
"0  c #868686",
"q  c gray53",
"w  c #888888",
"e  c #8B8B8B",
"r  c #939393",
"t  c #959595",
"y  c #979797",
"u  c #9B9B9B",
"i  c gray61",
"p  c #9D9D9D",
"a  c #A7A7A7",
"s  c gray66",
"d  c #A9A9A9",
"f  c #AAAAAA",
"g  c gray67",
"h  c #ACACAC",
"j  c gray68",
"k  c #AFAFAF",
"l  c gray70",
"z  c #B4B4B4",
"x  c gray73",
"c  c #BBBBBB",
"v  c #BDBEC5",
"b  c #BDBFC5",
"n  c #BEBFC5",
"m  c #BFBFC5",
"M  c #BEBFC6",
"N  c #BFBFC6",
"B  c #BFC0C5",
"V  c #BFC0C6",
"C  c #BFC1C6",
"Z  c #BFC0C7",
"A  c #C0C0C0",
"S  c #C1C1C1",
"D  c #C3C3C3",
"F  c #C0C1C6",
"G  c #C0C1C7",
"H  c #C1C1C7",
"J  c #C1C2C8",
"K  c #C2C3C8",
"L  c #C2C3C9",
"P  c #C3C4C9",
"I  c #C3C4CA",
"U  c #C4C4CA",
"Y  c #C4C5CA",
"T  c #C4C5CB",
"R  c #C5C5CB",
"E  c #C5C6CB",
"W  c #C5C6CC",
"Q  c #C6C7CC",
"!  c #C6C7CD",
"~  c #C7C8CD",
"^  c #C8C9CE",
"/  c #C9CACF",
"(  c #CACACF",
")  c #CDCDCD",
"_  c #CECECE",
"`  c gray81",
"'  c #CACBD0",
"]  c #CBCBD0",
"[  c #CBCCD1",
"{  c #CCCCD1",
"}  c #CCCDD1",
"|  c #CDCDD2",
" . c #CDCED2",
".. c #CECED3",
"X. c #CECFD3",
"o. c #CECFD4",
"O. c #CFCFD4",
"+. c #CFD0D4",
"@. c gray82",
"#. c #D2D2D2",
"$. c LightGray",
"%. c #D0D0D5",
"&. c #D1D1D6",
"*. c #D1D2D6",
"=. c #D2D2D7",
"-. c #D2D3D7",
";. c #D5D5D5",
":. c gray84",
">. c #D7D7D7",
",. c #D3D3D8",
"<. c #D3D4D8",
"1. c #D5D5D9",
"2. c #D5D5DA",
"3. c #D5D6DA",
"4. c #D6D6DA",
"5. c #D6D7DA",
"6. c #D7D7DB",
"7. c #D8D8D8",
"8. c #DADADA",
"9. c gray86",
"0. c #D8D8DC",
"q. c #D9D9DC",
"w. c #D9D9DD",
"e. c #D9DADE",
"r. c #DADADE",
"t. c #DBDBDF",
"y. c #DBDCDF",
"u. c gainsboro",
"i. c #DDDDDD",
"p. c #DCDCDF",
"a. c #DFDFDF",
"s. c #DBDCE0",
"d. c #DCDDE0",
"f. c #DFDFE2",
"g. c #DFE0E2",
"h. c gray88",
"j. c #E1E1E1",
"k. c #E0E0E3",
"l. c #E0E1E3",
"z. c #E2E2E2",
"x. c #E2E2E5",
"c. c #E3E3E6",
"v. c #E3E4E6",
"b. c #E4E4E7",
"n. c #E4E5E7",
"m. c #E7E7E7",
"M. c #E5E5E8",
"N. c #E5E6E8",
"B. c #E6E6E8",
"V. c #E7E8EA",
"C. c gray91",
"Z. c #E9E9EB",
"A. c #E9EAEC",
"S. c #EAEAEC",
"D. c #EAEBEC",
"F. c #EAEAED",
"G. c #EAEBED",
"H. c #EBEBED",
"J. c gray93",
"K. c #ECECEE",
"L. c #EDEDEF",
"P. c #EFEFEF",
"I. c #EEEEF0",
"U. c #F1F1F1",
"Y. c #F1F1F3",
"T. c #F1F2F3",
"R. c gray95",
"E. c #F2F2F3",
"W. c #F3F3F3",
"Q. c #F3F3F4",
"!. c #F4F4F4",
"~. c #F4F4F6",
"^. c #F5F5F6",
"/. c #F6F6F6",
"(. c #F6F6F7",
"). c gray97",
"_. c #F6F6F8",
"`. c #F7F7F8",
"'. c #F8F8F8",
"]. c #F8F8F9",
"[. c #F9F9F9",
"{. c #F9F9FA",
"}. c gray98",
"|. c #FAFAFB",
" X c #FAFBFB",
".X c #FBFBFB",
"XX c #FBFBFC",
"oX c gray99",
"OX c #FCFCFD",
"+X c #FDFDFD",
"@X c #FDFDFE",
"#X c #FEFEFE",
"$X c white",
/* pixels */
"                                                                                                    ",
"                                                                                                    ",
"                                      F V V F F V V V V V F V                                       ",
"                                V V V J ^ ] +.&.3.w.&.+...^ W F F F                                 ",
"                            F V J &.x.K.)..XOXOXOXOXOXOXXX.XI.M.3.^ b F                             ",
"                        V V J w.).XXOXOXOXOXOXOXOXOXOXOXOXOXOXOXOX.Xv.U F V                         ",
"                      F U 3.).OXOXOXOXOXOXOXOXOXOXOXOXOXOXOXOXOXOXOXOXOXd.~ F F                     ",
"                    F U K.OXOXOXOXOXOXOXOXOXOXOXOXOXOXOXOXOXOXOXOXOXOXOXOXQ.&.V F                   ",
"                V V ..).OXOXOXOXOXOXOXOXOXOXOXOXOXOXOXOXOXOXOXOXOXOXOXOXOXOXOXd.F F                 ",
"              V V 3..XOXOXOXOXOXOXOXOX@.e z.OXOXOXOXOXOXOX8.9 a.OXOXOXOXOXOXOXOXv.F V               ",
"              V &.OXOXOXOXOXOXOXa.7.OX5 O j OX@.v.OXOXOXOX0 O 0 OXOXOXOXOXOXOXOXOXD.N F             ",
"            V ..oXOXOXOXOXOXOX).: : m.- O f z.= w '.OXOXOX3 + + ;.OXOXOXOXOXOXOXOXOXk.F F           ",
"          V ^ ).OXOXOXOXOXOXOX7.+ $ u.- + f l . , R.OXOXOX3 + + r OXOXOXOXOXOXOXOXOXOX3.b           ",
"          V K.OXOXOXOXOXOXOXOX@.+ $ 8.- + f l . , !.OXOXOX5 + + < R.OXOXOXOXOXOXOXOXOX.X^ b         ",
"        V ..OXOXOXOXOXOXOXOXOX;.+ $ u.- + f l . , U.OXOXOX3 + + * v.OXOXOXOXOXOXOXOXOXOXc.F         ",
"        F H.OXOXOXOXOXOXOXOXOXD.+ $ 7.- + f l . > U.OXOXOX3 + + O 7.OXOXOXOXOXOXOXOXOXOXOX^ F       ",
"      V &.OXOXOXOXOXOXOXOXOXOXD.+ $ ` - + f z . 1 R.OXOXOX3 + + O j OXOXOXOXOXOXOXOXOXOXOXK.J       ",
"      V K.OXOXOXOXOXOXOXOXOXOX).$ + t * + 7 w + 7 ).OXOXOX5 + + O i OXOXOXOXOXOXOXOXOXOXOX.XW F     ",
"      U .XOXOXOXOXOXOXOXOXOXOXOX, + O + + + + O r OXOXOXOX3 + + + i OXOXOXOXOXOXOXOXOXOXOXOX@.b     ",
"    F ..OXOXOXOXOXOXOXOXOXOXOXOX@.* . + + O . : u.OXOXOXOX3 + + + p OXOXOXOXOXOXOXOXOXOXOXOXM.b     ",
"    V a.OXOXOXOXOXOXOXOXOXOXOXOXOXK.D * + 7 @.).OXOXOXOXOX3 + + O p OXOXOXOXOXOXOXOXOXOXOXOX).b     ",
"    b H.OXOXOXOXOXOXOXOXOXOXOXOXOXOXOX- + f OXOXOXOXOXOXOX5 + + O A OXOXOXOXOXOXOXOXOXOXOXOXOXb     ",
"    b R.OXOXOXOXOXOXOXOXOXOXOXOXOXOXOX- + s OXOXOXOXOXOXOX3 + + + z.OXOXOXOXOXOXOXOXOXOXOXOXOXU     ",
"    b .XOXOXOXOXOXOXOXOXOXOXOXOXOXOXOX; + s OXOXOXOXOXOXOX3 + + , R.OXOXOXOXOXOXOXOXOXOXOXOXOX^ b   ",
"    F OXOXOXOXOXOXOXOXOXOXOXOXOXOXOXOX- + f OXOXOXOXOXOXOX3 + $ c OXOXOXOXOXOXOXOXOXOXOXOXOXOXW b   ",
"    ^ OXOXOXOXOXOXOXOXOXOXOXOXOXOXOXOX- + f OXOXOXOXOXOXOX5 + u oXOXOXOXOXOXOXOXOXOXOXOXOXOXOXU     ",
"    J OXOXOXOXOXOXOXOXOXOXOXOXOXOXOXOX- + f OXOXOXOXOXOXOX3 + a OXOXOXOXOXOXOXOXOXOXOXOXOXOXOXb     ",
"    b OXOXOXOXOXOXOXOXOXOXOXOXOXOXOXOX- + s OXOXOXOXOXOXOX3 + a OXOXOXOXOXOXOXOXOXOXOXOXOXOX).b     ",
"    v ).OXOXOXOXOXOXOXOXOXOXOXOXOXOXOX; + s OXOXOXOXOXOXOX3 + s OXOXOXOXOXOXOXOXOXOXOXOXOXOXv.b     ",
"    v H.OXOXOXOXOXOXOXOXOXOXOXOXOXOXOX- + f OXOXOXOXOXOXOX5 + s OXOXOXOXOXOXOXOXOXOXOXOXOXOX+.F     ",
"    V 3.OXOXOXOXOXOXOXOXOXOXOXOXOXOXOX; + f OXOXOXOXOXOXOX3 + a OXOXOXOXOXOXOXOXOXOXOXOXOX.XU F     ",
"    V ..OXOXOXOXOXOXOXOXOXOXOXOXOXOXOX- + f OXOXOXOXOXOXOX3 + a OXOXOXOXOXOXOXOXOXOXOXOXOXx.F       ",
"      I ).OXOXOXOXOXOXOXOXOXOXOXOXOXOX- + f OXOXOXOXOXOXOX5 + a OXOXOXOXOXOXOXOXOXOXOXOX.XJ b       ",
"      V R.OXOXOXOXOXOXOXOXOXOXOXOXOXOX; + s OXOXOXOXOXOXOX3 + s OXOXOXOXOXOXOXOXOXOXOXOX3.F         ",
"      b w.OXOXOXOXOXOXOXOXOXOXOXOXOXOX3 + f OXOXOXOXOXOXOX9 + j OXOXOXOXOXOXOXOXOXOXOXv.F N         ",
"      N U OXOXOXOXOXOXOXOXOXOXOXOXOXOXc 5 ) OXOXOXOXOXOXOXD 5 ;.OXOXOXOXOXOXOXOXOXOXK.U b           ",
"        F .XOXOXOXOXOXOXOXOXOXOXOXOXOXOX.XOXOXOXOXOXOXOXOXOX).OXOXOXOXOXOXOXOXOXOXV.J F             ",
"        b _.OXOXOXOXOXOXOXOXOXOXOXOXOXOXOXOXOXOXOXOXOXOXOXOXOXOXOXOXOXOXOXOXOX.Xd.U N               ",
"        b _.OXOXOXOXOXOXOXOXOXOXOXOXOXOXOXOXOXOXOXOXOXOXOXOXOXOXOXOXOXOXOXOXR...J V                 ",
"        N _.OXOXOXOXOXOXOXOXOXOXOXOXOXOXOXOXOXOXOXOXOXOXOXOXOXOXOXOXOXOXI.a.J b b                   ",
"        I OXOXOXOXOXOXOXOXOXOXOXOXOXOXOXOXOXOXOXOXOXOXOXOXOXOXOXOXQ.d...J b N                       ",
"      b F OXOXOXOX.Xz.O.W U U U F ..&.d.d.K.H._..X_..X).K.K.x.,.I J J F J                           ",
"      V ~ OXOX).w.J b N V V F V F N N b V V V b b b b b V V b b V V                                 ",
"      V ..OXv.W V b                             N b V                                               ",
"      b <.w.F b                                                                                     ",
"      F U b V                                                                                       ",
"      F V V                                                                                         ",
"      N V                                                                                           ",
"      F                                                                                             ",
"                                                                                                    "
};
