/* XPM */
static char *_669388627881[] = {
/* columns rows colors chars-per-pixel */
"50 50 49 1 ",
"  c #2E5753",
". c #2F5B53",
"X c #325C52",
"o c #3E6F4F",
"O c #3D754F",
"+ c #3E794F",
"@ c #336352",
"# c #366B51",
"$ c #386D51",
"% c #397150",
"& c #41744E",
"* c #437D4D",
"= c #5FA23E",
"- c #63AB3F",
"; c #6AAA3F",
": c #72AC3F",
"> c #7FAD3F",
", c #45844D",
"< c #49844C",
"1 c #46894C",
"2 c #4A8C4A",
"3 c #518D49",
"4 c #4F9747",
"5 c #4E9149",
"6 c #549647",
"7 c #5C9547",
"8 c #559A46",
"9 c #599E44",
"0 c #519548",
"q c #6C9C46",
"w c #759648",
"e c #5DA342",
"r c #61A641",
"t c #6CA741",
"y c #62A940",
"u c #6AAB41",
"i c #74A443",
"p c #7BA145",
"a c #72AD44",
"s c #7FAB48",
"d c #76B044",
"f c #78B245",
"g c #97AE3F",
"h c #879849",
"j c #80AB40",
"k c #85AF4D",
"l c #97BC54",
"z c #9FBD55",
"x c #B3AA42",
/* pixels */
"e6------yyy-ps;y;-u;0yy-;-ey-ye-e<ey-:wj>:-e8e--gx",
"--9y----ee----9---9--y----ee-ee---ee-------------8",
"--e5e9-------y988yyeey-----r-------------y-----ee4",
"e45@1y------8e+#6y-ey--y---9y-----------yy------4#",
"-9,&*2e------0*&,e-99yey--e6y-----------ey----ee-y",
"----------y8-----y8e+59y698e----e-------ee----9--y",
"--y--------e------9+X@,,9ee-----e--------yy--e----",
"r-yy4-------y-ye9-yyyye<2e8----------ey-yeyy-yee--",
"0y------e-9eey-------u---yeyy9y9-ee-e9ey48eey99eey",
"0ee----ee-9590y------4----ey-eye8ee-eey5,@2eye#%8y",
"#0--y---y4,@Oe---5---y---yy8e-8,*e-25e-yeee--yeey-",
"----e9----------4e-e-----4-e---y----------e---y8-y",
"re----------ee---+4e------e9--------yy9y--99------",
"re------ee--ryr-yeee-y4y-----ye---8e;yry-eqe------",
"2yy-----9e--ir9-------y---------e8--yeia-y9<8y---y",
"-ey-----e---y-ye---y-----=e--------yee---yuaey---r",
"-e0e9-------y-ye---------yeree=-------6y--uuee--yr",
"59#,eey----y--y---ee-----5-6O,6-----y9,,99---9--y-",
"e,&&14y---yey-----ey--tu-yr-------ye--eo1e------yf",
"yy--yey---y4e---iauy--pu-y9-------y9--e220y----yuk",
"-----------yeey-tuu---yy----5---y-------yy-------u",
"y-y2-y--y-yyy-y--y2y--yy--------yyyye---y------yy-",
"=---eeyy8y4e----ry61ey5e--------5y49ee-e8------ee-",
"e9--e-uyy44e----e5@.1yyr--------ye4%%4e-y--y9---eu",
"5eyye8yy-=e------eeee-------e5---eeeee=----yy---ey",
";-yy*6yy------e4-----ye--------------yeg----eey5ey",
"ryyr3eu-ee---------ee----=-------e--9,0r------82#4",
"ryyy----ee-----yy--ey-----y-----ee-ye8---8y---9989",
"ree----e8--ee-ee9--------e---y--9----y---y--y---yy",
"-99------e---yy-yy--ee---5---6-------8e-----ye--y5",
"6e<e-----e-eee-----y88-=-----------9e9yy----y9yyyi",
"9+&1-----e-yey------e5ee---------r9eyy------9eyyyu",
"r-ey--y---y1,6----yyy&0---e---5,-e-e5y5eyy-------e",
"e-----6y----------6uuy---r9--95eeeeeyee+0e-y--yye-",
"---6---------------uu--u-----e9eeee,06$ %4e99rr9=-",
"=--e-;;---5y---y-yyey-y--y----eyyeyeyyeeee2367902e",
"ye--y----eyyr-e8-5ee--yye16e----y-----ey--=e--y-e-",
"8e-------9yee---90#1e-yr,X*6y-------ee9e9--6e806el",
"tyyy08e------e--ee9e----999e---------4,ee9e1*6**2z",
"ay-y<0yyyy-------9e9---------------e-yy--e--r-r0y-",
"rery3126099998-9-------eeye--------0----yeye------",
";e4-r-y99er28o5e------ee-=e--------y----e+29------",
"09#<yy-e0--9OX@1ey----ye-----e=-y-yy9---0@@,8-----",
"t*o*99ey00-----------e-8e-------5-4eer------y----e",
"t-----94.@----------eeee--ee-----e9%O0e-yey------8",
";-----=,87----5-----------ye-3---ee89e--e80------;",
";--8---hd;----=---y--e8e----------y--y--yeyy--y-e-",
";--0----e=------yy4-4ee-y-yy----ye--e9-yyey---5-89",
"ye------e4e4yyy----e5#*y-66-----ee-yrie=-------e4%",
"3r-y--y5e#,y--y0---yeee06&<-----2---yuy---y5---eee"
};
