/* XPM */
static char *_d257bca9e074d9b9cd9d834c30e748a8wvuRZfFehBLxXUm[] = {
/* columns rows colors chars-per-pixel */
"50 50 198 2 ",
"   c None",
".  c #7C3533",
"X  c #7D3833",
"o  c #763635",
"O  c #70423C",
"+  c #6D443E",
"@  c #554C46",
"#  c #564E48",
"$  c #514743",
"%  c #5A5149",
"&  c #63564B",
"*  c #685A4D",
"=  c #705D4E",
"-  c #6E5F51",
";  c #705F50",
":  c #6D6253",
">  c #6D6B5C",
",  c #756454",
"<  c #786755",
"1  c #7D6A56",
"2  c #756B5B",
"3  c #7F6E5B",
"4  c #77715F",
"5  c #777765",
"6  c #9A3917",
"7  c #833B33",
"8  c #893E32",
"9  c #933924",
"0  c #8C4232",
"q  c #884835",
"w  c #944432",
"e  c #9A4631",
"r  c #944B32",
"t  c #9C4A31",
"y  c #9D5232",
"u  c #955735",
"i  c #AE552F",
"p  c #AE5B2F",
"a  c #A7542F",
"s  c #B0562F",
"d  c #B45B2F",
"f  c #B85F2E",
"g  c #A34D31",
"h  c #A94E30",
"j  c #A45330",
"k  c #AB5230",
"l  c #A65B33",
"z  c #AA5B30",
"x  c #B15D32",
"c  c #B4612E",
"v  c #BC632E",
"b  c #BC692D",
"n  c #AC6E36",
"m  c #A76535",
"M  c #B46432",
"N  c #BC6A31",
"B  c #BA6430",
"V  c #AB7037",
"C  c #BC7234",
"Z  c #B27538",
"A  c #C6671E",
"S  c #C0662D",
"D  c #C46B2D",
"F  c #CA6F2B",
"G  c #CD732B",
"H  c #CF792E",
"J  c #C7712F",
"K  c #D0772B",
"L  c #D27C2D",
"P  c #C16E30",
"I  c #C47332",
"U  c #C47B36",
"Y  c #CC7D32",
"T  c #C97734",
"R  c #805F4E",
"E  c #80614F",
"W  c #826E59",
"Q  c #806B56",
"!  c #84725C",
"~  c #8D7558",
"^  c #967657",
"/  c #916244",
"(  c #B47648",
")  c #A56D4C",
"_  c #8A7D65",
"`  c #877762",
"'  c #907D60",
"]  c #C77C45",
"[  c #BE833A",
"{  c #D4812F",
"}  c #CB8236",
"|  c #C48A3A",
" . c #CB8D3A",
".. c #C68538",
"X. c #D58431",
"o. c #D68A33",
"O. c #DB8F34",
"+. c #D98C33",
"@. c #D38A35",
"#. c #CD933C",
"$. c #DD9235",
"%. c #DF9636",
"&. c #DE9435",
"*. c #DC9336",
"=. c #DF9837",
"-. c #DA9538",
";. c #DD9B3A",
":. c #D79B3D",
">. c #E09937",
",. c #E19A37",
"<. c #E19B38",
"1. c #E29C38",
"2. c #E39E39",
"3. c #E29D39",
"4. c #DDA23E",
"5. c #E5A23A",
"6. c #E7A53B",
"7. c #E4A43C",
"8. c #E8A73C",
"9. c #E8A63B",
"0. c #E6AA3F",
"q. c #E9A93D",
"w. c #EBAC3E",
"e. c #ECAE3F",
"r. c #EBAD3E",
"t. c #EDB03F",
"y. c #EDB03F",
"u. c #9C8159",
"i. c #A88654",
"p. c #BA9454",
"a. c #A9844F",
"s. c #8B836B",
"d. c #91846C",
"f. c #91886E",
"g. c #8C8B75",
"h. c #938D72",
"j. c #978F79",
"k. c #979276",
"l. c #9B957D",
"z. c #9C9A7C",
"x. c #AE966F",
"c. c #B9A370",
"v. c #D08249",
"b. c #D4A24C",
"n. c #D4A554",
"m. c #E5AB47",
"M. c #EEB240",
"N. c #EEB140",
"B. c #EFB441",
"V. c #EEB240",
"C. c #F0B541",
"Z. c #F0B441",
"A. c #F1B641",
"S. c #F1B742",
"D. c #F1B641",
"F. c #E2B359",
"G. c #C39A7D",
"H. c #CAA875",
"J. c #E7B964",
"K. c #EBC47C",
"L. c #989A85",
"P. c #A09E81",
"I. c #9EA28D",
"U. c #A3A384",
"Y. c #A7A58A",
"T. c #A7AA8A",
"R. c #AAAE8C",
"E. c #A5A887",
"W. c #ABB08E",
"Q. c #AFB497",
"!. c #B1B696",
"~. c #B5BC9B",
"^. c #B4B99C",
"/. c #AFAE90",
"(. c #B9BCA2",
"). c #C3B282",
"_. c #BBC19F",
"`. c #BDC4A4",
"'. c #DACD9B",
"]. c #E5D49F",
"[. c #C3CBAD",
"{. c #C1C5A9",
"}. c #C6D0AF",
"|. c #CCD6B6",
" X c #CED8B9",
".X c #CAD4B5",
"XX c #D2DDBD",
"oX c #DADEBC",
"OX c #D7D3AC",
"+X c #E6D6A3",
"@X c #D4DFC0",
"#X c #D6E1C2",
"$X c #D9E5C6",
"%X c #DDEACA",
"&X c #DBE7C8",
"*X c #E1EECE",
"=X c #E9EEC8",
"-X c #E4F2D2",
/* pixels */
"                                                                                                    ",
"                                  8 8 t d d d d d d d d s w 8                                       ",
"                            7 w h z L =.y.y.Z.y.Z.N.N.y.e.X.I i h 7                                 ",
"                        X 0 k U L L N.N.S.Z.S.S.Z.Z.Z.S.y.B.5.K $.z k X                             ",
"                      8 h d K 9.N.N.6.S.B.Z.S.y.S.y.B.B.B.B.6.Z.w.5.F i g X                         ",
"                  7 h v O.1.>.+.Z.Z.B.8.B.6.Z.S.S.S.B.5.B.Z.Z.Z.Z.L >.3.T f t                       ",
"                8 s X.y.$.X.5.S.Z.Z.Z.B.Z.S.=.y.y.e.B.Z.S.Z.S.B.Z.Z.5.L <.w.G g                     ",
"            k g t f o.o.Z.Z.Z.Z.Z.Z.Z.S.S.B.Z.=.{ q.y.Z.B.B.S.Z.Z.Z.Z.Z.Z.L { s k w                 ",
"            8 h S q.$.+.>.y.Z.Z.Z.S.S.S.y.=.A.y.S.y.6.e.y.S.y.S.S.y.y.w.9.K 9.1.x t                 ",
"          g w M q.5.>.q.9.+.y.S.S.S.y.y.B.y.S.S.S.S.S.S.S.Z.Z.S.S.S.y.,.+.y.{ w.8.k 7               ",
"      k g 7 x *.$.G 5.+.>.9.>.2.y.S.y.e.S.Z.S.Z.S.S.y.y.Z.S.S.y.S.y.y.y.{ 2.+.L O.X.g t             ",
"        g t D F w.>.+.N.>.K +.S.y.S.S.S.y.S.S.y.y.S.S.S.Z.y.e.S.S.y.1.L 1.e.L 9.1.v G w             ",
"      k w x F 2.K K +.o.y.+.S.Z.y.=.S.Z.B.B.B.S.Z.B.Z.Z.S.S.6.L S.Z.S.X.Z.L +.K K >.F M 7 t k       ",
"      k w F =.H D q.+.+.>.y.+.,.y.S.y.S.$.A.B.B.S.y.S.Z.y.B.Z.y.e.o.2.w.5.L 5.1.B L H N.r S         ",
"    k k z d H G K f 2.q.5.+.y.,.o.S.$.y.A.A.$.S.B.y.%.Z.y.y.3.y.1.+.y.+.+.y.X.v X.N.H e 8 b a D     ",
"      N.{ F p f F G 5.o.K 5.{ S.{ { y.S.y.5.y.Z.B.=.q.y.S.y.3.o.1.w.>.2.K >.X.F G s B | j G h       ",
"  H B 0 #.B n =.s D K G $.+.%.=.y.{ y.G y.q.Z.y.>.>.y.y.5.K w.L q.>.{ >.L K K 9.N J 0 g z o d H     ",
"D k w y O.0 B D C v T -.D +.N.X.L 6.&.>.L 5.K >.+.S.K e.K w.>.2.O.{ Z.L U X.x N z L U w c d 7 g K   ",
"      ;.D 0 S z +.s D d G +.X.L w.$.y.>.q.+.+.>.q.5.L 9.2.8.,.9.<.K =.K 2.H G v :.U H G j s h       ",
"  h e ;.b r t 7 a { w.g b D F J H %.+.y.K 2.w.{ +.+.y.X.+.w.>.{ P G v G f N.L D F 7 h [ 4.7 F J     ",
"  g h b f X.| h d K D v J f 2.P K Z.L L B 2.X.{ N.X.%.X.S X.>.w.F P +.s F Y 0 D t c 8 t { d 0       ",
"  c l t e t 7 x e d :.@.h i F D D { <.O.N.G { q.D F G G s O.X.+.d G Y k D w f D 8 w J s w 0 k z     ",
"  D g q.} b b 0 z k F k v +.5.d ..o.K X.S U L m.D d =.P d *.U 8 x S 8.@.7.O.t f b w w w 2. .a f     ",
"  X w s M n g 7 w j V j D b v U L k b -.F P F P F C X.N F 2.D G K s s =.x G t t c 0 h j G t   X h   ",
"      b v ;.. 0 d u +.g g t 7 f F B N v k k 2.f M D D s k J N.x G s a j t r ;.;.S . m.@.r t J       ",
"      X w q q 7 7 g t t b 0 b w D H q.h F v s h O.N k G S F F 0 i 0 F 7 b k w l 7 X u t d a 7       ",
"        F +. .8 t g c M r 0 w z y 4.r t G i x f b d h x D t e x a t t 7  . .v S 7 X D d y.          ",
"        f X . e t . y M #.t d 8 X Y M w k c w b g g k D w e.Y w . e w h Z a w j h g j t             ",
"      B.L     e X 0 J i  .w r j D g v x x 8 w t z d t M g g J 8 t 7 8 t F Y y.8 X 8 r w.J           ",
"        w J . X X q m j r . h 7 7 } w.h 8 k 7 7 k b 8 S 0 s t 6.[ 7 w X X 0   X X X . t 7           ",
"        <.      X u O.k F e 7 r 7 G r e 8 w X X 8 8 X g 0 D a 0 q X t 8   w 4.#.X   B.@.            ",
"          M     X   b 7.  X X a.4.g X X X 7 t . 8 8 7 X . :.} F y X X X   F t   X     j G           ",
"          6.        t N   X   ^ l k J o X X X X X . X X X n j 0 q ;     #.D           t L           ",
"                      M         ( ( p.W - X o . X & X o % J X.q.> `       ..J         F  .          ",
"                    H D 5.      g x b.E.d.< W !.L.L.< 4 h.% 9 %XXX!       n             V           ",
"                      h     ! 3 m.*.U l._ d.k.=X&X-X.XE.; # ) m.+XT.Q !   B.X.K     K $.Z.          ",
"                    N.G ^ W * , oX6 oX.XE.W ! _ T.Q.*Xz.- * D r ' E., W W i.o.        =.            ",
"                    . k     , ).K.) *X-XR.W : E.U.g.W.s.f.n.c U.$XXX5 1 1 ~ i.,                     ",
"                    S.1.G 1 /.=X( F R.$X` I.-X-X*X~.P.% h.p.C v.-X-XXX* < # #                       ",
"                      *.H.}.Q.l.d.G.).j.4 `.R.P.R.*Xh.3 T.z.b `.U.z.R.5 ;                           ",
"                  l.U.F.OX%X-X!.] @.b.& g.P.f.R.E.z., 1 P._.J.J x.~.#X-X                            ",
"                [.-X-X!.T.f.@XW.' j 2 $X%X*X$Xk.W._ % 3 -X*X].Y = -X*X!.R.d.                        ",
"              _ (.~.#XXX_ < & / U V.oX{.P.Y.-X%XU.& % & Y.f.z.i.% j.E.d. X*XP.                      ",
"            Q R.W.h.f.&         U '.}.-X@XP.R.(.s.      & |.@XP.& % < Y. XR.|.(.                    ",
"              @ $ @           [.H.c.T.T. X}.h.-           k.|.|.L.      ; Q.XXW._                   ",
"                            s.R.R.P.z.Q z.s.#               (.[.s.          # @ 1                   ",
"                            $X-X`.k.1 :                     2 Q.^.                                  ",
"                          Y.`.!.%XQ.                      _ &X5                                     ",
"                            E.z.2                         5 >                                       ",
"                                                                                                    "
};
