/* XPM */
static char *_38eed91aff04a11de051883b514772fWkzaEAoGLdqZrSy3[] = {
/* columns rows colors chars-per-pixel */
"50 50 199 2 ",
"   c None",
".  c #293D44",
"X  c #2C4C4A",
"o  c #2A4646",
"O  c #354743",
"+  c #2D534F",
"@  c #2E5E4D",
"#  c #2E5A43",
"$  c #2E5B51",
"%  c #305A51",
"&  c #2E624C",
"*  c #33644C",
"=  c #326C4C",
"-  c #3B6C4D",
";  c #366845",
":  c #327547",
">  c #32744E",
",  c #3C714E",
"<  c #347C4D",
"1  c #3A7B4E",
"2  c #367544",
"3  c #2E6953",
"4  c #2E6251",
"5  c #376851",
"6  c #2F7351",
"7  c #337351",
"8  c #3C7452",
"9  c #3B7E50",
"0  c #337950",
"q  c #4E4A48",
"w  c #564E48",
"e  c #5D554D",
"r  c #5F584E",
"t  c #545A53",
"y  c #635D52",
"u  c #49674B",
"i  c #417D45",
"p  c #43734B",
"a  c #457B4C",
"s  c #4D7D4F",
"d  c #557C4F",
"f  c #427A52",
"g  c #4A7951",
"h  c #696457",
"j  c #6C6A5C",
"k  c #6B6659",
"l  c #716D5E",
"z  c #62715B",
"x  c #72705E",
"c  c #697562",
"v  c #757361",
"b  c #7B7A66",
"n  c #797B68",
"m  c #398D47",
"M  c #35834A",
"N  c #3B834D",
"B  c #378949",
"V  c #3C8C4A",
"C  c #398444",
"Z  c #3F9247",
"A  c #44844D",
"S  c #4A854B",
"D  c #438B4C",
"F  c #4B8B4D",
"G  c #4F8D45",
"H  c #52834F",
"J  c #558A49",
"K  c #449746",
"L  c #459249",
"P  c #4B924C",
"I  c #4D9A4A",
"U  c #429844",
"Y  c #52954E",
"T  c #539B4C",
"R  c #599D4E",
"E  c #569A46",
"W  c #438352",
"Q  c #458A50",
"!  c #4B8D50",
"~  c #498551",
"^  c #548453",
"/  c #548D53",
"(  c #5C8756",
")  c #4F9050",
"_  c #539551",
"`  c #5B9554",
"'  c #569851",
"]  c #5C9B53",
"[  c #62864F",
"{  c #64994D",
"}  c #689A4F",
"|  c #659E54",
" . c #6B9B53",
".. c #699E59",
"X. c #649757",
"o. c #55A14A",
"O. c #5CA44C",
"+. c #5EAA4A",
"@. c #58A847",
"#. c #5EA151",
"$. c #62A54D",
"%. c #62AC4C",
"&. c #6AAB4F",
"*. c #64B149",
"=. c #6CB44D",
"-. c #6CB84B",
";. c #64A554",
":. c #6CA655",
">. c #66A952",
",. c #6CAC54",
"<. c #6CA459",
"1. c #6FA95A",
"2. c #67A258",
"3. c #73AB56",
"4. c #72AC59",
"5. c #7AAE5C",
"6. c #71A35C",
"7. c #6DB252",
"8. c #73B455",
"9. c #76BA53",
"0. c #7ABB56",
"q. c #75B159",
"w. c #7AB55B",
"e. c #7DBB5A",
"r. c #738163",
"t. c #6D8770",
"y. c #7EC255",
"u. c #81BC5D",
"i. c #83836D",
"p. c #878870",
"a. c #8A8B73",
"s. c #878878",
"d. c #838474",
"f. c #8E9176",
"g. c #809672",
"h. c #929479",
"j. c #96987D",
"k. c #989B7E",
"l. c #86BD60",
"z. c #9DBF78",
"x. c #83C557",
"c. c #81C159",
"v. c #86C65A",
"b. c #86C25D",
"n. c #87C45D",
"m. c #84C25B",
"M. c #89C65E",
"N. c #8AC65E",
"B. c #8AC95C",
"V. c #8DCA5F",
"C. c #8FCD5E",
"Z. c #8BCA5D",
"A. c #87C859",
"S. c #90CE5F",
"D. c #87C160",
"F. c #8AC361",
"G. c #8FCA61",
"H. c #8EC961",
"J. c #92CE61",
"K. c #91CC62",
"L. c #95D162",
"P. c #9AD365",
"I. c #9B9E83",
"U. c #9B9F88",
"Y. c #8AA185",
"T. c #9EA283",
"R. c #94A687",
"E. c #A1A586",
"W. c #A2A78A",
"Q. c #A6AA8A",
"!. c #A9AE8D",
"~. c #ABB08E",
"^. c #A5BE8F",
"/. c #AAAF91",
"(. c #ADB394",
"). c #ACB49C",
"_. c #B1B795",
"`. c #B3BA9B",
"'. c #B8BF9F",
"]. c #B0B79A",
"[. c #B6BEA5",
"{. c #ABC396",
"}. c #B4D99C",
"|. c #BCC5A5",
" X c #BAC4A9",
".X c #BFC8A9",
"XX c #C3CCAC",
"oX c #C6D0AF",
"OX c #C3CDB0",
"+X c #CBD5B5",
"@X c #CFDABA",
"#X c #CDD7B8",
"$X c #D2DEBE",
"%X c #D5E1C1",
"&X c #D9E6C6",
"*X c #DDEBCB",
"=X c #E1EECE",
"-X c #E2EFD0",
";X c #E4F1D1",
/* pixels */
"                                                            T                                       ",
"                                                      *.` q.D.                                      ",
"                            7.                    +.7.0.,.F v.      +.                              ",
"                            0.H.0.8.        =.D.  ' e.F.e.s C <.  v.F.y.$.                          ",
"                            w.w.F.n.y.;.O.4.q.,.  ] o.:.4.d | L.G.G.9.9.B.                          ",
"                          ;.] 3.] Z.G.0.n.1.,.q.< ~ q.,.H V.L.A.y.H.+.B.9.K   7.+.                  ",
"                      %.8.9.  T 4.v.e.;.+.-.0.y.7 3 A 8.S.Z.Z.J.%.0.0.>.b.y.x.T                     ",
"            O.        =.9.c.' W ) / e.2.C.F.w.7.e.1 V Y Z.7.V.7.O.:.! y.n.x.P.c.0.                  ",
"        ' w.e.l.  7.c.&.F K -.+.L 0 M = Y >.q.` 9.4.D S F R 8.q.7.8.C.0.L.7.Z.%.T ) -.L @.          ",
"        ,.;.4.e.0.>.+.>.T o.T %.2.q.! N < 0 0 < 4.c.J.K.,.o.M > >.P 9.@.o.O.%.H.F.c.u.e.m.%.        ",
"  1.    <.| e.K.u.8.P m L V 6 W N u.F.7.7 B M Q D.0.x.S.J.v.8.Y > T +.%.o.w.e.n.H.e.K.2.M.8.        ",
"  ;.F.w.l./ l.;.7.9.8.%.I +.R L P O.3 N :.+.B < B D T 9.9.A.H.A.T M $ < =.8.w.#.M D.4.5.C <.A.V.e.  ",
"  u.e.e.%.%.f +.u.2.x.,.A +.P ' N P Y R N ] ,.%.6 & B 2 A Y N @.@.K @ V 7 D -.*.I ] e.2.R b.F.e.4.  ",
".., <.F *.O.O.K < V ,.F.0.0 N I %.I O.E 8.4.F.} : & = #.,.b.O , T R $ 3 0 I R +.o.9.y.;.u.m.<.6.] w.",
"  b.0.>.Y Y P > M < T :.u.H.D.T I E O.Y T Y ' C # C J x.5.e.$.%.A 1.8.= * V O.O.+.-.o.T ;.:.[       ",
"  7.a 1.V ,.,.%.N B 3 < ;.4.! u.M.o.i z @.M @ ' ;.m ;.4.q.K.l.| 1 1.9.1 ,.N %.+.D O.P 9 a X.  x.    ",
"    | ` 4.J.u.u.] a 9 7 M 7.w.e.:.& c a.J ; # ; =.S.H.P w.q.w.- _ D >.8.:.V V R *.@.I #.] q.x.u.S.  ",
"      ( g f - $.Z.e.H ) m ) L 0.g.].k.        u.5.S.C.V.O.q.%.I 0.W c.y.w.w.;.Q 9.e.c.7.c.D ,.w.M.  ",
"        3.4.5. .+.l.0.q.' p + t $X`.        @.;.| ` B.e.9.x.T N A.e.P.%.v.y.M F.C.=.H.n.Z.8...L.&.  ",
"         .,.e.e.e.W q.] o.F.  n +XXXb         n Y.* P O.! ! =.g Z.H.c.%.8.P.Z.n.9.&.' D * u X...    ",
"      [ | 2.2.&.;.A L F * F.w.K.R.=X$X(.b     XX;X X4...` / N Z v.n.B.W u.O.L P R = a ;             ",
"      ^ G A T A O.@.L Y 5 D.w._ f.@X;X;X+XW.a.+X}.^.F.` w.` F 9.8.L ' B N F _ S { &.e.A.            ",
"    q.M.i 5 p 1 ] X.< A ^ F.Z.E u k.$X;X$X*X$X*X{.5.4.u.q.P.:.F.9 < ! *.E S 0.| 4.e.;.M.8.0.        ",
"    8 ` e.8.u.F.0.J.<.w.P.c.) p   e f.(.&X;X$X;X%Xz.u.4.l.2.] 7.4 = B *.P -.q.>.>.N 0.b.=.8.        ",
"    ` 4.n.4.4.! q.+.0.:.F.N 8 X       |.$X*X+X*X[.$X( f 7 * t.Y.t q < V I A R %.| ;.0.u.]           ",
"        ' :.' T 0.0.7.#.+.T ! % ). X+X|.XXXX*X|./.=X-X).)..XW.l     & 2 = : M M : B 1 >             ",
"              5 V O.o.N P ,   X U.[.#XXXj.*X;X/.h._.`.!.h.d.U.              o                       ",
"              a & 7 $ X ,         j k a.f.=X$X~.b j.~.!.k $X$X                                      ",
"                  .                 OXk `.;X|.~.!.i.l b I.%X*X                                      ",
"                                    =X_._.*X~.~.~.~.!.~.!.$X*X                                      ",
"                                    ;X`.!.XX~.~.~.~.!.~.!.XX=X                                      ",
"                                  +X=X(.~.~.~.~.~.~.(.!.!.XX;XXX                                    ",
"                                  +X&X~.~.~.~.~.~.~.~.~.Q._.-XoX                                    ",
"                                  #X&X~.Q.T.h.h.f.f.i.b Q.~.-XXX                                    ",
"                                  +X%X~.!.~.~.Q.h.l r.Q.~.~.=XXX                                    ",
"                                  XXXX~.~.~.~.~.~.~.~.!.~.!.=XXX                                    ",
"                                  s.`.~.~.!.~.~.~.~.~.~.~.~.$XoX                                    ",
"                                  (.e v T.!.~.!.~.~.~.~.~.~.+XU.                                    ",
"                                  $XE.a.l h k.Q.Q.~.~.~.~.~._.y                                     ",
"                                  @X~.~.!.!.!.!.!.!.~.~.~.~.i.w                                     ",
"                                  XX~.~.~.~.~.~.~.~.~.!.!.f.r h.                                    ",
"                                  |.~.~.~.~.~.~.~.~.E.k.l l T.Q.                                    ",
"                                  Q.~.~.~.~.~.!.E.k.a.E.E.~./.k.                                    ",
"                                  I.~.~.~.~.~.~.~.~.~.~.~.~.!.j.                                    ",
"                                  Q.a.!.~.!.~.~.~.~.~.~.~.~.~.k.                                    ",
"                                  h.T.b b E.Q.~.~.~.~.~.~.~.!.l                                     ",
"                                  y E.!.Q.!.!.~.~.~.~.~.!.!.b                                       ",
"                                    y E.~.!.~.~.~.~.~.~.W.b                                         ",
"                                        v a.h.W.W.T.a.v y                                           ",
"                                              e e e                                                 "
};
