/* XPM */
static char *_669385443499[] = {
/* columns rows colors chars-per-pixel */
"50 50 148 2 ",
"   c #372519",
".  c #3F2A1E",
"X  c #432E20",
"o  c #452F22",
"O  c #473022",
"+  c #493224",
"@  c #4A3224",
"#  c #4B3325",
"$  c #4B3425",
"%  c #4C3426",
"&  c #4E3526",
"*  c #4E3527",
"=  c #4E3627",
"-  c #4F3827",
";  c #4F3A27",
":  c #4E3C26",
">  c #4E3E26",
",  c #503627",
"<  c #503728",
"1  c #513728",
"2  c #513828",
"3  c #523828",
"4  c #523829",
"5  c #523929",
"6  c #533929",
"7  c #54392A",
"8  c #543A2A",
"9  c #553A2A",
"0  c #563B2B",
"q  c #573C2B",
"w  c #583C2C",
"e  c #583D2C",
"r  c #593D2C",
"t  c #5A3E2D",
"y  c #3B5F13",
"u  c #3D5D15",
"i  c #37640E",
"p  c #37650E",
"a  c #37640F",
"s  c #37650F",
"d  c #38660F",
"f  c #38670F",
"g  c #39670F",
"h  c #39680F",
"j  c #39690F",
"k  c #3A690F",
"l  c #3A6A0F",
"z  c #3B6B0F",
"x  c #386210",
"c  c #3A6211",
"v  c #396810",
"b  c #3A6910",
"n  c #3A6A10",
"m  c #3B6A10",
"M  c #3B6B10",
"N  c #3C6D10",
"B  c #3C6E10",
"V  c #3D6E10",
"C  c #3C6F10",
"Z  c #3D6F10",
"A  c #3D6F11",
"S  c #3D7010",
"D  c #3E7011",
"F  c #3E7111",
"G  c #3F7210",
"H  c #3F7211",
"J  c #3F7311",
"K  c #3F7411",
"L  c #45501E",
"P  c #405818",
"I  c #407311",
"U  c #407411",
"Y  c #407511",
"T  c #417611",
"R  c #417712",
"E  c #427812",
"W  c #437912",
"Q  c #437A12",
"!  c #447B12",
"~  c #447B13",
"^  c #447C12",
"/  c #457C12",
"(  c #447D12",
")  c #457D12",
"_  c #447C13",
"`  c #457C13",
"'  c #447D13",
"]  c #457D13",
"[  c #467E13",
"{  c #467D14",
"}  c #467E14",
"|  c #477E14",
" . c #487E14",
".. c #487F15",
"X. c #4B4323",
"o. c #4A4522",
"O. c #494722",
"+. c #4C4024",
"@. c #474C20",
"#. c #474D20",
"$. c #474E20",
"%. c #494821",
"&. c #484B20",
"*. c #484A21",
"=. c #5D402E",
"-. c #5F4230",
";. c #604230",
":. c #614330",
">. c #634331",
",. c #624431",
"<. c #634431",
"1. c #634432",
"2. c #644532",
"3. c #498016",
"4. c #4A8016",
"5. c #4A8017",
"6. c #4B8017",
"7. c #4B8117",
"8. c #4C8117",
"9. c #4D8218",
"0. c #4D8219",
"q. c #4E8219",
"w. c #4F8319",
"e. c #50841A",
"r. c #51841B",
"t. c #51851B",
"y. c #51851C",
"u. c #52851C",
"i. c #54861D",
"p. c #54861E",
"a. c #55871E",
"s. c #56871F",
"d. c #57881F",
"f. c #578820",
"g. c #5A8A22",
"h. c #5A8B22",
"j. c #5B8B22",
"k. c #5C8B22",
"l. c #5D8C23",
"z. c #5E8D24",
"x. c #5F8E24",
"c. c #608E25",
"v. c #618F25",
"b. c #628F26",
"n. c #639027",
"m. c #639128",
"M. c #649128",
"N. c None",
/* pixels */
"N.N.N.N.N.N.N.N.N.N.N.N.N.N.N.N.N.N.N.N.N.N.N.N.N.N.N.N.N.N.N.N.N.N.N.N.N.N.N.N.N.N.N.N.N.N.N.N.N.N.",
"N.N.N.N.N.N.N.N.N.N.N.N.N.N.N.N.N.N.N.N.N.N.] ] ] ] ] N.N.N.N.N.N.N.N.N.N.N.N.N.N.N.N.N.N.N.N.N.N.N.",
"N.N.N.N.N.N.N.N.N.N.N.N.N.N.N.N.N.N.N.] ] ] ] ] ] ] ] ] ] ] ^ N.N.N.N.N.N.N.N.N.N.N.N.N.N.N.N.N.N.N.",
"N.N.N.N.N.N.N.N.N.N.N.N.N.N.N.N.' ] ] ] 6.p.a.8.] ] ] ] ] ] ] ] W N.N.N.N.N.N.N.N.N.N.N.N.N.N.N.N.N.",
"N.N.N.N.N.N.N.N.N.N.N.N.N.N.N.] ] ] ] s.n.M.M.z.e.] ] ] ] ] ] ] ] ~ Z N.N.N.N.N.N.N.N.N.N.N.N.N.N.N.",
"N.N.N.N.N.N.N.N.N.N.N.N.N.] ] ] ] ] a.M.M.c.0.] ] ) ] ] ] ] ] ] ] ] ` Z N.N.N.N.N.N.N.N.N.N.N.N.N.N.",
"N.N.N.N.N.N.N.N.N.N.N.N.] { 9.y.6.8.M.M.v...] ] ] ] ] ] ] ] ] ] ] ] ] ] D N.N.N.N.N.N.N.N.N.N.N.N.N.",
"N.N.N.N.N.N.N.N.N.N.N.] 7.z.M.M.n.z.n.n.5.] ] ] ] ] ( ] ] ] ] ] ] ] ] ] ] D N.N.N.N.N.N.N.N.N.N.N.N.",
"N.N.N.N.N.N.N.N.N.N.] 4.b.M.m.d.3.] 0.g.] ] ] ] ] ] ] ] ] ] ] ] ] ] ] ] ] ] B N.N.N.N.N.N.N.N.N.N.N.",
"N.N.N.N.N.N.N.N.N.] } x.M.M.u.] ] ] ]  .] ] ] ] ] ] ( ] ] ] ] ] ] ] ] ] ] ] _ n N.N.N.N.N.N.N.N.N.N.",
"N.N.N.N.N.N.N.N.] ] q.M.M.f.] ] ] ] ] ] ] ] ] ] ] ] ] ] ] ] ] ] ] ] ] ] ] ] ] ~ g N.N.N.N.N.N.N.N.N.",
"N.N.N.N.N.N.N.) ] ] s.n.n.h.r.[ ] ] ] ] ^ ] ] ] ] ] ] ] ] ] ] ] ] ] ] ] ] ] ] ] T a N.N.N.N.N.N.N.N.",
"N.N.N.N.N.N.N.] ] ] k.M.M.n.l.t.] ] ] ] ] ] ] ] ] ] ] ] ] ] ] ] ] ] ] ] ] ] ] ] ] V s N.N.N.N.N.N.N.",
"N.N.N.N.N.N.] ] ] d.M.M.z.6.] ] ] ] ] ] ] ] ] ] ] ] ] ] ] ] ] ] ] ] ] ] ] ] ] ] ] ! d N.N.N.N.N.N.N.",
"N.N.N.N.N.) ] ] q.M.M.x.| ] ] ] ] ^ ] ] ] ] ] ] ] ] ] ] ] ] ] ] ] ] ] ] ] ] ] ] ] ] Y a N.N.N.N.N.N.",
"N.N.N.N.N.] ] ] j.M.n.4.] ] ] ] ] ] ] ] ] ] ] ] ] ] ] ] ] ] ] ] ] ] ] ] ] ] ] ] ] ] _ g a N.N.N.N.N.",
"N.N.N.N.] ] ] ] z.M.k.] ] ] ] ] ] ] ( ] ] ] ] ] ] ] ] ] ] ] ] ] ] ] ] ] ] ] ] ] ] ] ] U a N.N.N.N.N.",
"N.N.N.N.] ] ] ] i.M.r.] ] ] ] ] ] ^ ] ] ] ] ] ] ] ] ] ] ] ] ] ] ] ] ] ] ] ] ] ] ] ] ] ` g i N.N.N.N.",
"N.N.N.] ] ] ] ] ] w.u.] ] ] ] ] ] ] ] ] ] ] ] ] ] ] ] ] ] ] ] ] ] ] ] ] ] ] ] ] ] ] ] ] A a N.N.N.N.",
"N.N.N.] ] ] ] ] ] ] ] ] ] ] ] ] ] ] ] ] ] ] ] ] ] ] ] ] ] ] ] ] ] ] ] ] ] ] ] ] ] ] ] ] W a i N.N.N.",
"N.N.^ ] ] ] ] ] ] ] ] ] ] ] ] ] ] ] ] ] ] ] ] ] ] ] ] ] ] ] ] ] ] ] ] ] ] ] ] ] ] ] ] U T g a N.N.N.",
"N.N.] ] ] ] ] ] ] ] ] ] ] ] ] ] ] ] ] ] ] ] ] ] ] ] ] ] ] ] ] ] ] ] ] ] ] ] ] ] ] ] ] ] n d a N.N.N.",
"N.N.] ] ] ] ] ] ] ] ] ] ] ] ] ] ] ] ] ] ] ] ] ] ] ] ] ] ] ] ] ] ] ] ] ] ] ] ' ] ] ] ] ] R a i p N.N.",
"N.N.] ] ] ] ] ] ] ] ] ] ] ] ] ] ] ] ] ] ] ] ] ] ] ] ] ] ] ] ] ] ] ] ] ] ] ] ] ] ] ] ] ] ] d a p N.N.",
"N.N.] ] ] ] ] ] ] ] ] ] ] ] ] ] ] ] ] ] ] ] ] ] ] ] ] ] ] ] ] ] ] ] ] ] ] / ] ] ] ] ] ] Q a a i N.N.",
"N.N.] ] ] ] ] ] ] ] ] ] ] ] ] ] ] ] ] ] ] ] ] ] ] ] ] ] ] ] ] ] ] ] ] ] ] ^ ] ] ] ] ] E v a a i N.N.",
"N.N.] ] ] ] ] ] ] ] ] ] ] ] ] ] ] ] ] ] ] ] ] ] ] ] ] ] ] ] ] ] ] ] ) ] ] _ K H H D n a a a a N.N.N.",
"N.N./ ] ] ] ] ] ] ] ] ] ] ] ] ] ] ] ] ] ] ] ] ] ] ] ] ] ] ^ ] ] ] ] ] ] ] ] ` N i k j M s a a N.N.N.",
"N.N.N.] ] ] ] ] ] ] ] ] ] ] ] ] ] ] ] ] ] ] ] ] ] ] ] ] ] Q Z ! ] ` ] ] ] ] ] ~ a S ] F a a a N.N.N.",
"N.N.N.] ] ] ] ] ] ] ] ] ] ] ] ] ] ] ] ] ] ] ] ] ] ( ] ] ] ] Y h Q ] ] ] ] ] ] ] d d J s a a N.N.N.N.",
"N.N.N.N.' ] ] ] ] ] ] ] ] ] ] ] ] ] ] ] ] ] ] ] ) ] ] ] ] ] ] b z ] ] ] ] ] ] U a a p a a N.N.N.N.N.",
"N.N.N.N.N.' ] ] ] ] ] ] ] ] ] ] ] ] ] ] ] ] ] ] ] ] ] ] ] ] ] B a T ] ] ] W D s a a a a N.N.N.N.N.N.",
"N.N.N.N.N.N.N.] ] ] ] ] ] ] ] ] ] ] ] ] ] ] ] ] ] ] ] ] ] ] ` h a g z n g s a a i i a N.N.N.N.N.N.N.",
"N.N.N.N.N.N.N.N.E ~ ] ] ] ] ] ] ] ] ] ] ] ] ] ] ] ] ] ] ] E m a a S ^ J f a a a a N.N.N.N.N.N.N.N.N.",
"N.N.N.N.N.N.N.N.N.N.C U Q ` ] ] ] ] ] ] ] ] ] ] E A A B b a a a j G M s a a a N.N.N.N.N.N.N.N.N.N.N.",
"N.N.N.N.N.N.N.N.N.N.N.N.N.l V I R Q ~ _ ` ] ] ] ` W F z d s s s a a a a s N.N.N.N.N.N.N.N.N.N.N.N.N.",
"N.N.N.N.N.N.N.N.N.N.N.N.N.N.N.N.a u c d h h v h g f d a a a x y P L N.N.N.N.N.N.N.N.N.N.N.N.N.N.N.N.",
"N.N.N.N.N.N.N.N.N.N.N.N.N.N.N.N.N.4 ; > X.O.*.@.$.#.&.%.o.+.: - < 4 N.N.N.N.N.N.N.N.N.N.N.N.N.N.N.N.",
"N.N.N.N.N.N.N.N.N.N.N.N.N.N.N.N.;.8 < < < < < < < < < < < < < 4 t <.2.2.N.N.N.N.N.N.N.N.N.N.N.N.N.N.",
"N.N.N.N.N.N.N.N.N.N.N.N.N.N.N.2.2.2.;.t 8 4 1 < < < < 2 6 w =.<.2.2.2.2.2.2.<.N.N.N.N.N.N.N.N.N.N.N.",
"N.N.N.N.N.N.N.N.N.N.N.N.,.2.2.2.2.2.2.2.2.2.:.;.-.;.:.,.2.2.2.2.2.2.2.2.2.2.2.2.>.N.N.N.N.N.N.N.N.N.",
"N.N.N.N.N.N.N.N.N.<.2.2.2.2.2.2.2.2.2.2.2.2.2.2.2.2.2.2.2.2.2.2.2.2.2.2.2.2.2.2.2.e 1 N.N.N.N.N.N.N.",
"N.N.N.N.N.N.N.2.2.2.2.2.2.2.2.2.2.2.2.2.2.2.2.2.2.2.2.2.2.2.2.:.=.t t t t t t e 7 < < 4 N.N.N.N.N.N.",
"N.N.N.N.N.N.e r w 9 6 4 6 9 t ;.2.2.2.2.2.2.2.2.2.2.2.2.1.t 5 < < < < % # # # # $ # , N.N.N.N.N.N.N.",
"N.N.N.N.N.N.N.N.1 # @ + X . . O 3 :.2.2.2.2.2.2.2.2.2.<.9 < < = o   N.N.N.N.N.N.N.N.N.N.N.N.N.N.N.N.",
"N.N.N.N.N.N.N.N.N.N.N.N.N.N.N.N.N.N.& <.2.2.2.2.2.2.2.q < < # N.N.N.N.N.N.N.N.N.N.N.N.N.N.N.N.N.N.N.",
"N.N.N.N.N.N.N.N.N.N.N.N.N.N.N.N.N.N.N.N.,.2.2.2.2.<.e < < * N.N.N.N.N.N.N.N.N.N.N.N.N.N.N.N.N.N.N.N.",
"N.N.N.N.N.N.N.N.N.N.N.N.N.N.N.N.N.N.N.N.N.t t t 0 4 < < < N.N.N.N.N.N.N.N.N.N.N.N.N.N.N.N.N.N.N.N.N.",
"N.N.N.N.N.N.N.N.N.N.N.N.N.N.N.N.N.N.N.N.N.N.N.2 < < 4 N.N.N.N.N.N.N.N.N.N.N.N.N.N.N.N.N.N.N.N.N.N.N.",
"N.N.N.N.N.N.N.N.N.N.N.N.N.N.N.N.N.N.N.N.N.N.N.N.N.N.N.N.N.N.N.N.N.N.N.N.N.N.N.N.N.N.N.N.N.N.N.N.N.N."
};
