/* XPM */
static char *_cedd71bc11c467ced15cbe8175e388aCV98yAV944nmkObs[] = {
/* columns rows colors chars-per-pixel */
"50 50 185 2 ",
"   c None",
".  c #342127",
"X  c #372328",
"o  c #39252B",
"O  c #3E282E",
"+  c #362235",
"@  c #3C2431",
"#  c #3B2934",
"$  c #44262C",
"%  c #432A2E",
"&  c #442B34",
"*  c #492E37",
"=  c #43243E",
"-  c #4F273F",
";  c #4A2E39",
":  c #4C3134",
">  c #4D313C",
",  c #543336",
"<  c #52333E",
"1  c #56383C",
"2  c #5B3B3C",
"3  c #623C3B",
"4  c #68443E",
"5  c #472543",
"6  c #4E2D47",
"7  c #4E264D",
"8  c #43234D",
"9  c #502C47",
"0  c #54264E",
"q  c #5A274F",
"w  c #55294D",
"e  c #5C294E",
"r  c #553440",
"t  c #593640",
"y  c #5D3A41",
"u  c #5C334D",
"i  c #5E2651",
"p  c #5F2850",
"a  c #632A4E",
"s  c #6C2D4E",
"d  c #712C47",
"f  c #732E4F",
"g  c #633540",
"h  c #6E3743",
"j  c #633D43",
"k  c #6A3B41",
"l  c #7B3A46",
"z  c #75314E",
"x  c #7C314F",
"c  c #622551",
"v  c #6A2753",
"b  c #632851",
"n  c #6B2A52",
"m  c #742B53",
"M  c #7B2C54",
"N  c #7F3151",
"B  c #674245",
"V  c #6B4244",
"C  c #6F4947",
"Z  c #6D4748",
"A  c #6F4848",
"S  c #724545",
"D  c #764946",
"F  c #7A4B47",
"G  c #734B49",
"H  c #7C4C49",
"J  c #785147",
"K  c #7B514A",
"L  c #813746",
"P  c #84354E",
"I  c #8B364C",
"U  c #933746",
"Y  c #90364F",
"T  c #822F55",
"R  c #853153",
"E  c #8B3353",
"W  c #8F3951",
"Q  c #933554",
"!  c #983753",
"~  c #953953",
"^  c #9C3A53",
"/  c #A03F4F",
"(  c #A43C53",
")  c #AB3E52",
"_  c #8F4245",
"`  c #804E49",
"'  c #884C4A",
"]  c #9D414F",
"[  c #83534C",
"{  c #88564E",
"}  c #89584F",
"|  c #944657",
" . c #9D4B50",
".. c #8C5B51",
"X. c #915E53",
"o. c #A8454E",
"O. c #A24848",
"+. c #B8574F",
"@. c #A34251",
"#. c #AD4152",
"$. c #B24252",
"%. c #B14152",
"&. c #B54352",
"*. c #B64452",
"=. c #B64553",
"-. c #B44453",
";. c #B84552",
":. c #B94652",
">. c #BB4752",
",. c #BC4752",
"<. c #BA4753",
"1. c #BD4852",
"2. c #BE4853",
"3. c #BF4B52",
"4. c #BF4B54",
"5. c #BC4A53",
"6. c #A95959",
"7. c #BC5950",
"8. c #956255",
"9. c #9A6456",
"0. c #976658",
"q. c #9B6758",
"w. c #9D6959",
"e. c #A26D5C",
"r. c #BE6456",
"t. c #B36E5F",
"y. c #A6715F",
"u. c #A8725F",
"i. c #A77261",
"p. c #AB7461",
"a. c #AF7863",
"s. c #B17662",
"d. c #C4564F",
"f. c #C14A53",
"g. c #C34B53",
"h. c #C04953",
"j. c #C44B53",
"k. c #C54C53",
"l. c #C64D53",
"z. c #C24D54",
"x. c #C64E54",
"c. c #C34C53",
"v. c #CB4F53",
"b. c #C94E53",
"n. c #CC4F53",
"m. c #C65052",
"M. c #CD5053",
"N. c #CE5153",
"B. c #CE5253",
"V. c #CA5054",
"C. c #CC5153",
"Z. c #D15253",
"A. c #D25353",
"S. c #D05153",
"D. c #D55453",
"F. c #D65553",
"G. c #D75653",
"H. c #D45553",
"J. c #D95653",
"K. c #DA5753",
"L. c #DA5754",
"P. c #D85654",
"I. c #D75A52",
"U. c #DC5953",
"Y. c #DD5854",
"T. c #DE5954",
"R. c #DF5A54",
"E. c #DE5954",
"W. c #E15A54",
"Q. c #E25B54",
"!. c #E35B54",
"~. c #E35C54",
"^. c #E45C54",
"/. c #E55C54",
"(. c #E65D54",
"). c #E75D54",
"_. c #E75E54",
"`. c #E35C54",
"'. c #E85E54",
"]. c #E95E54",
"[. c #E95F54",
"{. c #EB5F54",
"}. c #EA5F54",
"|. c #CE6156",
" X c #C5705E",
/* pixels */
"                                                                                                    ",
"                                      q w i i q i q q q q                                           ",
"                                w v M R $.$.$.$.$.$.$.$.( M M q 0                                   ",
"                            n M M h.T.C.).).[.)._._._._.P.T.T.@.M m b                               ",
"                        b m ! #.P.c.c.[.].).).[.).].].).].).=.F.B.^ E n q                           ",
"                    b v E ^ ) K.].).].P.).].[._.[.[.).].].].].).].B.) Q T v q                       ",
"                  v E j.D.Y.].S.).[.).[.].A.K._._.[.).C.].[.).].].b.].K.b.=.E i                     ",
"              m v M x.F.Y.;.,.].[.).[.).).[.).Q.T.k.].[.).).[.).).).;.f.C.R.^ m i                   ",
"            M i M =.Q.4.).].].).].[.).[.].).).).Q.].k._.[.).[.).).[.).)._.4.W.( M c M               ",
"            b M ) <.%.D.D.Y.T.].).).[._.Q.B.).[.).].).)._.[.).[.[.).C.).k.B.;.;.( m 0               ",
"        M b n V.{.x.P.Y.5.K.].].[.).).G.[.].[.).].).[.).).[.[.).].].].Z.&.].5.F.).#.w M M           ",
"        n q ! ) ,.j.j.b.S.b.) F.).[.[.).[.).[.).).[.).[.[.).].[.).).W.A.B.b.&.n.#.( E v             ",
"      M v M ) #.Y.) n.D.T.%.W.]._.W.).].[.].).[.[.).].).).[.B.K.].].Z.;.C.U.;.4.U.( ) v n M         ",
"        b ( ^ %.) h.!.,.!.x.!.!.).B.[.).Q.).[.).).[.).].[._.].5.].W.).h.).;.).%.) #.Q z.w q         ",
"      m N E 4.) ) &.) P.P.K.K.W.f.[.)._.Q.[.).].[.k.).).B.).).).Z.W.b.!.x.D.=.%.H.z.( Q q m m       ",
"    m x.5.R ^ ) ! ( Y.Y.,.%.f.W.;.P.G._._.).U.].].[.Y.].).).B.T.Z.P.h.%.%.].<.^ ( =.#.@.! ! m R     ",
"    $.#.R ( v Q ( ! j.) b.W.&.W.B.) W.b.).h.].].W.C.F.T.T.B.S.#.C.W.h.!.;.;.&.Z.( E n ~ 0 P b       ",
"( ^ m e ).N #.C.m ^ ( 4.) %.W.x.K.F.F.=.P.T.P.W.4.Z.F.W.k.f.W.b.!.;.D.) ( ) ) #.R %.v m ( a ! ^     ",
"    7 #.^ 0 ~ T j.( c.^ ( h.W.#.;.&.W.B.h.!.) &.j.).,.).&.W.S.,.&.&.].) D.C.m ,.@.#.U.M a Q q       ",
"      E #.v Q i T ( ( m ^ ( ( h.W.%.T.S.;.&.!.W.!.f.F.&.b.f.S.;.!.%.! ) ) ) ( ^ E n N ^ s ! a       ",
"  e b P M B.@.0 v ;.n.( E Q ) h.) Q.;.D.) D.W.C.P.%.].;.%.W.b.P.Q ) ) R M U.R ^ ( R m W T.i R s #.  ",
"  v i @.R N W ~ M ( =.j.! E h.! ! U.#.) x.,.=.;.h.) &.%.E Z.;.W.E ( Z.M ( E E ^ w N W R E E v Q     ",
"  %.R @.~ Q f v T M h.E n ^ j.^ Q ) C.C.n.^ ;.{.) ! 4.) R ) #.E T ) -.E ;.@.M ~ v b R n @.W M E     ",
"  n n m.E m E q b M N T ) ;.&.R Z.=.%.( E 4.( h.E T j.~ R W.<.x ^ T x.T.b.( i E #.i M n %.] m n (   ",
"0 7   ( 4.R.i 0 e x `.m ! m q Q #.M m x.M ~ ( ( ^ b.Q T Q #.Q ( #.M n E f ^ R s a 7 E m ^ Q   7 s   ",
"      b v z 7 m v e z m m f s M n -.P.M T E #.M V.T ^ ^ M R D.n ^ M ) i ! ! #.k.N i G.^ ^ P M       ",
"        v m.] v b m n e ^ e R 0 ( R ^ m ) Q T T %.E M ( ^ ( M ^ R 0 T q M v w m 0 7 v m     0       ",
"        ( P W 0 m b ^ E 8 a E T w T.n b Q E s Q M M M M R -.^ M n m b b B.5.E ( n i ( R b.          ",
"        E 0 7 m q e x ~ ).v f a x E ) M M z m E M n R ) v 4.^ w w q b m z W @.7 v m w @.            ",
"      _.4.) 8 0 7 a R n v 0 0 f M N ~ v ~ v 7 a m #.n z b b Q P R 0 0 q ! N P.b 7 7 e c.M           ",
"        m       0 z W.R ) 0 n v 0 ~ H.m w M q q m a i M b @.E -.@.w m 7 7 i   a 7 7   R 0           ",
"        ).&.    7 q f m   0 0 6 w ^ q 0 7 v 0 7 0 0 i i 0 n n n 7 0 0 0   ( =.m.7   Q.-.)           ",
"          (         ^ C.  7   O.C.R I 5 7 7 e 7 0 0 7 7 7 P.( Q P 0 6 7   ! q         v             ",
"                    7 m       > 6 n L 6 5 7 7 7 7 0 7 7 = x @.o.+ <     P.h.(         ^ C.          ",
"                      ( ).      ( #.Q.y r 0 * u = . 7 @ , I R |.D 1       0 (         Q 7           ",
"                    #.m         z P h V A r t e.u.u.S S * O b t.s.y       K.          %.W.          ",
"                    x.M   r < > U.^ @.H t 1 B X.[ e.p.[ * $ ( =.+.D * 1     E )     ) ~             ",
"                    ] Q     o A i.v i.i.F > * < y F } j , < d w D F , < r _ U.        W.            ",
"                    4.~     ..r.C.~ 8.a.B * ..w.X.S F ; j `.;. .a.p.B & & & # &                     ",
"                      A.) j j 0.u | ` } 1 X.w.w.e.q.S & D j i 6.9.w.w.O > o o                       ",
"                    t U.t.p.X.H ' ^ U.2 % F D B j 9.; > V k K.l S j [ [                             ",
"                y e.[ ' V ..p.9.@.m g : y.i.H S H j ; , 8.s.X.R L i.p.i.H                           ",
"              j i.p.a.w.H < B y t j.k A S e.p.} D & o < p...7.F.# i.8.F G 0.                        ",
"              S H H } G % &   U ~  Xp.y.H j ..y.D $     ; S D > X & y H p...F                       ",
"            < 3 3 * >         K C.d.H 0.p.{ H B &       @ 8.a.0., o   1 G [ p...t                   ",
"                              8.j B H S ` { * X           1 [ ` D         A F 4 t                   ",
"                            [ { H F t < <                   J e.V                                   ",
"                          G p.p.y.t O                       B F                                     ",
"                          B ` S [ 2                       D K                                       ",
"                            j 2                                                                     "
};
